<svg width="52" height="74" viewBox="0 0 52 74" fill="none" xmlns="http://www.w3.org/2000/svg">
    <path
        d="M20.7708 42.3437L27.8851 43.9214C29.4196 44.2166 30.9386 43.9571 32.2121 43.2802L42.5365 35.7375C46.6913 32.638 43.5595 24.9223 35.8398 28.1694L29.8372 31.7982L28.4332 31.274C27.2483 28.9633 25.3223 26.9886 22.7803 25.7264C16.4646 22.5963 8.73958 25.0495 5.52952 31.2078C3.57739 34.9384 2.31947 38.9032 1.84448 42.9392C1.17116 48.6191 2.1681 54.5585 4.7779 59.6888C9.17281 68.3104 14.3298 70.672 24.247 67.4503L33.9451 64.2999L34.3522 66.9821C34.8063 69.9849 37.3743 72.1785 40.3704 72.321C44.8331 72.5296 50.4442 72.8757 50.4442 67.2925C50.4442 64.8648 48.4033 63.5364 46.3312 62.4982C46.0389 60.5947 45.851 55.8971 45.235 54.075C44.1285 50.8076 40.5113 49.0313 37.1603 50.1154L31.2413 52.0392C27.5093 53.2912 26.8829 46.3949 27.7546 43.9927"
        stroke="white" stroke-width="2" stroke-miterlimit="22.93" />
    <path fill-rule="evenodd" clip-rule="evenodd"
        d="M20.7759 2.54351C13.3066 -1.34997 0.153231 3.40364 5.87392 17.242C6.53159 18.8351 7.9513 21.1813 9.8408 22.4385C14.006 25.197 19.5388 24.3826 22.3679 20.9269C26.0007 16.3819 27.7545 6.18252 20.7759 2.53843L20.7759 2.54351Z"
        stroke="white" stroke-width="2" stroke-miterlimit="22.93" />
    <path d="M29.9415 51.3723C29.9415 51.3723 26.4914 63.8925 21.4544 68.1117" stroke="white"
        stroke-width="2" stroke-miterlimit="22.93" />
    <path d="M28.5062 48.7869C28.5062 48.7869 12.8004 61.2562 3.7914 57.4899" stroke="white"
        stroke-width="2" stroke-miterlimit="22.93" />
</svg>
