<svg width="102" height="169" viewBox="0 0 102 169" fill="none" xmlns="http://www.w3.org/2000/svg">
    <path
        d="M19.0174 168L13.0873 108.648L12.7262 91.2436M37.7137 32.8418C44.2901 33.9565 50.3279 35.1092 56.8409 36.5216L51.5634 49.8094L49.0038 50.7088C48.3829 50.2591 47.2235 59.8164 47.3439 61.6975M27.2157 92.01L12.7262 91.2372C12.8529 88.1528 12.8909 86.2274 12.9226 83.1936M13.157 56.3013L11.8455 63.5279L2 61.8558L4.48355 43.1782C4.85102 41.0058 7.04947 38.4027 9.1022 37.6363L22.3816 32.8798M36.0982 29.029C36.491 30.2387 37.0992 32.0818 37.9292 32.9938L30.0223 39.8974L22.1155 32.9938C22.9455 32.0818 23.5537 30.2324 23.9465 29.0227M59.3118 45.5976L53.407 45.1733M56.7522 36.7433L64.659 38.067M63.9811 42.9945C65.2419 37.307 65.0012 30.3527 64.5513 25.3809C64.3929 22.4738 64.3042 14.3035 70.3801 12.2388C73.0474 9.50265 79.9848 10.288 83.0006 12.1311C87.86 15.0952 89.3742 21.4351 88.9307 25.3302C88.3225 30.6441 88.1577 38.2507 89.7797 43.1212M76.7917 167.994L76.8994 129.239M99.207 103.246C98.244 109.047 97.357 114.507 96.1406 114.431C95.469 114.545 94.2526 114.798 93.6887 114.646M69.8352 168L66.3063 129.245M87.3785 129.245L83.9382 168M82.6521 42.5132C85.3194 42.5132 87.2898 42.4182 89.9507 43.2289M96.1659 50.2591C97.3887 52.9002 98.5481 56.2443 98.8839 59.9748L100.854 84.1373L101 103.252L93.6507 103.923M91.6677 61.3048C91.598 64.2879 90.7617 73.3893 90.9264 75.986C91.2305 80.7108 92.561 85.0177 93.3022 89.5019C93.9421 93.3907 93.9548 97.6848 93.8408 101.618C93.543 111.783 92.4596 121.239 92.9094 129.536H62.2452M60.4078 90.2365C61.1111 85.7587 62.4479 83.1493 62.5873 76.7144C62.676 72.7496 61.5102 66.929 60.6803 62.9009L60.1861 62.9959L56.6952 68.6201M49.8527 62.2612L57.164 47.7637C60.2051 43.1022 66.3506 42.5132 71.3938 42.5132M73.6746 38.3267C73.6176 40.0811 72.4011 41.9875 70.4118 42.5828C74.7326 47.8397 79.0472 47.9157 83.368 42.5828C81.7145 41.9938 80.441 39.8341 80.4157 38.048M38.0875 168L35.8447 132.013C35.6357 129.828 35.6103 122.918 35.7054 120.581H57.3224C57.4174 122.918 57.3921 129.821 57.183 132.013L54.9402 168M31.0424 128.65C30.5672 132.931 32.5946 135.756 35.9398 135.097M34.1278 89.3942L41.4137 87.6271M51.7534 87.9248L58.9317 89.3879C63.1512 90.7559 63.6327 96.7158 64.0825 100.915L64.5767 114.918L64.1205 128.51L58.2981 128.941M57.0943 104.158C56.9549 110.01 57.2527 114.69 57.3287 120.695M35.6864 121.227C35.8511 115.419 36.1108 110.01 35.9715 104.158M34.7614 128.947L28.9389 128.517L28.4828 114.925L28.977 100.921C29.0973 99.8319 29.2114 98.6222 29.3951 97.4061M50.5053 85.5434C50.7397 86.5757 51.2339 87.4498 51.9942 88.1718L46.4505 92.3583L40.9005 88.1718C41.6608 87.4498 42.155 86.5757 42.3957 85.5434M37.7391 77.7151C35.8954 73.934 33.9504 66.5174 39.6968 63.2303C42.5858 61.5772 48.1105 60.8552 51.0185 62.8692C57.7279 63.7179 57.8356 72.1226 55.5231 76.5687M89.672 42.7855L91.2495 46.0536L92.1302 49.6764C92.1492 50.1894 92.2759 50.5504 93.0171 50.7848C94.3603 51.3105 97.5091 51.1268 98.6051 49.9234L98.13 46.0726L96.356 43.2352C95.6844 42.1585 95.1396 41.9305 93.9295 41.7785L89.2601 41.2084M2.88065 62.0142L4.10342 75.986L5.30718 78.7221L26.5314 91.3829L27.8936 92.6496L29.2874 96.7538C29.8893 97.7228 31.3591 100.757 32.9494 99.9966C34.0264 99.4836 35.4203 98.6032 36.2502 97.8875C37.2259 97.0514 37.0105 97.0705 36.4466 96.0888L34.7043 93.0423L33.6906 89.5589L36.2249 88.8052L34.0201 87.5258L31.1374 87.2091L12.365 73.877L11.3957 63.4519M29.997 168V128.65M46.5139 130.588V167.994M62.3592 128.65C62.8344 132.931 60.807 135.756 57.4618 135.097M38.0305 18.6167C37.8911 16.5646 38.8605 13.6258 38.7274 12.9988C38.6197 12.5048 37.1435 10.7694 33.7857 10.934C31.5429 11.0417 31.1121 11.6371 28.2104 11.3774C25.4797 11.1304 22.8378 10.3513 21.6277 12.1881C20.8927 13.3091 22.2676 16.5519 22.1155 18.6167M40.8879 15.7919L41.3821 16.1782C41.3947 18.3 40.9892 20.352 40.2797 22.3661L39.2976 22.9108C38.3156 26.5146 35.756 30.5237 32.2271 32.0564C30.7763 32.3098 29.2621 32.3098 27.8112 32.0564C24.2759 30.5237 21.7164 26.5146 20.7407 22.9108L19.7587 22.3661C19.0491 20.352 18.6436 18.3 18.6563 16.1782L19.2328 15.7412C18.4345 11.0607 18.3585 9.23032 19.4609 5.75319C20.8167 2.97276 24.2253 0.914344 27.3424 1.5097C29.2431 0.375991 34.6156 1.35767 36.7697 2.28237C38.5184 3.02973 40.6598 5.96219 40.9639 7.80526C41.4391 9.15431 41.116 13.4991 40.8879 15.7919ZM83.7862 33.2978C83.0322 35.8693 81.4167 37.5033 79.2562 38.922C77.2225 40.2584 76.5003 40.2458 74.4665 38.9157C70.8616 36.547 69.3094 34.5139 68.9736 29.8967C68.4287 25.3176 74.986 27.2366 81.0492 22.5054C81.8285 21.8974 82.4367 21.6821 82.9309 23.2465C83.9446 26.4576 84.5211 30.0171 83.7862 33.2978ZM38.9112 79.2858C39.6334 82.2182 40.9639 84.017 43.4855 85.7397C45.2404 86.9368 47.6606 86.9241 49.4093 85.727C52.0955 83.8903 53.407 82.2626 53.9582 79.3111C53.9646 79.2541 53.9962 79.2225 54.0469 79.2098C55.5294 78.7981 55.9096 75.549 54.5094 75.0297C54.332 74.9663 54.3637 75.036 54.2813 74.8396C54.0659 74.3013 53.5464 72.5026 53.3437 72.0909C53.2233 71.8376 53.0459 71.5272 52.6911 71.7426C50.8538 72.6736 41.2363 74.5863 38.6514 74.9917C37.1689 75.226 37.3336 78.5131 38.7971 79.1655C38.8478 79.1908 38.8858 79.2288 38.9048 79.2858H38.9112Z"
        stroke="white" stroke-width="2" stroke-miterlimit="22.93" />
</svg>
