<svg width="115" height="173" viewBox="0 0 115 173" fill="none" xmlns="http://www.w3.org/2000/svg">
    <path
        d="M81.9032 89.9933C80.4857 86.5035 79.1999 79.7627 84.5123 77.172C87.1842 75.8704 92.1517 75.556 94.6229 77.5304C100.55 78.6937 100.142 86.2079 97.8154 90.0436M30.8299 28.8108C31.9902 31.8542 30.5476 34.3254 28.5594 36.4319C24.7334 40.4876 23.1654 45.3986 27.1043 50.1524M33.276 23.7929C32.285 25.6164 33.3951 26.371 34.1164 27.2702C35.8224 29.3893 37.1145 32.4641 36.2238 35.8911C35.766 37.7523 34.6307 39.7834 33.439 43.4304C31.3003 49.9826 33.7464 49.511 35.5214 49.4607C33.4453 51.9822 29.2995 51.5672 27.9635 46.3607M34.5429 15.587C38.1995 8.79595 32.4355 1.65275 27.5496 2.89778C20.2991 -1.07626 6.76402 7.74585 15.3191 22.5919M34.5429 15.587C34.5429 15.587 33.5268 10.3554 28.7225 9.90894C28.2395 16.1404 22.1744 12.0532 17.5143 16.1278C14.6668 18.6619 14.2089 21.0136 16.3979 25.1008C18.1917 28.4461 20.1611 31.1939 22.6699 32.5018C23.9243 32.9483 25.1348 32.9483 26.383 32.5018C28.8918 31.1939 30.8612 28.4398 32.655 25.1008C33.1693 24.1325 33.5206 23.2584 33.7213 22.4284C34.982 22.4724 35.8475 19.3033 35.904 17.6244C35.9667 15.9454 35.8475 15.6185 34.5429 15.587ZM35.5025 39.0414L39.3849 40.7706C40.6644 41.3428 41.6993 42.5564 41.9941 43.9209L47.9902 71.6574L58.8158 89.8298L61.7699 90.3329L62.4786 90.9177L63.0682 94.2943L70.6574 99.5197L77.1678 100.186C77.3183 100.268 82.0474 100.721 84.0231 100.237C85.0517 99.985 85.6852 98.4759 86.1494 97.1554M37.635 67.3124L41.8122 77.2286L53.4281 95.1935L55.9745 96.0676L58.0443 98.9915L67.559 107.248L76.3649 111.266L77.6633 113.108L78.5476 129.476C78.5476 129.696 79.3065 129.853 79.3003 130.067C79.1247 135.883 79.0306 143.454 78.8236 149.277L81.5519 172.668M88.2819 172.467L88.3822 150.868C88.3697 150.302 88.3948 149.736 88.4826 149.17L90.2952 136.034L90.5272 136.015L93.0925 145.844C93.1803 146.303 93.1803 146.768 93.1302 147.227L91.098 167.129M97.5457 167.355L101.898 147.126C102.45 144.687 100.757 135.273 100.663 132.664C100.65 126.684 100.839 121.433 100.694 115.56L100.807 115.479L105.361 122.748L106.32 134.085L107.117 134.657L107.587 137.223C107.669 137.556 107.757 137.613 108.208 137.594C109.845 137.518 112.254 137.122 112.887 136.273L112.624 133.048L113 132.733L111.407 118.868L105.411 106.751C104.514 104.978 104.175 103.569 101.892 102.431L95.1372 100.123C93.726 99.6392 93.5566 98.9098 93.1113 97.3252M11.2987 52.3406L10.4018 55.057C9.41082 58.0501 8.18777 62.326 10.5774 66.1051C13.588 70.9154 9.05331 81.429 7.73618 87.0883C6.38142 92.9047 6.05527 100.161 6.02391 106.128C5.99255 113.435 6.57585 121.245 5.60996 129.363H43.4367C42.4708 121.245 43.0541 113.435 43.0165 106.128C42.9914 100.161 42.3893 92.9047 41.0345 87.0883C39.7174 81.4227 35.1827 70.9154 38.1933 66.1051C40.5829 62.3134 39.8428 57.9558 38.626 55.0319L37.7354 52.3406M14.2152 38.2554C16.0404 42.6004 20.5625 44.688 24.9843 44.5371M1 101.23H4.02313M1 101.23L1.62093 102.846L1.92199 106.267L6.35006 111.109M1 101.23L1.73383 77.2035L4.28028 48.1402C4.46217 45.5621 5.67895 41.9779 8.41356 41.0096L16.2474 37.7272C18.5555 37.0544 19.6217 35.2183 20.1987 30.7475M29.8765 172.8L26.2262 129.564M37.2462 172.945L37.1082 129.363M21.9675 172.8L22.8205 129.564M14.6103 172.945L11.951 129.363M78.5539 129.476L100.663 129.463M83.8099 100.733C83.4085 105.267 94.7483 107.279 94.949 100.375M106.069 133.192L109.663 132.299M58.5272 99.4002L61.6005 95.967M82.8565 91.4647C83.3269 94.1246 84.3995 95.816 86.5445 97.5138C88.0373 98.6897 90.1948 98.8217 91.8256 97.8597C94.3281 96.3757 95.5951 95.0049 96.2662 92.3954C96.2787 92.3451 96.3038 92.3199 96.3477 92.3136C97.6962 92.0369 98.2293 89.157 97.0125 88.6037C96.862 88.5345 96.8808 88.6037 96.8181 88.4213C96.655 87.9309 96.3038 86.2897 96.147 85.9061C96.0529 85.6735 95.9149 85.3842 95.5888 85.554C93.8953 86.2771 85.2148 87.4089 82.8879 87.6102C81.5519 87.7296 81.5018 90.6787 82.7687 91.3453C82.8189 91.3704 82.844 91.4081 82.8565 91.4647Z"
        stroke="white" stroke-width="2" stroke-miterlimit="22.93" />
</svg>
