<svg width="315" height="207" viewBox="0 0 315 207" fill="none" xmlns="http://www.w3.org/2000/svg">
    <path
        d="M81.9032 123.993C80.4857 120.503 79.1999 113.763 84.5123 111.172C87.1842 109.87 92.1517 109.556 94.6229 111.53C100.55 112.694 100.142 120.208 97.8154 124.044M30.8299 62.8108C31.9902 65.8542 30.5476 68.3254 28.5594 70.4319C24.7334 74.4876 23.1654 79.3986 27.1043 84.1524M33.276 57.7929C32.285 59.6164 33.3951 60.371 34.1164 61.2702C35.8224 63.3893 37.1145 66.4641 36.2238 69.8911C35.766 71.7523 34.6307 73.7834 33.439 77.4304C31.3003 83.9826 33.7464 83.511 35.5214 83.4607C33.4453 85.9822 29.2995 85.5672 27.9635 80.3607M34.5429 49.587C38.1995 42.796 32.4355 35.6527 27.5496 36.8978C20.2991 32.9237 6.76402 41.7459 15.3191 56.5919M34.5429 49.587C34.5429 49.587 33.5268 44.3554 28.7225 43.9089C28.2395 50.1404 22.1744 46.0532 17.5143 50.1278C14.6668 52.6619 14.2089 55.0136 16.3979 59.1008C18.1917 62.4461 20.1611 65.1939 22.6699 66.5018C23.9243 66.9483 25.1348 66.9483 26.383 66.5018C28.8918 65.1939 30.8612 62.4398 32.655 59.1008C33.1693 58.1325 33.5206 57.2584 33.7213 56.4284C34.982 56.4724 35.8475 53.3033 35.904 51.6244C35.9667 49.9454 35.8475 49.6185 34.5429 49.587ZM35.5025 73.0414L39.3849 74.7706C40.6644 75.3428 41.6993 76.5564 41.9941 77.9209L47.9902 105.657L58.8158 123.83L61.7699 124.333L62.4786 124.918L63.0682 128.294L70.6574 133.52L77.1678 134.186C77.3183 134.268 82.0474 134.721 84.0231 134.237C85.0517 133.985 85.6852 132.476 86.1494 131.155M37.635 101.312L41.8122 111.229L53.4281 129.194L55.9745 130.068L58.0443 132.992L67.559 141.248L76.3649 145.266L77.6633 147.108L78.5476 163.476C78.5476 163.696 79.3065 163.853 79.3003 164.067C79.1247 169.883 79.0306 177.454 78.8236 183.277L81.5519 206.668M88.2819 206.467L88.3822 184.868C88.3697 184.302 88.3948 183.736 88.4826 183.17L90.2952 170.034L90.5272 170.015L93.0925 179.844C93.1803 180.303 93.1803 180.768 93.1302 181.227L91.098 201.129M97.5457 201.355L101.898 181.126C102.45 178.687 100.757 169.273 100.663 166.664C100.65 160.684 100.839 155.433 100.694 149.56L100.807 149.479L105.361 156.748L106.32 168.085L107.117 168.657L107.587 171.223C107.669 171.556 107.757 171.613 108.208 171.594C109.845 171.518 112.254 171.122 112.887 170.273L112.624 167.048L113 166.733L111.407 152.868L105.411 140.751C104.514 138.978 104.175 137.569 101.892 136.431L95.1372 134.123C93.726 133.639 93.5566 132.91 93.1113 131.325M11.2987 86.3406L10.4018 89.057C9.41082 92.0501 8.18777 96.326 10.5774 100.105C13.588 104.915 9.05331 115.429 7.73618 121.088C6.38142 126.905 6.05527 134.161 6.02391 140.128C5.99255 147.435 6.57585 155.245 5.60996 163.363H43.4367C42.4708 155.245 43.0541 147.435 43.0165 140.128C42.9914 134.161 42.3893 126.905 41.0345 121.088C39.7174 115.423 35.1827 104.915 38.1933 100.105C40.5829 96.3134 39.8428 91.9558 38.626 89.0319L37.7354 86.3406M14.2152 72.2554C16.0404 76.6004 20.5625 78.688 24.9843 78.5371M1 135.23H4.02313M1 135.23L1.62093 136.846L1.92199 140.267L6.35006 145.109M1 135.23L1.73383 111.203L4.28028 82.1402C4.46217 79.5621 5.67895 75.9779 8.41356 75.0096L16.2474 71.7272C18.5555 71.0544 19.6217 69.2183 20.1987 64.7475M29.8765 206.8L26.2262 163.564M37.2462 206.945L37.1082 163.363M21.9675 206.8L22.8205 163.564M14.6103 206.945L11.951 163.363M78.5539 163.476L100.663 163.463M83.8099 134.733C83.4085 139.267 94.7483 141.279 94.949 134.375M106.069 167.192L109.663 166.299M58.5272 133.4L61.6005 129.967M82.8565 125.465C83.3269 128.125 84.3995 129.816 86.5445 131.514C88.0373 132.69 90.1948 132.822 91.8256 131.86C94.3281 130.376 95.5951 129.005 96.2662 126.395C96.2787 126.345 96.3038 126.32 96.3477 126.314C97.6962 126.037 98.2293 123.157 97.0125 122.604C96.862 122.535 96.8808 122.604 96.8181 122.421C96.655 121.931 96.3038 120.29 96.147 119.906C96.0529 119.673 95.9149 119.384 95.5888 119.554C93.8953 120.277 85.2148 121.409 82.8879 121.61C81.5519 121.73 81.5018 124.679 82.7687 125.345C82.8189 125.37 82.844 125.408 82.8565 125.465Z"
        stroke="white" stroke-width="2" stroke-miterlimit="22.93" />
    <path
        d="M136.28 170C136.18 170 136.09 169.97 136.01 169.91C135.95 169.83 135.92 169.74 135.92 169.64V149.36C135.92 149.26 135.95 149.18 136.01 149.12C136.09 149.04 136.18 149 136.28 149H142.49C144.43 149 145.98 149.54 147.14 150.62C148.32 151.7 148.91 153.14 148.91 154.94V164.06C148.91 165.86 148.32 167.3 147.14 168.38C145.98 169.46 144.43 170 142.49 170H136.28ZM139.4 166.85C139.4 166.95 139.45 167 139.55 167L142.52 166.97C143.38 166.97 144.07 166.68 144.59 166.1C145.11 165.5 145.39 164.69 145.43 163.67V155.33C145.43 154.31 145.16 153.5 144.62 152.9C144.1 152.3 143.4 152 142.52 152H139.55C139.45 152 139.4 152.05 139.4 152.15V166.85ZM151.008 155.6C150.908 155.6 150.818 155.57 150.738 155.51C150.658 155.43 150.618 155.34 150.618 155.24L150.318 149.39C150.318 149.15 150.428 149.03 150.648 149.03H153.468C153.688 149.03 153.798 149.15 153.798 149.39L153.468 155.24C153.468 155.34 153.428 155.43 153.348 155.51C153.268 155.57 153.178 155.6 153.078 155.6H151.008ZM164.621 170C164.401 170 164.261 169.9 164.201 169.7L163.421 166.49C163.401 166.41 163.351 166.37 163.271 166.37H157.091C157.011 166.37 156.961 166.41 156.941 166.49L156.191 169.7C156.131 169.9 155.991 170 155.771 170H152.921C152.661 170 152.561 169.87 152.621 169.61L158.081 149.3C158.141 149.1 158.281 149 158.501 149H161.921C162.141 149 162.281 149.1 162.341 149.3L167.801 169.61L167.831 169.73C167.831 169.91 167.721 170 167.501 170H164.621ZM157.661 163.46C157.641 163.52 157.651 163.57 157.691 163.61C157.731 163.63 157.771 163.64 157.811 163.64H162.551C162.591 163.64 162.631 163.63 162.671 163.61C162.711 163.57 162.721 163.52 162.701 163.46L160.241 153.62C160.221 153.56 160.191 153.53 160.151 153.53C160.111 153.53 160.081 153.56 160.061 153.62L157.661 163.46ZM174.687 170.24C173.367 170.24 172.207 170.01 171.207 169.55C170.207 169.07 169.427 168.4 168.867 167.54C168.327 166.66 168.057 165.65 168.057 164.51V163.73C168.057 163.63 168.087 163.55 168.147 163.49C168.227 163.41 168.317 163.37 168.417 163.37H171.117C171.217 163.37 171.297 163.41 171.357 163.49C171.437 163.55 171.477 163.63 171.477 163.73V164.33C171.477 165.19 171.777 165.89 172.377 166.43C172.977 166.97 173.787 167.24 174.807 167.24C175.747 167.24 176.467 167 176.967 166.52C177.467 166.04 177.717 165.41 177.717 164.63C177.717 164.09 177.577 163.63 177.297 163.25C177.017 162.85 176.617 162.49 176.097 162.17C175.597 161.83 174.817 161.38 173.757 160.82C172.537 160.18 171.557 159.61 170.817 159.11C170.077 158.61 169.447 157.97 168.927 157.19C168.427 156.41 168.177 155.46 168.177 154.34C168.177 152.62 168.747 151.26 169.887 150.26C171.047 149.26 172.567 148.76 174.447 148.76C175.747 148.76 176.897 149.01 177.897 149.51C178.897 149.99 179.667 150.68 180.207 151.58C180.747 152.48 181.017 153.51 181.017 154.67V155.3C181.017 155.4 180.977 155.49 180.897 155.57C180.837 155.63 180.757 155.66 180.657 155.66H177.957C177.857 155.66 177.767 155.63 177.687 155.57C177.627 155.49 177.597 155.4 177.597 155.3V154.73C177.597 153.87 177.307 153.16 176.727 152.6C176.147 152.04 175.367 151.76 174.387 151.76C173.527 151.76 172.847 151.99 172.347 152.45C171.847 152.89 171.597 153.51 171.597 154.31C171.597 154.85 171.727 155.31 171.987 155.69C172.247 156.07 172.637 156.43 173.157 156.77C173.697 157.11 174.507 157.55 175.587 158.09C177.027 158.91 178.087 159.55 178.767 160.01C179.447 160.47 180.017 161.07 180.477 161.81C180.957 162.53 181.197 163.42 181.197 164.48C181.197 166.24 180.607 167.64 179.427 168.68C178.247 169.72 176.667 170.24 174.687 170.24ZM189.468 170.24C188.148 170.24 186.988 170.01 185.988 169.55C184.988 169.07 184.208 168.4 183.648 167.54C183.108 166.66 182.838 165.65 182.838 164.51V163.73C182.838 163.63 182.868 163.55 182.928 163.49C183.008 163.41 183.098 163.37 183.198 163.37H185.898C185.998 163.37 186.078 163.41 186.138 163.49C186.218 163.55 186.258 163.63 186.258 163.73V164.33C186.258 165.19 186.558 165.89 187.158 166.43C187.758 166.97 188.568 167.24 189.588 167.24C190.528 167.24 191.248 167 191.748 166.52C192.248 166.04 192.498 165.41 192.498 164.63C192.498 164.09 192.358 163.63 192.078 163.25C191.798 162.85 191.398 162.49 190.878 162.17C190.378 161.83 189.598 161.38 188.538 160.82C187.318 160.18 186.338 159.61 185.598 159.11C184.858 158.61 184.228 157.97 183.708 157.19C183.208 156.41 182.958 155.46 182.958 154.34C182.958 152.62 183.528 151.26 184.668 150.26C185.828 149.26 187.348 148.76 189.228 148.76C190.528 148.76 191.678 149.01 192.678 149.51C193.678 149.99 194.448 150.68 194.988 151.58C195.528 152.48 195.798 153.51 195.798 154.67V155.3C195.798 155.4 195.758 155.49 195.678 155.57C195.618 155.63 195.538 155.66 195.438 155.66H192.738C192.638 155.66 192.548 155.63 192.468 155.57C192.408 155.49 192.378 155.4 192.378 155.3V154.73C192.378 153.87 192.088 153.16 191.508 152.6C190.928 152.04 190.148 151.76 189.168 151.76C188.308 151.76 187.628 151.99 187.128 152.45C186.628 152.89 186.378 153.51 186.378 154.31C186.378 154.85 186.508 155.31 186.768 155.69C187.028 156.07 187.418 156.43 187.938 156.77C188.478 157.11 189.288 157.55 190.368 158.09C191.808 158.91 192.868 159.55 193.548 160.01C194.228 160.47 194.798 161.07 195.258 161.81C195.738 162.53 195.978 163.42 195.978 164.48C195.978 166.24 195.388 167.64 194.208 168.68C193.028 169.72 191.448 170.24 189.468 170.24ZM198.759 170C198.659 170 198.569 169.97 198.489 169.91C198.429 169.83 198.399 169.74 198.399 169.64V149.36C198.399 149.26 198.429 149.18 198.489 149.12C198.569 149.04 198.659 149 198.759 149H201.519C201.619 149 201.699 149.04 201.759 149.12C201.839 149.18 201.879 149.26 201.879 149.36V169.64C201.879 169.74 201.839 169.83 201.759 169.91C201.699 169.97 201.619 170 201.519 170H198.759ZM210.943 170.24C209.623 170.24 208.463 170.01 207.463 169.55C206.463 169.07 205.683 168.4 205.123 167.54C204.583 166.66 204.313 165.65 204.313 164.51V163.73C204.313 163.63 204.343 163.55 204.403 163.49C204.483 163.41 204.573 163.37 204.673 163.37H207.373C207.473 163.37 207.553 163.41 207.613 163.49C207.693 163.55 207.733 163.63 207.733 163.73V164.33C207.733 165.19 208.033 165.89 208.633 166.43C209.233 166.97 210.043 167.24 211.063 167.24C212.003 167.24 212.723 167 213.223 166.52C213.723 166.04 213.973 165.41 213.973 164.63C213.973 164.09 213.833 163.63 213.553 163.25C213.273 162.85 212.873 162.49 212.353 162.17C211.853 161.83 211.073 161.38 210.013 160.82C208.793 160.18 207.813 159.61 207.073 159.11C206.333 158.61 205.703 157.97 205.183 157.19C204.683 156.41 204.433 155.46 204.433 154.34C204.433 152.62 205.003 151.26 206.143 150.26C207.303 149.26 208.823 148.76 210.703 148.76C212.003 148.76 213.153 149.01 214.153 149.51C215.153 149.99 215.923 150.68 216.463 151.58C217.003 152.48 217.273 153.51 217.273 154.67V155.3C217.273 155.4 217.233 155.49 217.153 155.57C217.093 155.63 217.013 155.66 216.913 155.66H214.213C214.113 155.66 214.023 155.63 213.943 155.57C213.883 155.49 213.853 155.4 213.853 155.3V154.73C213.853 153.87 213.563 153.16 212.983 152.6C212.403 152.04 211.623 151.76 210.643 151.76C209.783 151.76 209.103 151.99 208.603 152.45C208.103 152.89 207.853 153.51 207.853 154.31C207.853 154.85 207.983 155.31 208.243 155.69C208.503 156.07 208.893 156.43 209.413 156.77C209.953 157.11 210.763 157.55 211.843 158.09C213.283 158.91 214.343 159.55 215.023 160.01C215.703 160.47 216.273 161.07 216.733 161.81C217.213 162.53 217.453 163.42 217.453 164.48C217.453 166.24 216.863 167.64 215.683 168.68C214.503 169.72 212.923 170.24 210.943 170.24ZM231.822 149C231.922 149 232.002 149.04 232.062 149.12C232.142 149.18 232.182 149.26 232.182 149.36V151.67C232.182 151.77 232.142 151.86 232.062 151.94C232.002 152 231.922 152.03 231.822 152.03H227.172C227.072 152.03 227.022 152.08 227.022 152.18V169.64C227.022 169.74 226.982 169.83 226.902 169.91C226.842 169.97 226.762 170 226.662 170H223.902C223.802 170 223.712 169.97 223.632 169.91C223.572 169.83 223.542 169.74 223.542 169.64V152.18C223.542 152.08 223.492 152.03 223.392 152.03H218.922C218.822 152.03 218.732 152 218.652 151.94C218.592 151.86 218.562 151.77 218.562 151.67V149.36C218.562 149.26 218.592 149.18 218.652 149.12C218.732 149.04 218.822 149 218.922 149H231.822ZM243.55 170C243.33 170 243.19 169.9 243.13 169.7L242.35 166.49C242.33 166.41 242.28 166.37 242.2 166.37H236.02C235.94 166.37 235.89 166.41 235.87 166.49L235.12 169.7C235.06 169.9 234.92 170 234.7 170H231.85C231.59 170 231.49 169.87 231.55 169.61L237.01 149.3C237.07 149.1 237.21 149 237.43 149H240.85C241.07 149 241.21 149.1 241.27 149.3L246.73 169.61L246.76 169.73C246.76 169.91 246.65 170 246.43 170H243.55ZM236.59 163.46C236.57 163.52 236.58 163.57 236.62 163.61C236.66 163.63 236.7 163.64 236.74 163.64H241.48C241.52 163.64 241.56 163.63 241.6 163.61C241.64 163.57 241.65 163.52 241.63 163.46L239.17 153.62C239.15 153.56 239.12 153.53 239.08 153.53C239.04 153.53 239.01 153.56 238.99 153.62L236.59 163.46ZM259.083 149.36C259.083 149.26 259.113 149.18 259.173 149.12C259.253 149.04 259.343 149 259.443 149H262.203C262.303 149 262.383 149.04 262.443 149.12C262.523 149.18 262.563 149.26 262.563 149.36V169.64C262.563 169.74 262.523 169.83 262.443 169.91C262.383 169.97 262.303 170 262.203 170H259.293C259.113 170 258.973 169.91 258.873 169.73L252.333 156.29C252.293 156.23 252.253 156.21 252.213 156.23C252.173 156.23 252.153 156.27 252.153 156.35L252.183 169.64C252.183 169.74 252.143 169.83 252.063 169.91C252.003 169.97 251.923 170 251.823 170H249.063C248.963 170 248.873 169.97 248.793 169.91C248.733 169.83 248.703 169.74 248.703 169.64V149.36C248.703 149.26 248.733 149.18 248.793 149.12C248.873 149.04 248.963 149 249.063 149H251.943C252.143 149 252.283 149.09 252.363 149.27L258.933 162.77C258.973 162.83 259.013 162.86 259.053 162.86C259.093 162.84 259.113 162.79 259.113 162.71L259.083 149.36ZM278.04 149C278.14 149 278.22 149.04 278.28 149.12C278.36 149.18 278.4 149.26 278.4 149.36V151.67C278.4 151.77 278.36 151.86 278.28 151.94C278.22 152 278.14 152.03 278.04 152.03H273.39C273.29 152.03 273.24 152.08 273.24 152.18V169.64C273.24 169.74 273.2 169.83 273.12 169.91C273.06 169.97 272.98 170 272.88 170H270.12C270.02 170 269.93 169.97 269.85 169.91C269.79 169.83 269.76 169.74 269.76 169.64V152.18C269.76 152.08 269.71 152.03 269.61 152.03H265.14C265.04 152.03 264.95 152 264.87 151.94C264.81 151.86 264.78 151.77 264.78 151.67V149.36C264.78 149.26 264.81 149.18 264.87 149.12C264.95 149.04 265.04 149 265.14 149H278.04ZM292.968 151.64C292.968 151.74 292.928 151.83 292.848 151.91C292.788 151.97 292.708 152 292.608 152H284.268C284.168 152 284.118 152.05 284.118 152.15V157.79C284.118 157.89 284.168 157.94 284.268 157.94H289.608C289.708 157.94 289.788 157.98 289.848 158.06C289.928 158.12 289.968 158.2 289.968 158.3V160.58C289.968 160.68 289.928 160.77 289.848 160.85C289.788 160.91 289.708 160.94 289.608 160.94H284.268C284.168 160.94 284.118 160.99 284.118 161.09V166.85C284.118 166.95 284.168 167 284.268 167H292.608C292.708 167 292.788 167.04 292.848 167.12C292.928 167.18 292.968 167.26 292.968 167.36V169.64C292.968 169.74 292.928 169.83 292.848 169.91C292.788 169.97 292.708 170 292.608 170H280.998C280.898 170 280.808 169.97 280.728 169.91C280.668 169.83 280.638 169.74 280.638 169.64V149.36C280.638 149.26 280.668 149.18 280.728 149.12C280.808 149.04 280.898 149 280.998 149H292.608C292.708 149 292.788 149.04 292.848 149.12C292.928 149.18 292.968 149.26 292.968 149.36V151.64ZM301.269 170.24C299.949 170.24 298.789 170.01 297.789 169.55C296.789 169.07 296.009 168.4 295.449 167.54C294.909 166.66 294.639 165.65 294.639 164.51V163.73C294.639 163.63 294.669 163.55 294.729 163.49C294.809 163.41 294.899 163.37 294.999 163.37H297.699C297.799 163.37 297.879 163.41 297.939 163.49C298.019 163.55 298.059 163.63 298.059 163.73V164.33C298.059 165.19 298.359 165.89 298.959 166.43C299.559 166.97 300.369 167.24 301.389 167.24C302.329 167.24 303.049 167 303.549 166.52C304.049 166.04 304.299 165.41 304.299 164.63C304.299 164.09 304.159 163.63 303.879 163.25C303.599 162.85 303.199 162.49 302.679 162.17C302.179 161.83 301.399 161.38 300.339 160.82C299.119 160.18 298.139 159.61 297.399 159.11C296.659 158.61 296.029 157.97 295.509 157.19C295.009 156.41 294.759 155.46 294.759 154.34C294.759 152.62 295.329 151.26 296.469 150.26C297.629 149.26 299.149 148.76 301.029 148.76C302.329 148.76 303.479 149.01 304.479 149.51C305.479 149.99 306.249 150.68 306.789 151.58C307.329 152.48 307.599 153.51 307.599 154.67V155.3C307.599 155.4 307.559 155.49 307.479 155.57C307.419 155.63 307.339 155.66 307.239 155.66H304.539C304.439 155.66 304.349 155.63 304.269 155.57C304.209 155.49 304.179 155.4 304.179 155.3V154.73C304.179 153.87 303.889 153.16 303.309 152.6C302.729 152.04 301.949 151.76 300.969 151.76C300.109 151.76 299.429 151.99 298.929 152.45C298.429 152.89 298.179 153.51 298.179 154.31C298.179 154.85 298.309 155.31 298.569 155.69C298.829 156.07 299.219 156.43 299.739 156.77C300.279 157.11 301.089 157.55 302.169 158.09C303.609 158.91 304.669 159.55 305.349 160.01C306.029 160.47 306.599 161.07 307.059 161.81C307.539 162.53 307.779 163.42 307.779 164.48C307.779 166.24 307.189 167.64 306.009 168.68C304.829 169.72 303.249 170.24 301.269 170.24ZM147.38 181.24C147.46 181.08 147.6 181 147.8 181H150.59C150.69 181 150.77 181.04 150.83 181.12C150.91 181.18 150.95 181.26 150.95 181.36V201.64C150.95 201.74 150.91 201.83 150.83 201.91C150.77 201.97 150.69 202 150.59 202H147.83C147.73 202 147.64 201.97 147.56 201.91C147.5 201.83 147.47 201.74 147.47 201.64V187.42C147.47 187.34 147.45 187.3 147.41 187.3C147.37 187.28 147.33 187.3 147.29 187.36L144.11 192.61C144.03 192.77 143.89 192.85 143.69 192.85H143.12C142.92 192.85 142.78 192.77 142.7 192.61L139.52 187.39C139.48 187.33 139.44 187.31 139.4 187.33C139.36 187.33 139.34 187.37 139.34 187.45V201.64C139.34 201.74 139.3 201.83 139.22 201.91C139.16 201.97 139.08 202 138.98 202H136.22C136.12 202 136.03 201.97 135.95 201.91C135.89 201.83 135.86 201.74 135.86 201.64V181.36C135.86 181.26 135.89 181.18 135.95 181.12C136.03 181.04 136.12 181 136.22 181H138.98C139.18 181 139.32 181.08 139.4 181.24L143.33 187.51C143.39 187.63 143.45 187.63 143.51 187.51L147.38 181.24ZM164.899 202C164.679 202 164.539 201.9 164.479 201.7L163.699 198.49C163.679 198.41 163.629 198.37 163.549 198.37H157.369C157.289 198.37 157.239 198.41 157.219 198.49L156.469 201.7C156.409 201.9 156.269 202 156.049 202H153.199C152.939 202 152.839 201.87 152.899 201.61L158.359 181.3C158.419 181.1 158.559 181 158.779 181H162.199C162.419 181 162.559 181.1 162.619 181.3L168.079 201.61L168.109 201.73C168.109 201.91 167.999 202 167.779 202H164.899ZM157.939 195.46C157.919 195.52 157.929 195.57 157.969 195.61C158.009 195.63 158.049 195.64 158.089 195.64H162.829C162.869 195.64 162.909 195.63 162.949 195.61C162.989 195.57 162.999 195.52 162.979 195.46L160.519 185.62C160.499 185.56 160.469 185.53 160.429 185.53C160.389 185.53 160.359 185.56 160.339 185.62L157.939 195.46ZM180.271 181C180.371 181 180.451 181.04 180.511 181.12C180.591 181.18 180.631 181.26 180.631 181.36V183.67C180.631 183.77 180.591 183.86 180.511 183.94C180.451 184 180.371 184.03 180.271 184.03H175.621C175.521 184.03 175.471 184.08 175.471 184.18V201.64C175.471 201.74 175.431 201.83 175.351 201.91C175.291 201.97 175.211 202 175.111 202H172.351C172.251 202 172.161 201.97 172.081 201.91C172.021 201.83 171.991 201.74 171.991 201.64V184.18C171.991 184.08 171.941 184.03 171.841 184.03H167.371C167.271 184.03 167.181 184 167.101 183.94C167.041 183.86 167.011 183.77 167.011 183.67V181.36C167.011 181.26 167.041 181.18 167.101 181.12C167.181 181.04 167.271 181 167.371 181H180.271ZM195.2 183.64C195.2 183.74 195.16 183.83 195.08 183.91C195.02 183.97 194.94 184 194.84 184H186.5C186.4 184 186.35 184.05 186.35 184.15V189.79C186.35 189.89 186.4 189.94 186.5 189.94H191.84C191.94 189.94 192.02 189.98 192.08 190.06C192.16 190.12 192.2 190.2 192.2 190.3V192.58C192.2 192.68 192.16 192.77 192.08 192.85C192.02 192.91 191.94 192.94 191.84 192.94H186.5C186.4 192.94 186.35 192.99 186.35 193.09V198.85C186.35 198.95 186.4 199 186.5 199H194.84C194.94 199 195.02 199.04 195.08 199.12C195.16 199.18 195.2 199.26 195.2 199.36V201.64C195.2 201.74 195.16 201.83 195.08 201.91C195.02 201.97 194.94 202 194.84 202H183.23C183.13 202 183.04 201.97 182.96 201.91C182.9 201.83 182.87 201.74 182.87 201.64V181.36C182.87 181.26 182.9 181.18 182.96 181.12C183.04 181.04 183.13 181 183.23 181H194.84C194.94 181 195.02 181.04 195.08 181.12C195.16 181.18 195.2 181.26 195.2 181.36V183.64ZM207.671 202C207.451 202 207.311 201.9 207.251 201.7L204.011 193.09C203.971 193.01 203.921 192.97 203.861 192.97H201.281C201.181 192.97 201.131 193.02 201.131 193.12V201.64C201.131 201.74 201.091 201.83 201.011 201.91C200.951 201.97 200.871 202 200.771 202H198.011C197.911 202 197.821 201.97 197.741 201.91C197.681 201.83 197.651 201.74 197.651 201.64V181.36C197.651 181.26 197.681 181.18 197.741 181.12C197.821 181.04 197.911 181 198.011 181H204.941C206.081 181 207.091 181.26 207.971 181.78C208.851 182.28 209.531 183 210.011 183.94C210.491 184.86 210.731 185.92 210.731 187.12C210.731 188.42 210.431 189.55 209.831 190.51C209.231 191.47 208.411 192.15 207.371 192.55C207.271 192.59 207.241 192.66 207.281 192.76L210.821 201.58C210.841 201.62 210.851 201.68 210.851 201.76C210.851 201.92 210.751 202 210.551 202H207.671ZM201.281 184C201.181 184 201.131 184.05 201.131 184.15V190.12C201.131 190.22 201.181 190.27 201.281 190.27H204.431C205.271 190.27 205.951 189.99 206.471 189.43C206.991 188.85 207.251 188.09 207.251 187.15C207.251 186.19 206.991 185.43 206.471 184.87C205.951 184.29 205.271 184 204.431 184H201.281ZM223.514 181.36C223.514 181.26 223.544 181.18 223.604 181.12C223.684 181.04 223.774 181 223.874 181H226.634C226.734 181 226.814 181.04 226.874 181.12C226.954 181.18 226.994 181.26 226.994 181.36V201.64C226.994 201.74 226.954 201.83 226.874 201.91C226.814 201.97 226.734 202 226.634 202H223.724C223.544 202 223.404 201.91 223.304 201.73L216.764 188.29C216.724 188.23 216.684 188.21 216.644 188.23C216.604 188.23 216.584 188.27 216.584 188.35L216.614 201.64C216.614 201.74 216.574 201.83 216.494 201.91C216.434 201.97 216.354 202 216.254 202H213.494C213.394 202 213.304 201.97 213.224 201.91C213.164 201.83 213.134 201.74 213.134 201.64V181.36C213.134 181.26 213.164 181.18 213.224 181.12C213.304 181.04 213.394 181 213.494 181H216.374C216.574 181 216.714 181.09 216.794 181.27L223.364 194.77C223.404 194.83 223.444 194.86 223.484 194.86C223.524 194.84 223.544 194.79 223.544 194.71L223.514 181.36ZM242.414 183.64C242.414 183.74 242.374 183.83 242.294 183.91C242.234 183.97 242.154 184 242.054 184H233.714C233.614 184 233.564 184.05 233.564 184.15V189.79C233.564 189.89 233.614 189.94 233.714 189.94H239.054C239.154 189.94 239.234 189.98 239.294 190.06C239.374 190.12 239.414 190.2 239.414 190.3V192.58C239.414 192.68 239.374 192.77 239.294 192.85C239.234 192.91 239.154 192.94 239.054 192.94H233.714C233.614 192.94 233.564 192.99 233.564 193.09V198.85C233.564 198.95 233.614 199 233.714 199H242.054C242.154 199 242.234 199.04 242.294 199.12C242.374 199.18 242.414 199.26 242.414 199.36V201.64C242.414 201.74 242.374 201.83 242.294 201.91C242.234 201.97 242.154 202 242.054 202H230.444C230.344 202 230.254 201.97 230.174 201.91C230.114 201.83 230.084 201.74 230.084 201.64V181.36C230.084 181.26 230.114 181.18 230.174 181.12C230.254 181.04 230.344 181 230.444 181H242.054C242.154 181 242.234 181.04 242.294 181.12C242.374 181.18 242.414 181.26 242.414 181.36V183.64ZM245.225 202C245.125 202 245.035 201.97 244.955 201.91C244.895 201.83 244.865 201.74 244.865 201.64V181.36C244.865 181.26 244.895 181.18 244.955 181.12C245.035 181.04 245.125 181 245.225 181H247.985C248.085 181 248.165 181.04 248.225 181.12C248.305 181.18 248.345 181.26 248.345 181.36V198.85C248.345 198.95 248.395 199 248.495 199H256.745C256.845 199 256.925 199.04 256.985 199.12C257.065 199.18 257.105 199.26 257.105 199.36V201.64C257.105 201.74 257.065 201.83 256.985 201.91C256.925 201.97 256.845 202 256.745 202H245.225ZM259.419 202C259.319 202 259.229 201.97 259.149 201.91C259.089 201.83 259.059 201.74 259.059 201.64V181.36C259.059 181.26 259.089 181.18 259.149 181.12C259.229 181.04 259.319 181 259.419 181H262.179C262.279 181 262.359 181.04 262.419 181.12C262.499 181.18 262.539 181.26 262.539 181.36V198.85C262.539 198.95 262.589 199 262.689 199H270.939C271.039 199 271.119 199.04 271.179 199.12C271.259 199.18 271.299 199.26 271.299 199.36V201.64C271.299 201.74 271.259 201.83 271.179 201.91C271.119 201.97 271.039 202 270.939 202H259.419ZM285.584 183.64C285.584 183.74 285.544 183.83 285.464 183.91C285.404 183.97 285.324 184 285.224 184H276.884C276.784 184 276.734 184.05 276.734 184.15V189.79C276.734 189.89 276.784 189.94 276.884 189.94H282.224C282.324 189.94 282.404 189.98 282.464 190.06C282.544 190.12 282.584 190.2 282.584 190.3V192.58C282.584 192.68 282.544 192.77 282.464 192.85C282.404 192.91 282.324 192.94 282.224 192.94H276.884C276.784 192.94 276.734 192.99 276.734 193.09V198.85C276.734 198.95 276.784 199 276.884 199H285.224C285.324 199 285.404 199.04 285.464 199.12C285.544 199.18 285.584 199.26 285.584 199.36V201.64C285.584 201.74 285.544 201.83 285.464 201.91C285.404 201.97 285.324 202 285.224 202H273.614C273.514 202 273.424 201.97 273.344 201.91C273.284 201.83 273.254 201.74 273.254 201.64V181.36C273.254 181.26 273.284 181.18 273.344 181.12C273.424 181.04 273.514 181 273.614 181H285.224C285.324 181 285.404 181.04 285.464 181.12C285.544 181.18 285.584 181.26 285.584 181.36V183.64ZM293.885 202.24C292.565 202.24 291.405 202.01 290.405 201.55C289.405 201.07 288.625 200.4 288.065 199.54C287.525 198.66 287.255 197.65 287.255 196.51V195.73C287.255 195.63 287.285 195.55 287.345 195.49C287.425 195.41 287.515 195.37 287.615 195.37H290.315C290.415 195.37 290.495 195.41 290.555 195.49C290.635 195.55 290.675 195.63 290.675 195.73V196.33C290.675 197.19 290.975 197.89 291.575 198.43C292.175 198.97 292.985 199.24 294.005 199.24C294.945 199.24 295.665 199 296.165 198.52C296.665 198.04 296.915 197.41 296.915 196.63C296.915 196.09 296.775 195.63 296.495 195.25C296.215 194.85 295.815 194.49 295.295 194.17C294.795 193.83 294.015 193.38 292.955 192.82C291.735 192.18 290.755 191.61 290.015 191.11C289.275 190.61 288.645 189.97 288.125 189.19C287.625 188.41 287.375 187.46 287.375 186.34C287.375 184.62 287.945 183.26 289.085 182.26C290.245 181.26 291.765 180.76 293.645 180.76C294.945 180.76 296.095 181.01 297.095 181.51C298.095 181.99 298.865 182.68 299.405 183.58C299.945 184.48 300.215 185.51 300.215 186.67V187.3C300.215 187.4 300.175 187.49 300.095 187.57C300.035 187.63 299.955 187.66 299.855 187.66H297.155C297.055 187.66 296.965 187.63 296.885 187.57C296.825 187.49 296.795 187.4 296.795 187.3V186.73C296.795 185.87 296.505 185.16 295.925 184.6C295.345 184.04 294.565 183.76 293.585 183.76C292.725 183.76 292.045 183.99 291.545 184.45C291.045 184.89 290.795 185.51 290.795 186.31C290.795 186.85 290.925 187.31 291.185 187.69C291.445 188.07 291.835 188.43 292.355 188.77C292.895 189.11 293.705 189.55 294.785 190.09C296.225 190.91 297.285 191.55 297.965 192.01C298.645 192.47 299.215 193.07 299.675 193.81C300.155 194.53 300.395 195.42 300.395 196.48C300.395 198.24 299.805 199.64 298.625 200.68C297.445 201.72 295.865 202.24 293.885 202.24Z"
        fill="#F7E1D7" />
    <path
        d="M144 36.36C144.64 36.12 145.24 36 145.8 36H160.32C160.72 36 161.04 36.16 161.28 36.48C161.6 36.72 161.76 37.04 161.76 37.44V118.56C161.76 118.96 161.6 119.32 161.28 119.64C161.04 119.88 160.72 120 160.32 120H146.28C145.88 120 145.52 119.88 145.2 119.64C144.96 119.32 144.84 118.96 144.84 118.56V53.04C144.84 52.88 144.76 52.72 144.6 52.56C144.52 52.4 144.4 52.36 144.24 52.44L133.56 54.48L133.08 54.6C132.36 54.6 132 54.16 132 53.28L131.64 42.96C131.64 42.16 132 41.6 132.72 41.28L144 36.36ZM195.52 121.32C187.6 121.32 181.28 119 176.56 114.36C171.84 109.64 169.48 103.32 169.48 95.4V60.6C169.48 52.76 171.84 46.52 176.56 41.88C181.28 37.16 187.6 34.8 195.52 34.8C203.44 34.8 209.76 37.16 214.48 41.88C219.28 46.52 221.68 52.76 221.68 60.6V95.4C221.68 103.32 219.28 109.64 214.48 114.36C209.76 119 203.44 121.32 195.52 121.32ZM195.52 106.8C198.32 106.8 200.56 105.88 202.24 104.04C203.92 102.12 204.76 99.56 204.76 96.36V59.76C204.76 56.56 203.92 54.04 202.24 52.2C200.56 50.36 198.32 49.44 195.52 49.44C192.72 49.44 190.48 50.36 188.8 52.2C187.2 54.04 186.4 56.56 186.4 59.76V96.36C186.4 99.56 187.2 102.12 188.8 104.04C190.48 105.88 192.72 106.8 195.52 106.8ZM236.409 96.42C234.689 96.42 233.109 96 231.669 95.16C230.229 94.32 229.089 93.18 228.249 91.74C227.409 90.26 226.989 88.66 226.989 86.94C226.989 85.22 227.409 83.64 228.249 82.2C229.089 80.76 230.229 79.62 231.669 78.78C233.109 77.9 234.689 77.46 236.409 77.46C238.129 77.46 239.709 77.9 241.149 78.78C242.589 79.62 243.729 80.76 244.569 82.2C245.409 83.64 245.829 85.22 245.829 86.94C245.829 88.66 245.409 90.26 244.569 91.74C243.729 93.18 242.589 94.32 241.149 95.16C239.709 96 238.129 96.42 236.409 96.42ZM234.009 120C233.729 120 233.549 119.92 233.469 119.76C233.389 119.6 233.409 119.4 233.529 119.16L255.729 78.48C255.929 78.16 256.229 78 256.629 78H261.129C261.409 78 261.589 78.08 261.669 78.24C261.749 78.4 261.729 78.6 261.609 78.84L239.409 119.52C239.209 119.84 238.909 120 238.509 120H234.009ZM236.409 91.74C237.689 91.74 238.769 91.28 239.649 90.36C240.569 89.44 241.029 88.3 241.029 86.94C241.029 85.62 240.569 84.5 239.649 83.58C238.769 82.62 237.689 82.14 236.409 82.14C235.129 82.14 234.029 82.62 233.109 83.58C232.189 84.5 231.729 85.62 231.729 86.94C231.729 88.3 232.189 89.44 233.109 90.36C234.029 91.28 235.129 91.74 236.409 91.74ZM259.149 120.54C257.429 120.54 255.849 120.12 254.409 119.28C252.969 118.4 251.829 117.24 250.989 115.8C250.149 114.32 249.729 112.72 249.729 111C249.729 109.28 250.149 107.7 250.989 106.26C251.829 104.82 252.969 103.68 254.409 102.84C255.849 102 257.429 101.58 259.149 101.58C260.869 101.58 262.449 102 263.889 102.84C265.329 103.68 266.469 104.82 267.309 106.26C268.149 107.7 268.569 109.28 268.569 111C268.569 112.72 268.149 114.32 267.309 115.8C266.469 117.24 265.329 118.4 263.889 119.28C262.449 120.12 260.869 120.54 259.149 120.54ZM259.149 115.86C260.429 115.86 261.509 115.4 262.389 114.48C263.309 113.52 263.769 112.36 263.769 111C263.769 109.68 263.309 108.56 262.389 107.64C261.509 106.72 260.429 106.26 259.149 106.26C257.869 106.26 256.769 106.72 255.849 107.64C254.969 108.56 254.529 109.68 254.529 111C254.529 112.36 254.969 113.52 255.849 114.48C256.769 115.4 257.869 115.86 259.149 115.86Z"
        fill="white" />
</svg>
