<svg width="403" height="206" viewBox="0 0 403 206" fill="none" xmlns="http://www.w3.org/2000/svg">
    <path
        d="M19.0174 203L13.0873 143.648L12.7262 126.244M37.7137 67.8418C44.2901 68.9565 50.3279 70.1092 56.8409 71.5216L51.5634 84.8094L49.0038 85.7088C48.3829 85.2591 47.2235 94.8164 47.3439 96.6975M27.2157 127.01L12.7262 126.237C12.8529 123.153 12.8909 121.227 12.9226 118.194M13.157 91.3013L11.8455 98.5279L2 96.8558L4.48355 78.1782C4.85102 76.0058 7.04947 73.4027 9.1022 72.6363L22.3816 67.8798M36.0982 64.029C36.491 65.2387 37.0992 67.0818 37.9292 67.9938L30.0223 74.8974L22.1155 67.9938C22.9455 67.0818 23.5537 65.2324 23.9465 64.0227M59.3118 80.5976L53.407 80.1733M56.7522 71.7433L64.659 73.067M63.9811 77.9945C65.2419 72.307 65.0012 65.3527 64.5513 60.3809C64.3929 57.4738 64.3042 49.3035 70.3801 47.2388C73.0474 44.5027 79.9848 45.288 83.0006 47.1311C87.86 50.0952 89.3742 56.4351 88.9307 60.3302C88.3225 65.6441 88.1577 73.2507 89.7797 78.1212M76.7917 202.994L76.8994 164.239M99.207 138.246C98.244 144.047 97.357 149.507 96.1406 149.431C95.469 149.545 94.2526 149.798 93.6887 149.646M69.8352 203L66.3063 164.245M87.3785 164.245L83.9382 203M82.6521 77.5132C85.3194 77.5132 87.2898 77.4182 89.9507 78.2289M96.1659 85.2591C97.3887 87.9002 98.5481 91.2443 98.8839 94.9748L100.854 119.137L101 138.252L93.6507 138.923M91.6677 96.3048C91.598 99.2879 90.7617 108.389 90.9264 110.986C91.2305 115.711 92.561 120.018 93.3022 124.502C93.9421 128.391 93.9548 132.685 93.8408 136.618C93.543 146.783 92.4596 156.239 92.9094 164.536H62.2452M60.4078 125.237C61.1111 120.759 62.4479 118.149 62.5873 111.714C62.676 107.75 61.5102 101.929 60.6803 97.9009L60.1861 97.9959L56.6952 103.62M49.8527 97.2612L57.164 82.7637C60.2051 78.1022 66.3506 77.5132 71.3938 77.5132M73.6746 73.3267C73.6176 75.0811 72.4011 76.9875 70.4118 77.5828C74.7326 82.8397 79.0472 82.9157 83.368 77.5828C81.7145 76.9938 80.441 74.8341 80.4157 73.048M38.0875 203L35.8447 167.013C35.6357 164.828 35.6103 157.918 35.7054 155.581H57.3224C57.4174 157.918 57.3921 164.821 57.183 167.013L54.9402 203M31.0424 163.65C30.5672 167.931 32.5946 170.756 35.9398 170.097M34.1278 124.394L41.4137 122.627M51.7534 122.925L58.9317 124.388C63.1512 125.756 63.6327 131.716 64.0825 135.915L64.5767 149.918L64.1205 163.51L58.2981 163.941M57.0943 139.158C56.9549 145.01 57.2527 149.69 57.3287 155.695M35.6864 156.227C35.8511 150.419 36.1108 145.01 35.9715 139.158M34.7614 163.947L28.9389 163.517L28.4828 149.925L28.977 135.921C29.0973 134.832 29.2114 133.622 29.3951 132.406M50.5053 120.543C50.7397 121.576 51.2339 122.45 51.9942 123.172L46.4505 127.358L40.9005 123.172C41.6608 122.45 42.155 121.576 42.3957 120.543M37.7391 112.715C35.8954 108.934 33.9504 101.517 39.6968 98.2303C42.5858 96.5772 48.1105 95.8552 51.0185 97.8692C57.7279 98.7179 57.8356 107.123 55.5231 111.569M89.672 77.7855L91.2495 81.0536L92.1302 84.6764C92.1492 85.1894 92.2759 85.5504 93.0171 85.7848C94.3603 86.3105 97.5091 86.1268 98.6051 84.9234L98.13 81.0726L96.356 78.2352C95.6844 77.1585 95.1396 76.9305 93.9295 76.7785L89.2601 76.2084M2.88065 97.0142L4.10342 110.986L5.30718 113.722L26.5314 126.383L27.8936 127.65L29.2874 131.754C29.8893 132.723 31.3591 135.757 32.9494 134.997C34.0264 134.484 35.4203 133.603 36.2502 132.887C37.2259 132.051 37.0105 132.07 36.4466 131.089L34.7043 128.042L33.6906 124.559L36.2249 123.805L34.0201 122.526L31.1374 122.209L12.365 108.877L11.3957 98.4519M29.997 203V163.65M46.5139 165.588V202.994M62.3592 163.65C62.8344 167.931 60.807 170.756 57.4618 170.097M38.0305 53.6167C37.8911 51.5646 38.8605 48.6258 38.7274 47.9988C38.6197 47.5048 37.1435 45.7694 33.7857 45.934C31.5429 46.0417 31.1121 46.6371 28.2104 46.3774C25.4797 46.1304 22.8378 45.3513 21.6277 47.1881C20.8927 48.3091 22.2676 51.5519 22.1155 53.6167M40.8879 50.7919L41.3821 51.1782C41.3947 53.3 40.9892 55.352 40.2797 57.3661L39.2976 57.9108C38.3156 61.5146 35.756 65.5237 32.2271 67.0564C30.7763 67.3098 29.2621 67.3098 27.8112 67.0564C24.2759 65.5237 21.7164 61.5146 20.7407 57.9108L19.7587 57.3661C19.0491 55.352 18.6436 53.3 18.6563 51.1782L19.2328 50.7412C18.4345 46.0607 18.3585 44.2303 19.4609 40.7532C20.8167 37.9728 24.2253 35.9143 27.3424 36.5097C29.2431 35.376 34.6156 36.3577 36.7697 37.2824C38.5184 38.0297 40.6598 40.9622 40.9639 42.8053C41.4391 44.1543 41.116 48.4991 40.8879 50.7919ZM83.7862 68.2978C83.0322 70.8693 81.4167 72.5033 79.2562 73.922C77.2225 75.2584 76.5003 75.2458 74.4665 73.9157C70.8616 71.547 69.3094 69.5139 68.9736 64.8967C68.4287 60.3176 74.986 62.2366 81.0492 57.5054C81.8285 56.8974 82.4367 56.6821 82.9309 58.2465C83.9446 61.4576 84.5211 65.0171 83.7862 68.2978ZM38.9112 114.286C39.6334 117.218 40.9639 119.017 43.4855 120.74C45.2404 121.937 47.6606 121.924 49.4093 120.727C52.0955 118.89 53.407 117.263 53.9582 114.311C53.9646 114.254 53.9962 114.222 54.0469 114.21C55.5294 113.798 55.9096 110.549 54.5094 110.03C54.332 109.966 54.3637 110.036 54.2813 109.84C54.0659 109.301 53.5464 107.503 53.3437 107.091C53.2233 106.838 53.0459 106.527 52.6911 106.743C50.8538 107.674 41.2363 109.586 38.6514 109.992C37.1689 110.226 37.3336 113.513 38.7971 114.165C38.8478 114.191 38.8858 114.229 38.9048 114.286H38.9112Z"
        stroke="white" stroke-width="2" stroke-miterlimit="22.93" />
    <path
        d="M145.22 151.64C145.22 151.74 145.18 151.83 145.1 151.91C145.04 151.97 144.96 152 144.86 152H136.55C136.45 152 136.4 152.05 136.4 152.15V157.79C136.4 157.89 136.45 157.94 136.55 157.94H141.89C141.99 157.94 142.07 157.98 142.13 158.06C142.21 158.12 142.25 158.2 142.25 158.3V160.58C142.25 160.68 142.21 160.77 142.13 160.85C142.07 160.91 141.99 160.94 141.89 160.94H136.55C136.45 160.94 136.4 160.99 136.4 161.09V169.64C136.4 169.74 136.36 169.83 136.28 169.91C136.22 169.97 136.14 170 136.04 170H133.28C133.18 170 133.09 169.97 133.01 169.91C132.95 169.83 132.92 169.74 132.92 169.64V149.36C132.92 149.26 132.95 149.18 133.01 149.12C133.09 149.04 133.18 149 133.28 149H144.86C144.96 149 145.04 149.04 145.1 149.12C145.18 149.18 145.22 149.26 145.22 149.36V151.64ZM156.215 170C155.995 170 155.855 169.9 155.795 169.7L155.015 166.49C154.995 166.41 154.945 166.37 154.865 166.37H148.685C148.605 166.37 148.555 166.41 148.535 166.49L147.785 169.7C147.725 169.9 147.585 170 147.365 170H144.515C144.255 170 144.155 169.87 144.215 169.61L149.675 149.3C149.735 149.1 149.875 149 150.095 149H153.515C153.735 149 153.875 149.1 153.935 149.3L159.395 169.61L159.425 169.73C159.425 169.91 159.315 170 159.095 170H156.215ZM149.255 163.46C149.235 163.52 149.245 163.57 149.285 163.61C149.325 163.63 149.365 163.64 149.405 163.64H154.145C154.185 163.64 154.225 163.63 154.265 163.61C154.305 163.57 154.315 163.52 154.295 163.46L151.835 153.62C151.815 153.56 151.785 153.53 151.745 153.53C151.705 153.53 151.675 153.56 151.655 153.62L149.255 163.46ZM172.858 149.24C172.938 149.08 173.078 149 173.278 149H176.068C176.168 149 176.248 149.04 176.308 149.12C176.388 149.18 176.428 149.26 176.428 149.36V169.64C176.428 169.74 176.388 169.83 176.308 169.91C176.248 169.97 176.168 170 176.068 170H173.308C173.208 170 173.118 169.97 173.038 169.91C172.978 169.83 172.948 169.74 172.948 169.64V155.42C172.948 155.34 172.928 155.3 172.888 155.3C172.848 155.28 172.808 155.3 172.768 155.36L169.588 160.61C169.508 160.77 169.368 160.85 169.168 160.85H168.598C168.398 160.85 168.258 160.77 168.178 160.61L164.998 155.39C164.958 155.33 164.918 155.31 164.878 155.33C164.838 155.33 164.818 155.37 164.818 155.45V169.64C164.818 169.74 164.778 169.83 164.698 169.91C164.638 169.97 164.558 170 164.458 170H161.698C161.598 170 161.508 169.97 161.428 169.91C161.368 169.83 161.338 169.74 161.338 169.64V149.36C161.338 149.26 161.368 149.18 161.428 149.12C161.508 149.04 161.598 149 161.698 149H164.458C164.658 149 164.798 149.08 164.878 149.24L168.808 155.51C168.868 155.63 168.928 155.63 168.988 155.51L172.858 149.24ZM179.966 170C179.866 170 179.776 169.97 179.696 169.91C179.636 169.83 179.606 169.74 179.606 169.64V149.36C179.606 149.26 179.636 149.18 179.696 149.12C179.776 149.04 179.866 149 179.966 149H182.726C182.826 149 182.906 149.04 182.966 149.12C183.046 149.18 183.086 149.26 183.086 149.36V169.64C183.086 169.74 183.046 169.83 182.966 169.91C182.906 169.97 182.826 170 182.726 170H179.966ZM186.661 170C186.561 170 186.471 169.97 186.391 169.91C186.331 169.83 186.301 169.74 186.301 169.64V149.36C186.301 149.26 186.331 149.18 186.391 149.12C186.471 149.04 186.561 149 186.661 149H189.421C189.521 149 189.601 149.04 189.661 149.12C189.741 149.18 189.781 149.26 189.781 149.36V166.85C189.781 166.95 189.831 167 189.931 167H198.181C198.281 167 198.361 167.04 198.421 167.12C198.501 167.18 198.541 167.26 198.541 167.36V169.64C198.541 169.74 198.501 169.83 198.421 169.91C198.361 169.97 198.281 170 198.181 170H186.661ZM200.856 170C200.756 170 200.666 169.97 200.586 169.91C200.526 169.83 200.496 169.74 200.496 169.64V149.36C200.496 149.26 200.526 149.18 200.586 149.12C200.666 149.04 200.756 149 200.856 149H203.616C203.716 149 203.796 149.04 203.856 149.12C203.936 149.18 203.976 149.26 203.976 149.36V166.85C203.976 166.95 204.026 167 204.126 167H212.376C212.476 167 212.556 167.04 212.616 167.12C212.696 167.18 212.736 167.26 212.736 167.36V169.64C212.736 169.74 212.696 169.83 212.616 169.91C212.556 169.97 212.476 170 212.376 170H200.856ZM227.021 151.64C227.021 151.74 226.981 151.83 226.901 151.91C226.841 151.97 226.761 152 226.661 152H218.321C218.221 152 218.171 152.05 218.171 152.15V157.79C218.171 157.89 218.221 157.94 218.321 157.94H223.661C223.761 157.94 223.841 157.98 223.901 158.06C223.981 158.12 224.021 158.2 224.021 158.3V160.58C224.021 160.68 223.981 160.77 223.901 160.85C223.841 160.91 223.761 160.94 223.661 160.94H218.321C218.221 160.94 218.171 160.99 218.171 161.09V166.85C218.171 166.95 218.221 167 218.321 167H226.661C226.761 167 226.841 167.04 226.901 167.12C226.981 167.18 227.021 167.26 227.021 167.36V169.64C227.021 169.74 226.981 169.83 226.901 169.91C226.841 169.97 226.761 170 226.661 170H215.051C214.951 170 214.861 169.97 214.781 169.91C214.721 169.83 214.691 169.74 214.691 169.64V149.36C214.691 149.26 214.721 149.18 214.781 149.12C214.861 149.04 214.951 149 215.051 149H226.661C226.761 149 226.841 149.04 226.901 149.12C226.981 149.18 227.021 149.26 227.021 149.36V151.64ZM235.322 170.24C234.002 170.24 232.842 170.01 231.842 169.55C230.842 169.07 230.062 168.4 229.502 167.54C228.962 166.66 228.692 165.65 228.692 164.51V163.73C228.692 163.63 228.722 163.55 228.782 163.49C228.862 163.41 228.952 163.37 229.052 163.37H231.752C231.852 163.37 231.932 163.41 231.992 163.49C232.072 163.55 232.112 163.63 232.112 163.73V164.33C232.112 165.19 232.412 165.89 233.012 166.43C233.612 166.97 234.422 167.24 235.442 167.24C236.382 167.24 237.102 167 237.602 166.52C238.102 166.04 238.352 165.41 238.352 164.63C238.352 164.09 238.212 163.63 237.932 163.25C237.652 162.85 237.252 162.49 236.732 162.17C236.232 161.83 235.452 161.38 234.392 160.82C233.172 160.18 232.192 159.61 231.452 159.11C230.712 158.61 230.082 157.97 229.562 157.19C229.062 156.41 228.812 155.46 228.812 154.34C228.812 152.62 229.382 151.26 230.522 150.26C231.682 149.26 233.202 148.76 235.082 148.76C236.382 148.76 237.532 149.01 238.532 149.51C239.532 149.99 240.302 150.68 240.842 151.58C241.382 152.48 241.652 153.51 241.652 154.67V155.3C241.652 155.4 241.612 155.49 241.532 155.57C241.472 155.63 241.392 155.66 241.292 155.66H238.592C238.492 155.66 238.402 155.63 238.322 155.57C238.262 155.49 238.232 155.4 238.232 155.3V154.73C238.232 153.87 237.942 153.16 237.362 152.6C236.782 152.04 236.002 151.76 235.022 151.76C234.162 151.76 233.482 151.99 232.982 152.45C232.482 152.89 232.232 153.51 232.232 154.31C232.232 154.85 232.362 155.31 232.622 155.69C232.882 156.07 233.272 156.43 233.792 156.77C234.332 157.11 235.142 157.55 236.222 158.09C237.662 158.91 238.722 159.55 239.402 160.01C240.082 160.47 240.652 161.07 241.112 161.81C241.592 162.53 241.832 163.42 241.832 164.48C241.832 166.24 241.242 167.64 240.062 168.68C238.882 169.72 237.302 170.24 235.322 170.24ZM143.69 202C143.47 202 143.33 201.9 143.27 201.7L142.49 198.49C142.47 198.41 142.42 198.37 142.34 198.37H136.16C136.08 198.37 136.03 198.41 136.01 198.49L135.26 201.7C135.2 201.9 135.06 202 134.84 202H131.99C131.73 202 131.63 201.87 131.69 201.61L137.15 181.3C137.21 181.1 137.35 181 137.57 181H140.99C141.21 181 141.35 181.1 141.41 181.3L146.87 201.61L146.9 201.73C146.9 201.91 146.79 202 146.57 202H143.69ZM136.73 195.46C136.71 195.52 136.72 195.57 136.76 195.61C136.8 195.63 136.84 195.64 136.88 195.64H141.62C141.66 195.64 141.7 195.63 141.74 195.61C141.78 195.57 141.79 195.52 141.77 195.46L139.31 185.62C139.29 185.56 139.26 185.53 139.22 185.53C139.18 185.53 139.15 185.56 139.13 185.62L136.73 195.46ZM154.525 202.24C153.225 202.24 152.075 201.98 151.075 201.46C150.075 200.92 149.295 200.17 148.735 199.21C148.195 198.25 147.925 197.14 147.925 195.88V187.06C147.925 185.8 148.195 184.7 148.735 183.76C149.295 182.8 150.075 182.06 151.075 181.54C152.075 181.02 153.225 180.76 154.525 180.76C155.825 180.76 156.975 181.02 157.975 181.54C158.975 182.04 159.745 182.76 160.285 183.7C160.845 184.62 161.125 185.7 161.125 186.94V187.12C161.125 187.22 161.085 187.31 161.005 187.39C160.945 187.47 160.865 187.51 160.765 187.51L157.975 187.63C157.735 187.63 157.615 187.51 157.615 187.27V186.91C157.615 185.97 157.325 185.21 156.745 184.63C156.185 184.05 155.445 183.76 154.525 183.76C153.585 183.76 152.825 184.05 152.245 184.63C151.685 185.21 151.405 185.97 151.405 186.91V196.12C151.405 197.06 151.685 197.82 152.245 198.4C152.825 198.96 153.585 199.24 154.525 199.24C155.445 199.24 156.185 198.96 156.745 198.4C157.325 197.82 157.615 197.06 157.615 196.12V195.73C157.615 195.51 157.735 195.4 157.975 195.4L160.765 195.52C160.865 195.52 160.945 195.56 161.005 195.64C161.085 195.7 161.125 195.78 161.125 195.88V196C161.125 197.24 160.845 198.34 160.285 199.3C159.745 200.24 158.975 200.97 157.975 201.49C156.975 201.99 155.825 202.24 154.525 202.24ZM169.921 202.24C168.621 202.24 167.471 201.98 166.471 201.46C165.471 200.92 164.691 200.17 164.131 199.21C163.591 198.25 163.321 197.14 163.321 195.88V187.06C163.321 185.8 163.591 184.7 164.131 183.76C164.691 182.8 165.471 182.06 166.471 181.54C167.471 181.02 168.621 180.76 169.921 180.76C171.221 180.76 172.371 181.02 173.371 181.54C174.371 182.04 175.141 182.76 175.681 183.7C176.241 184.62 176.521 185.7 176.521 186.94V187.12C176.521 187.22 176.481 187.31 176.401 187.39C176.341 187.47 176.261 187.51 176.161 187.51L173.371 187.63C173.131 187.63 173.011 187.51 173.011 187.27V186.91C173.011 185.97 172.721 185.21 172.141 184.63C171.581 184.05 170.841 183.76 169.921 183.76C168.981 183.76 168.221 184.05 167.641 184.63C167.081 185.21 166.801 185.97 166.801 186.91V196.12C166.801 197.06 167.081 197.82 167.641 198.4C168.221 198.96 168.981 199.24 169.921 199.24C170.841 199.24 171.581 198.96 172.141 198.4C172.721 197.82 173.011 197.06 173.011 196.12V195.73C173.011 195.51 173.131 195.4 173.371 195.4L176.161 195.52C176.261 195.52 176.341 195.56 176.401 195.64C176.481 195.7 176.521 195.78 176.521 195.88V196C176.521 197.24 176.241 198.34 175.681 199.3C175.141 200.24 174.371 200.97 173.371 201.49C172.371 201.99 171.221 202.24 169.921 202.24ZM185.377 202.27C184.057 202.27 182.887 202 181.867 201.46C180.867 200.92 180.087 200.16 179.527 199.18C178.987 198.18 178.717 197.03 178.717 195.73V187.27C178.717 185.99 178.987 184.86 179.527 183.88C180.087 182.88 180.867 182.11 181.867 181.57C182.887 181.03 184.057 180.76 185.377 180.76C186.717 180.76 187.887 181.03 188.887 181.57C189.907 182.11 190.697 182.88 191.257 183.88C191.817 184.86 192.097 185.99 192.097 187.27V195.73C192.097 197.03 191.817 198.18 191.257 199.18C190.697 200.16 189.907 200.92 188.887 201.46C187.887 202 186.717 202.27 185.377 202.27ZM185.377 199.27C186.357 199.27 187.137 198.96 187.717 198.34C188.317 197.7 188.617 196.88 188.617 195.88V187.18C188.617 186.16 188.317 185.34 187.717 184.72C187.137 184.08 186.357 183.76 185.377 183.76C184.417 183.76 183.647 184.08 183.067 184.72C182.487 185.34 182.197 186.16 182.197 187.18V195.88C182.197 196.88 182.487 197.7 183.067 198.34C183.647 198.96 184.417 199.27 185.377 199.27ZM206.345 181.24C206.425 181.08 206.565 181 206.765 181H209.555C209.655 181 209.735 181.04 209.795 181.12C209.875 181.18 209.915 181.26 209.915 181.36V201.64C209.915 201.74 209.875 201.83 209.795 201.91C209.735 201.97 209.655 202 209.555 202H206.795C206.695 202 206.605 201.97 206.525 201.91C206.465 201.83 206.435 201.74 206.435 201.64V187.42C206.435 187.34 206.415 187.3 206.375 187.3C206.335 187.28 206.295 187.3 206.255 187.36L203.075 192.61C202.995 192.77 202.855 192.85 202.655 192.85H202.085C201.885 192.85 201.745 192.77 201.665 192.61L198.485 187.39C198.445 187.33 198.405 187.31 198.365 187.33C198.325 187.33 198.305 187.37 198.305 187.45V201.64C198.305 201.74 198.265 201.83 198.185 201.91C198.125 201.97 198.045 202 197.945 202H195.185C195.085 202 194.995 201.97 194.915 201.91C194.855 201.83 194.825 201.74 194.825 201.64V181.36C194.825 181.26 194.855 181.18 194.915 181.12C194.995 181.04 195.085 181 195.185 181H197.945C198.145 181 198.285 181.08 198.365 181.24L202.295 187.51C202.355 187.63 202.415 187.63 202.475 187.51L206.345 181.24ZM220.264 180.97C221.424 180.97 222.444 181.23 223.324 181.75C224.224 182.27 224.914 183.01 225.394 183.97C225.894 184.91 226.144 185.99 226.144 187.21C226.144 188.41 225.894 189.47 225.394 190.39C224.914 191.31 224.224 192.03 223.324 192.55C222.444 193.05 221.434 193.3 220.294 193.3H216.604C216.504 193.3 216.454 193.35 216.454 193.45V201.64C216.454 201.74 216.414 201.83 216.334 201.91C216.274 201.97 216.194 202 216.094 202H213.334C213.234 202 213.144 201.97 213.064 201.91C213.004 201.83 212.974 201.74 212.974 201.64V181.33C212.974 181.23 213.004 181.15 213.064 181.09C213.144 181.01 213.234 180.97 213.334 180.97H220.264ZM219.754 190.51C220.634 190.51 221.334 190.22 221.854 189.64C222.394 189.04 222.664 188.25 222.664 187.27C222.664 186.27 222.394 185.47 221.854 184.87C221.334 184.27 220.634 183.97 219.754 183.97H216.604C216.504 183.97 216.454 184.02 216.454 184.12V190.36C216.454 190.46 216.504 190.51 216.604 190.51H219.754ZM237.912 202C237.692 202 237.552 201.9 237.492 201.7L236.712 198.49C236.692 198.41 236.642 198.37 236.562 198.37H230.382C230.302 198.37 230.252 198.41 230.232 198.49L229.482 201.7C229.422 201.9 229.282 202 229.062 202H226.212C225.952 202 225.852 201.87 225.912 201.61L231.372 181.3C231.432 181.1 231.572 181 231.792 181H235.212C235.432 181 235.572 181.1 235.632 181.3L241.092 201.61L241.122 201.73C241.122 201.91 241.012 202 240.792 202H237.912ZM230.952 195.46C230.932 195.52 230.942 195.57 230.982 195.61C231.022 195.63 231.062 195.64 231.102 195.64H235.842C235.882 195.64 235.922 195.63 235.962 195.61C236.002 195.57 236.012 195.52 235.992 195.46L233.532 185.62C233.512 185.56 233.482 185.53 233.442 185.53C233.402 185.53 233.372 185.56 233.352 185.62L230.952 195.46ZM248.717 202.24C247.417 202.24 246.267 201.98 245.267 201.46C244.287 200.94 243.517 200.21 242.957 199.27C242.417 198.31 242.147 197.21 242.147 195.97V187.03C242.147 185.79 242.417 184.7 242.957 183.76C243.517 182.8 244.287 182.06 245.267 181.54C246.267 181.02 247.417 180.76 248.717 180.76C250.017 180.76 251.167 181.02 252.167 181.54C253.167 182.04 253.937 182.75 254.477 183.67C255.037 184.59 255.317 185.64 255.317 186.82V187.51C255.317 187.61 255.277 187.7 255.197 187.78C255.137 187.84 255.057 187.87 254.957 187.87H252.197C252.097 187.87 252.007 187.84 251.927 187.78C251.867 187.7 251.837 187.61 251.837 187.51V186.82C251.837 185.92 251.547 185.19 250.967 184.63C250.407 184.05 249.657 183.76 248.717 183.76C247.797 183.76 247.047 184.06 246.467 184.66C245.907 185.24 245.627 186.01 245.627 186.97V196.03C245.627 196.99 245.917 197.77 246.497 198.37C247.097 198.95 247.867 199.24 248.807 199.24C249.727 199.24 250.457 198.98 250.997 198.46C251.557 197.92 251.837 197.19 251.837 196.27V193.9C251.837 193.8 251.787 193.75 251.687 193.75H248.957C248.857 193.75 248.767 193.72 248.687 193.66C248.627 193.58 248.597 193.49 248.597 193.39V191.2C248.597 191.1 248.627 191.02 248.687 190.96C248.767 190.88 248.857 190.84 248.957 190.84H254.957C255.057 190.84 255.137 190.88 255.197 190.96C255.277 191.02 255.317 191.1 255.317 191.2V195.88C255.317 197.86 254.717 199.42 253.517 200.56C252.317 201.68 250.717 202.24 248.717 202.24ZM268.46 181.36C268.46 181.26 268.49 181.18 268.55 181.12C268.63 181.04 268.72 181 268.82 181H271.58C271.68 181 271.76 181.04 271.82 181.12C271.9 181.18 271.94 181.26 271.94 181.36V201.64C271.94 201.74 271.9 201.83 271.82 201.91C271.76 201.97 271.68 202 271.58 202H268.67C268.49 202 268.35 201.91 268.25 201.73L261.71 188.29C261.67 188.23 261.63 188.21 261.59 188.23C261.55 188.23 261.53 188.27 261.53 188.35L261.56 201.64C261.56 201.74 261.52 201.83 261.44 201.91C261.38 201.97 261.3 202 261.2 202H258.44C258.34 202 258.25 201.97 258.17 201.91C258.11 201.83 258.08 201.74 258.08 201.64V181.36C258.08 181.26 258.11 181.18 258.17 181.12C258.25 181.04 258.34 181 258.44 181H261.32C261.52 181 261.66 181.09 261.74 181.27L268.31 194.77C268.35 194.83 268.39 194.86 268.43 194.86C268.47 194.84 268.49 194.79 268.49 194.71L268.46 181.36ZM287.36 183.64C287.36 183.74 287.32 183.83 287.24 183.91C287.18 183.97 287.1 184 287 184H278.66C278.56 184 278.51 184.05 278.51 184.15V189.79C278.51 189.89 278.56 189.94 278.66 189.94H284C284.1 189.94 284.18 189.98 284.24 190.06C284.32 190.12 284.36 190.2 284.36 190.3V192.58C284.36 192.68 284.32 192.77 284.24 192.85C284.18 192.91 284.1 192.94 284 192.94H278.66C278.56 192.94 278.51 192.99 278.51 193.09V198.85C278.51 198.95 278.56 199 278.66 199H287C287.1 199 287.18 199.04 287.24 199.12C287.32 199.18 287.36 199.26 287.36 199.36V201.64C287.36 201.74 287.32 201.83 287.24 201.91C287.18 201.97 287.1 202 287 202H275.39C275.29 202 275.2 201.97 275.12 201.91C275.06 201.83 275.03 201.74 275.03 201.64V181.36C275.03 181.26 275.06 181.18 275.12 181.12C275.2 181.04 275.29 181 275.39 181H287C287.1 181 287.18 181.04 287.24 181.12C287.32 181.18 287.36 181.26 287.36 181.36V183.64ZM279.71 179.08C279.57 179.08 279.48 179.04 279.44 178.96C279.4 178.88 279.41 178.78 279.47 178.66L281.18 175.57C281.28 175.41 281.43 175.33 281.63 175.33H283.88C284.02 175.33 284.11 175.38 284.15 175.48C284.21 175.56 284.2 175.66 284.12 175.78L281.99 178.84C281.89 179 281.75 179.08 281.57 179.08H279.71ZM302.141 183.64C302.141 183.74 302.101 183.83 302.021 183.91C301.961 183.97 301.881 184 301.781 184H293.441C293.341 184 293.291 184.05 293.291 184.15V189.79C293.291 189.89 293.341 189.94 293.441 189.94H298.781C298.881 189.94 298.961 189.98 299.021 190.06C299.101 190.12 299.141 190.2 299.141 190.3V192.58C299.141 192.68 299.101 192.77 299.021 192.85C298.961 192.91 298.881 192.94 298.781 192.94H293.441C293.341 192.94 293.291 192.99 293.291 193.09V198.85C293.291 198.95 293.341 199 293.441 199H301.781C301.881 199 301.961 199.04 302.021 199.12C302.101 199.18 302.141 199.26 302.141 199.36V201.64C302.141 201.74 302.101 201.83 302.021 201.91C301.961 201.97 301.881 202 301.781 202H290.171C290.071 202 289.981 201.97 289.901 201.91C289.841 201.83 289.811 201.74 289.811 201.64V181.36C289.811 181.26 289.841 181.18 289.901 181.12C289.981 181.04 290.071 181 290.171 181H301.781C301.881 181 301.961 181.04 302.021 181.12C302.101 181.18 302.141 181.26 302.141 181.36V183.64ZM310.441 202.24C309.121 202.24 307.961 202.01 306.961 201.55C305.961 201.07 305.181 200.4 304.621 199.54C304.081 198.66 303.811 197.65 303.811 196.51V195.73C303.811 195.63 303.841 195.55 303.901 195.49C303.981 195.41 304.071 195.37 304.171 195.37H306.871C306.971 195.37 307.051 195.41 307.111 195.49C307.191 195.55 307.231 195.63 307.231 195.73V196.33C307.231 197.19 307.531 197.89 308.131 198.43C308.731 198.97 309.541 199.24 310.561 199.24C311.501 199.24 312.221 199 312.721 198.52C313.221 198.04 313.471 197.41 313.471 196.63C313.471 196.09 313.331 195.63 313.051 195.25C312.771 194.85 312.371 194.49 311.851 194.17C311.351 193.83 310.571 193.38 309.511 192.82C308.291 192.18 307.311 191.61 306.571 191.11C305.831 190.61 305.201 189.97 304.681 189.19C304.181 188.41 303.931 187.46 303.931 186.34C303.931 184.62 304.501 183.26 305.641 182.26C306.801 181.26 308.321 180.76 310.201 180.76C311.501 180.76 312.651 181.01 313.651 181.51C314.651 181.99 315.421 182.68 315.961 183.58C316.501 184.48 316.771 185.51 316.771 186.67V187.3C316.771 187.4 316.731 187.49 316.651 187.57C316.591 187.63 316.511 187.66 316.411 187.66H313.711C313.611 187.66 313.521 187.63 313.441 187.57C313.381 187.49 313.351 187.4 313.351 187.3V186.73C313.351 185.87 313.061 185.16 312.481 184.6C311.901 184.04 311.121 183.76 310.141 183.76C309.281 183.76 308.601 183.99 308.101 184.45C307.601 184.89 307.351 185.51 307.351 186.31C307.351 186.85 307.481 187.31 307.741 187.69C308.001 188.07 308.391 188.43 308.911 188.77C309.451 189.11 310.261 189.55 311.341 190.09C312.781 190.91 313.841 191.55 314.521 192.01C315.201 192.47 315.771 193.07 316.231 193.81C316.711 194.53 316.951 195.42 316.951 196.48C316.951 198.24 316.361 199.64 315.181 200.68C314.001 201.72 312.421 202.24 310.441 202.24Z"
        fill="#F7E1D7" />
    <path
        d="M146 36.36C146.64 36.12 147.24 36 147.8 36H162.32C162.72 36 163.04 36.16 163.28 36.48C163.6 36.72 163.76 37.04 163.76 37.44V118.56C163.76 118.96 163.6 119.32 163.28 119.64C163.04 119.88 162.72 120 162.32 120H148.28C147.88 120 147.52 119.88 147.2 119.64C146.96 119.32 146.84 118.96 146.84 118.56V53.04C146.84 52.88 146.76 52.72 146.6 52.56C146.52 52.4 146.4 52.36 146.24 52.44L135.56 54.48L135.08 54.6C134.36 54.6 134 54.16 134 53.28L133.64 42.96C133.64 42.16 134 41.6 134.72 41.28L146 36.36ZM172.56 131.76C171.52 131.76 171.08 131.24 171.24 130.2L174.6 102.36C174.68 101.48 175.16 101.04 176.04 101.04H188.16C189.28 101.04 189.72 101.56 189.48 102.6L182.64 130.56C182.4 131.36 181.84 131.76 180.96 131.76H172.56ZM219.613 121.32C211.693 121.32 205.373 119 200.653 114.36C195.933 109.64 193.573 103.32 193.573 95.4V60.6C193.573 52.76 195.933 46.52 200.653 41.88C205.373 37.16 211.693 34.8 219.613 34.8C227.533 34.8 233.853 37.16 238.573 41.88C243.373 46.52 245.773 52.76 245.773 60.6V95.4C245.773 103.32 243.373 109.64 238.573 114.36C233.853 119 227.533 121.32 219.613 121.32ZM219.613 106.8C222.413 106.8 224.653 105.88 226.333 104.04C228.013 102.12 228.853 99.56 228.853 96.36V59.76C228.853 56.56 228.013 54.04 226.333 52.2C224.653 50.36 222.413 49.44 219.613 49.44C216.813 49.44 214.573 50.36 212.893 52.2C211.293 54.04 210.493 56.56 210.493 59.76V96.36C210.493 99.56 211.293 102.12 212.893 104.04C214.573 105.88 216.813 106.8 219.613 106.8ZM278.502 121.32C270.582 121.32 264.262 119 259.542 114.36C254.822 109.64 252.462 103.32 252.462 95.4V60.6C252.462 52.76 254.822 46.52 259.542 41.88C264.262 37.16 270.582 34.8 278.502 34.8C286.422 34.8 292.742 37.16 297.462 41.88C302.262 46.52 304.662 52.76 304.662 60.6V95.4C304.662 103.32 302.262 109.64 297.462 114.36C292.742 119 286.422 121.32 278.502 121.32ZM278.502 106.8C281.302 106.8 283.542 105.88 285.222 104.04C286.902 102.12 287.742 99.56 287.742 96.36V59.76C287.742 56.56 286.902 54.04 285.222 52.2C283.542 50.36 281.302 49.44 278.502 49.44C275.702 49.44 273.462 50.36 271.782 52.2C270.182 54.04 269.382 56.56 269.382 59.76V96.36C269.382 99.56 270.182 102.12 271.782 104.04C273.462 105.88 275.702 106.8 278.502 106.8ZM337.391 121.32C329.471 121.32 323.151 119 318.431 114.36C313.711 109.64 311.351 103.32 311.351 95.4V60.6C311.351 52.76 313.711 46.52 318.431 41.88C323.151 37.16 329.471 34.8 337.391 34.8C345.311 34.8 351.631 37.16 356.351 41.88C361.151 46.52 363.551 52.76 363.551 60.6V95.4C363.551 103.32 361.151 109.64 356.351 114.36C351.631 119 345.311 121.32 337.391 121.32ZM337.391 106.8C340.191 106.8 342.431 105.88 344.111 104.04C345.791 102.12 346.631 99.56 346.631 96.36V59.76C346.631 56.56 345.791 54.04 344.111 52.2C342.431 50.36 340.191 49.44 337.391 49.44C334.591 49.44 332.351 50.36 330.671 52.2C329.071 54.04 328.271 56.56 328.271 59.76V96.36C328.271 99.56 329.071 102.12 330.671 104.04C332.351 105.88 334.591 106.8 337.391 106.8ZM399.6 91.04C399.866 91.04 400.08 91.1467 400.24 91.36C400.453 91.52 400.56 91.7333 400.56 92V99.12C400.56 99.3867 400.453 99.6267 400.24 99.84C400.08 100 399.866 100.08 399.6 100.08H389.12C388.853 100.08 388.72 100.213 388.72 100.48V110.88C388.72 111.147 388.613 111.387 388.4 111.6C388.24 111.76 388.026 111.84 387.76 111.84H380.56C380.293 111.84 380.053 111.76 379.84 111.6C379.68 111.387 379.6 111.147 379.6 110.88V100.48C379.6 100.213 379.466 100.08 379.2 100.08H368.72C368.453 100.08 368.213 100 368 99.84C367.84 99.6267 367.76 99.3867 367.76 99.12V92C367.76 91.7333 367.84 91.52 368 91.36C368.213 91.1467 368.453 91.04 368.72 91.04H379.2C379.466 91.04 379.6 90.9067 379.6 90.64V80.08C379.6 79.8133 379.68 79.6 379.84 79.44C380.053 79.2267 380.293 79.12 380.56 79.12H387.76C388.026 79.12 388.24 79.2267 388.4 79.44C388.613 79.6 388.72 79.8133 388.72 80.08V90.64C388.72 90.9067 388.853 91.04 389.12 91.04H399.6Z"
        fill="white" />
</svg>
