<svg width="319" height="206" viewBox="0 0 319 206" fill="none" xmlns="http://www.w3.org/2000/svg">
    <path
        d="M20.7708 77.3437L27.8851 78.9214C29.4196 79.2166 30.9386 78.9571 32.2121 78.2802L42.5365 70.7375C46.6913 67.638 43.5595 59.9223 35.8398 63.1694L29.8372 66.7982L28.4332 66.274C27.2483 63.9633 25.3223 61.9886 22.7803 60.7264C16.4646 57.5963 8.73958 60.0495 5.52952 66.2078C3.57739 69.9384 2.31947 73.9032 1.84448 77.9392C1.17116 83.6191 2.1681 89.5585 4.7779 94.6888C9.17281 103.31 14.3298 105.672 24.247 102.45L33.9451 99.2999L34.3522 101.982C34.8063 104.985 37.3743 107.178 40.3704 107.321C44.8331 107.53 50.4442 107.876 50.4442 102.293C50.4442 99.8648 48.4033 98.5364 46.3312 97.4982C46.0389 95.5947 45.851 90.8971 45.235 89.075C44.1285 85.8076 40.5113 84.0313 37.1603 85.1154L31.2413 87.0392C27.5093 88.2912 26.8829 81.3949 27.7546 78.9927"
        stroke="white" stroke-width="2" stroke-miterlimit="22.93" />
    <path fill-rule="evenodd" clip-rule="evenodd"
        d="M20.7759 37.5435C13.3066 33.65 0.153231 38.4036 5.87392 52.242C6.53159 53.8351 7.9513 56.1813 9.8408 57.4385C14.006 60.197 19.5388 59.3826 22.3679 55.9269C26.0007 51.3819 27.7545 41.1825 20.7759 37.5384L20.7759 37.5435Z"
        stroke="white" stroke-width="2" stroke-miterlimit="22.93" />
    <path d="M29.9415 86.3723C29.9415 86.3723 26.4914 98.8925 21.4544 103.112" stroke="white"
        stroke-width="2" stroke-miterlimit="22.93" />
    <path d="M28.5062 83.7869C28.5062 83.7869 12.8004 96.2562 3.7914 92.4899" stroke="white"
        stroke-width="2" stroke-miterlimit="22.93" />
    <path
        d="M117.6 79.44C119.2 83.28 120 87.8 120 93C120 98.68 119.04 103.56 117.12 107.64C115.2 111.88 112.36 115.16 108.6 117.48C104.92 119.8 100.36 120.96 94.92 120.96C88.44 120.96 83 119.28 78.6 115.92C74.2 112.56 71.44 108.08 70.32 102.48C69.84 100.32 69.52 97.6 69.36 94.32C69.36 93.36 69.84 92.88 70.8 92.88H84.96C85.92 92.88 86.4 93.36 86.4 94.32C86.56 96.8 86.8 98.56 87.12 99.6C87.52 101.76 88.4 103.44 89.76 104.64C91.12 105.84 92.84 106.44 94.92 106.44C96.84 106.44 98.44 105.92 99.72 104.88C101.08 103.76 102.04 102.2 102.6 100.2C103.24 97.8 103.56 95 103.56 91.8C103.56 88.28 103.16 85.44 102.36 83.28C101 79.12 98.48 77.04 94.8 77.04C93.36 77.04 91.84 77.6 90.24 78.72C90 78.88 89.72 78.96 89.4 78.96C88.92 78.96 88.52 78.8 88.2 78.48L81.12 70.68C80.8 70.2 80.64 69.84 80.64 69.6C80.64 69.28 80.8 68.96 81.12 68.64L98.16 51.24C98.32 51.08 98.36 50.92 98.28 50.76C98.2 50.6 98.04 50.52 97.8 50.52H72.36C71.96 50.52 71.6 50.4 71.28 50.16C71.04 49.84 70.92 49.48 70.92 49.08V37.44C70.92 37.04 71.04 36.72 71.28 36.48C71.6 36.16 71.96 36 72.36 36H118.08C118.48 36 118.8 36.16 119.04 36.48C119.36 36.72 119.52 37.04 119.52 37.44V49.44C119.52 50 119.28 50.6 118.8 51.24L103.8 67.68C103.56 68.08 103.64 68.32 104.04 68.4C107.16 68.96 109.84 70.2 112.08 72.12C114.4 73.96 116.24 76.4 117.6 79.44ZM136.597 120.48C133.877 120.48 131.597 119.6 129.757 117.84C127.997 116 127.117 113.72 127.117 111C127.117 108.2 127.997 105.92 129.757 104.16C131.517 102.4 133.797 101.52 136.597 101.52C139.397 101.52 141.677 102.4 143.437 104.16C145.197 105.92 146.077 108.2 146.077 111C146.077 113.72 145.157 116 143.317 117.84C141.557 119.6 139.317 120.48 136.597 120.48ZM202.365 79.44C203.885 83.52 204.645 88.2 204.645 93.48C204.645 97.24 204.165 100.8 203.205 104.16C201.685 109.52 198.845 113.64 194.685 116.52C190.525 119.4 185.325 120.84 179.085 120.84C172.845 120.84 167.605 119.32 163.365 116.28C159.125 113.24 156.285 108.88 154.845 103.2C154.285 101.52 153.965 99.8 153.885 98.04V97.8C153.885 97 154.325 96.6 155.205 96.6H169.485C170.445 96.6 170.965 97.08 171.045 98.04C171.205 99 171.365 99.64 171.525 99.96C172.085 102.04 173.005 103.64 174.285 104.76C175.565 105.8 177.165 106.32 179.085 106.32C181.005 106.32 182.645 105.76 184.005 104.64C185.365 103.44 186.245 101.84 186.645 99.84C187.205 98.16 187.485 96.08 187.485 93.6C187.485 91.04 187.205 88.8 186.645 86.88C186.085 84.96 185.165 83.52 183.885 82.56C182.605 81.6 181.005 81.12 179.085 81.12C175.325 81.12 172.765 82.68 171.405 85.8C171.165 86.6 170.645 87 169.845 87H155.325C154.925 87 154.565 86.88 154.245 86.64C154.005 86.32 153.885 85.96 153.885 85.56V37.44C153.885 37.04 154.005 36.72 154.245 36.48C154.565 36.16 154.925 36 155.325 36H201.165C201.565 36 201.885 36.16 202.125 36.48C202.445 36.72 202.605 37.04 202.605 37.44V49.08C202.605 49.48 202.445 49.84 202.125 50.16C201.885 50.4 201.565 50.52 201.165 50.52H171.405C171.005 50.52 170.805 50.72 170.805 51.12L170.685 69.84C170.685 70.16 170.765 70.36 170.925 70.44C171.085 70.44 171.245 70.36 171.405 70.2C174.605 67.72 178.445 66.48 182.925 66.48C187.725 66.48 191.765 67.6 195.045 69.84C198.405 72.08 200.845 75.28 202.365 79.44ZM231.799 78.48C231.959 78.16 232.239 78 232.639 78H239.599C239.799 78 239.959 78.08 240.079 78.24C240.239 78.36 240.319 78.52 240.319 78.72V119.28C240.319 119.48 240.239 119.66 240.079 119.82C239.959 119.94 239.799 120 239.599 120H232.579C232.379 120 232.199 119.94 232.039 119.82C231.919 119.66 231.859 119.48 231.859 119.28V92.64C231.859 92.48 231.819 92.4 231.739 92.4C231.659 92.36 231.579 92.4 231.499 92.52L225.979 101.64C225.819 101.96 225.539 102.12 225.139 102.12H223.759C223.359 102.12 223.079 101.96 222.919 101.64L217.399 92.52C217.319 92.4 217.239 92.36 217.159 92.4C217.079 92.4 217.039 92.48 217.039 92.64V119.28C217.039 119.48 216.959 119.66 216.799 119.82C216.679 119.94 216.519 120 216.319 120H209.299C209.099 120 208.919 119.94 208.759 119.82C208.639 119.66 208.579 119.48 208.579 119.28V78.72C208.579 78.52 208.639 78.36 208.759 78.24C208.919 78.08 209.099 78 209.299 78H216.259C216.659 78 216.939 78.16 217.099 78.48L224.299 90.3C224.419 90.54 224.539 90.54 224.659 90.3L231.799 78.48ZM258.55 120.54C255.79 120.54 253.35 119.98 251.23 118.86C249.15 117.74 247.53 116.16 246.37 114.12C245.21 112.08 244.63 109.7 244.63 106.98V91.02C244.63 88.34 245.21 85.98 246.37 83.94C247.53 81.9 249.15 80.32 251.23 79.2C253.35 78.08 255.79 77.52 258.55 77.52C261.31 77.52 263.75 78.08 265.87 79.2C267.99 80.32 269.63 81.9 270.79 83.94C271.95 85.98 272.53 88.34 272.53 91.02V106.98C272.53 109.7 271.95 112.08 270.79 114.12C269.63 116.16 267.99 117.74 265.87 118.86C263.75 119.98 261.31 120.54 258.55 120.54ZM258.55 113.28C260.23 113.28 261.57 112.74 262.57 111.66C263.57 110.54 264.07 109.1 264.07 107.34V90.78C264.07 88.98 263.57 87.54 262.57 86.46C261.57 85.34 260.23 84.78 258.55 84.78C256.91 84.78 255.59 85.34 254.59 86.46C253.59 87.54 253.09 88.98 253.09 90.78V107.34C253.09 109.1 253.59 110.54 254.59 111.66C255.59 112.74 256.91 113.28 258.55 113.28ZM277.683 120C277.483 120 277.303 119.94 277.143 119.82C277.023 119.66 276.963 119.48 276.963 119.28V78.72C276.963 78.52 277.023 78.36 277.143 78.24C277.303 78.08 277.483 78 277.683 78H284.703C284.903 78 285.063 78.08 285.183 78.24C285.343 78.36 285.423 78.52 285.423 78.72V119.28C285.423 119.48 285.343 119.66 285.183 119.82C285.063 119.94 284.903 120 284.703 120H277.683ZM303.128 120.48C300.368 120.48 297.948 120 295.868 119.04C293.788 118.04 292.168 116.66 291.008 114.9C289.888 113.1 289.328 111.04 289.328 108.72V107.16C289.328 106.96 289.388 106.8 289.508 106.68C289.668 106.52 289.848 106.44 290.048 106.44H296.948C297.148 106.44 297.308 106.52 297.428 106.68C297.588 106.8 297.668 106.96 297.668 107.16V108.3C297.668 109.7 298.188 110.88 299.228 111.84C300.268 112.76 301.668 113.22 303.428 113.22C304.988 113.22 306.168 112.82 306.968 112.02C307.808 111.22 308.228 110.2 308.228 108.96C308.228 108.04 307.968 107.26 307.448 106.62C306.928 105.94 306.188 105.32 305.228 104.76C304.308 104.16 302.868 103.36 300.908 102.36C298.508 101.16 296.548 100.04 295.028 99C293.508 97.96 292.208 96.62 291.128 94.98C290.048 93.34 289.508 91.36 289.508 89.04C289.508 86.72 290.048 84.7 291.128 82.98C292.248 81.22 293.808 79.88 295.808 78.96C297.808 78 300.088 77.52 302.648 77.52C305.328 77.52 307.708 78.04 309.788 79.08C311.868 80.08 313.488 81.5 314.648 83.34C315.808 85.18 316.388 87.3 316.388 89.7V90.9C316.388 91.1 316.308 91.28 316.148 91.44C316.028 91.56 315.868 91.62 315.668 91.62H308.768C308.568 91.62 308.388 91.56 308.228 91.44C308.108 91.28 308.048 91.1 308.048 90.9V89.82C308.048 88.38 307.548 87.18 306.548 86.22C305.548 85.26 304.188 84.78 302.468 84.78C301.028 84.78 299.888 85.16 299.048 85.92C298.248 86.64 297.848 87.66 297.848 88.98C297.848 89.9 298.088 90.7 298.568 91.38C299.048 92.06 299.788 92.72 300.788 93.36C301.788 93.96 303.308 94.76 305.348 95.76L306.608 96.48C308.928 97.76 310.728 98.88 312.008 99.84C313.328 100.76 314.428 101.94 315.308 103.38C316.188 104.82 316.628 106.56 316.628 108.6C316.628 112.24 315.388 115.14 312.908 117.3C310.468 119.42 307.208 120.48 303.128 120.48Z"
        fill="white" />
    <path
        d="M78.69 170C78.47 170 78.33 169.9 78.27 169.7L77.49 166.49C77.47 166.41 77.42 166.37 77.34 166.37H71.16C71.08 166.37 71.03 166.41 71.01 166.49L70.26 169.7C70.2 169.9 70.06 170 69.84 170H66.99C66.73 170 66.63 169.87 66.69 169.61L72.15 149.3C72.21 149.1 72.35 149 72.57 149H75.99C76.21 149 76.35 149.1 76.41 149.3L81.87 169.61L81.9 169.73C81.9 169.91 81.79 170 81.57 170H78.69ZM71.73 163.46C71.71 163.52 71.72 163.57 71.76 163.61C71.8 163.63 71.84 163.64 71.88 163.64H76.62C76.66 163.64 76.7 163.63 76.74 163.61C76.78 163.57 76.79 163.52 76.77 163.46L74.31 153.62C74.29 153.56 74.26 153.53 74.22 153.53C74.18 153.53 74.15 153.56 74.13 153.62L71.73 163.46ZM70.38 147.11C70.24 147.11 70.15 147.07 70.11 146.99C70.07 146.89 70.09 146.78 70.17 146.66L72.21 143.57C72.31 143.41 72.45 143.33 72.63 143.33H75.78C75.96 143.33 76.1 143.41 76.2 143.57L78.33 146.66C78.37 146.72 78.39 146.79 78.39 146.87C78.39 147.03 78.29 147.11 78.09 147.11H75.96C75.76 147.11 75.62 147.03 75.54 146.87L74.34 144.92C74.3 144.86 74.26 144.83 74.22 144.83C74.18 144.83 74.15 144.86 74.13 144.92L72.93 146.87C72.85 147.03 72.71 147.11 72.51 147.11H70.38ZM89.4947 170.24C88.1947 170.24 87.0447 169.98 86.0447 169.46C85.0647 168.94 84.2947 168.21 83.7347 167.27C83.1947 166.31 82.9247 165.21 82.9247 163.97V155.03C82.9247 153.79 83.1947 152.7 83.7347 151.76C84.2947 150.8 85.0647 150.06 86.0447 149.54C87.0447 149.02 88.1947 148.76 89.4947 148.76C90.7947 148.76 91.9447 149.02 92.9447 149.54C93.9447 150.04 94.7147 150.75 95.2547 151.67C95.8147 152.59 96.0947 153.64 96.0947 154.82V155.51C96.0947 155.61 96.0547 155.7 95.9747 155.78C95.9147 155.84 95.8347 155.87 95.7347 155.87H92.9747C92.8747 155.87 92.7847 155.84 92.7047 155.78C92.6447 155.7 92.6147 155.61 92.6147 155.51V154.82C92.6147 153.92 92.3247 153.19 91.7447 152.63C91.1847 152.05 90.4347 151.76 89.4947 151.76C88.5747 151.76 87.8247 152.06 87.2447 152.66C86.6847 153.24 86.4047 154.01 86.4047 154.97V164.03C86.4047 164.99 86.6947 165.77 87.2747 166.37C87.8747 166.95 88.6447 167.24 89.5847 167.24C90.5047 167.24 91.2347 166.98 91.7747 166.46C92.3347 165.92 92.6147 165.19 92.6147 164.27V161.9C92.6147 161.8 92.5647 161.75 92.4647 161.75H89.7347C89.6347 161.75 89.5447 161.72 89.4647 161.66C89.4047 161.58 89.3747 161.49 89.3747 161.39V159.2C89.3747 159.1 89.4047 159.02 89.4647 158.96C89.5447 158.88 89.6347 158.84 89.7347 158.84H95.7347C95.8347 158.84 95.9147 158.88 95.9747 158.96C96.0547 159.02 96.0947 159.1 96.0947 159.2V163.88C96.0947 165.86 95.4947 167.42 94.2947 168.56C93.0947 169.68 91.4947 170.24 89.4947 170.24ZM111.218 151.64C111.218 151.74 111.178 151.83 111.098 151.91C111.038 151.97 110.958 152 110.858 152H102.518C102.418 152 102.368 152.05 102.368 152.15V157.79C102.368 157.89 102.418 157.94 102.518 157.94H107.858C107.958 157.94 108.038 157.98 108.098 158.06C108.178 158.12 108.218 158.2 108.218 158.3V160.58C108.218 160.68 108.178 160.77 108.098 160.85C108.038 160.91 107.958 160.94 107.858 160.94H102.518C102.418 160.94 102.368 160.99 102.368 161.09V166.85C102.368 166.95 102.418 167 102.518 167H110.858C110.958 167 111.038 167.04 111.098 167.12C111.178 167.18 111.218 167.26 111.218 167.36V169.64C111.218 169.74 111.178 169.83 111.098 169.91C111.038 169.97 110.958 170 110.858 170H99.248C99.148 170 99.058 169.97 98.978 169.91C98.918 169.83 98.888 169.74 98.888 169.64V149.36C98.888 149.26 98.918 149.18 98.978 149.12C99.058 149.04 99.148 149 99.248 149H110.858C110.958 149 111.038 149.04 111.098 149.12C111.178 149.18 111.218 149.26 111.218 149.36V151.64ZM130.535 149.24C130.615 149.08 130.755 149 130.955 149H133.745C133.845 149 133.925 149.04 133.985 149.12C134.065 149.18 134.105 149.26 134.105 149.36V169.64C134.105 169.74 134.065 169.83 133.985 169.91C133.925 169.97 133.845 170 133.745 170H130.985C130.885 170 130.795 169.97 130.715 169.91C130.655 169.83 130.625 169.74 130.625 169.64V155.42C130.625 155.34 130.605 155.3 130.565 155.3C130.525 155.28 130.485 155.3 130.445 155.36L127.265 160.61C127.185 160.77 127.045 160.85 126.845 160.85H126.275C126.075 160.85 125.935 160.77 125.855 160.61L122.675 155.39C122.635 155.33 122.595 155.31 122.555 155.33C122.515 155.33 122.495 155.37 122.495 155.45V169.64C122.495 169.74 122.455 169.83 122.375 169.91C122.315 169.97 122.235 170 122.135 170H119.375C119.275 170 119.185 169.97 119.105 169.91C119.045 169.83 119.015 169.74 119.015 169.64V149.36C119.015 149.26 119.045 149.18 119.105 149.12C119.185 149.04 119.275 149 119.375 149H122.135C122.335 149 122.475 149.08 122.555 149.24L126.485 155.51C126.545 155.63 126.605 155.63 126.665 155.51L130.535 149.24ZM149.613 151.64C149.613 151.74 149.573 151.83 149.493 151.91C149.433 151.97 149.353 152 149.253 152H140.913C140.813 152 140.763 152.05 140.763 152.15V157.79C140.763 157.89 140.813 157.94 140.913 157.94H146.253C146.353 157.94 146.433 157.98 146.493 158.06C146.573 158.12 146.613 158.2 146.613 158.3V160.58C146.613 160.68 146.573 160.77 146.493 160.85C146.433 160.91 146.353 160.94 146.253 160.94H140.913C140.813 160.94 140.763 160.99 140.763 161.09V166.85C140.763 166.95 140.813 167 140.913 167H149.253C149.353 167 149.433 167.04 149.493 167.12C149.573 167.18 149.613 167.26 149.613 167.36V169.64C149.613 169.74 149.573 169.83 149.493 169.91C149.433 169.97 149.353 170 149.253 170H137.643C137.543 170 137.453 169.97 137.373 169.91C137.313 169.83 137.283 169.74 137.283 169.64V149.36C137.283 149.26 137.313 149.18 137.373 149.12C137.453 149.04 137.543 149 137.643 149H149.253C149.353 149 149.433 149.04 149.493 149.12C149.573 149.18 149.613 149.26 149.613 149.36V151.64ZM141.963 147.08C141.823 147.08 141.733 147.04 141.693 146.96C141.653 146.88 141.663 146.78 141.723 146.66L143.433 143.57C143.533 143.41 143.683 143.33 143.883 143.33H146.133C146.273 143.33 146.363 143.38 146.403 143.48C146.463 143.56 146.453 143.66 146.373 143.78L144.243 146.84C144.143 147 144.003 147.08 143.823 147.08H141.963ZM152.424 170C152.324 170 152.234 169.97 152.154 169.91C152.094 169.83 152.064 169.74 152.064 169.64V149.36C152.064 149.26 152.094 149.18 152.154 149.12C152.234 149.04 152.324 149 152.424 149H158.634C160.574 149 162.124 149.54 163.284 150.62C164.464 151.7 165.054 153.14 165.054 154.94V164.06C165.054 165.86 164.464 167.3 163.284 168.38C162.124 169.46 160.574 170 158.634 170H152.424ZM155.544 166.85C155.544 166.95 155.594 167 155.694 167L158.664 166.97C159.524 166.97 160.214 166.68 160.734 166.1C161.254 165.5 161.534 164.69 161.574 163.67V155.33C161.574 154.31 161.304 153.5 160.764 152.9C160.244 152.3 159.544 152 158.664 152H155.694C155.594 152 155.544 152.05 155.544 152.15V166.85ZM168.172 170C168.072 170 167.982 169.97 167.902 169.91C167.842 169.83 167.812 169.74 167.812 169.64V149.36C167.812 149.26 167.842 149.18 167.902 149.12C167.982 149.04 168.072 149 168.172 149H170.932C171.032 149 171.112 149.04 171.172 149.12C171.252 149.18 171.292 149.26 171.292 149.36V169.64C171.292 169.74 171.252 169.83 171.172 169.91C171.112 169.97 171.032 170 170.932 170H168.172ZM185.277 170C185.057 170 184.917 169.9 184.857 169.7L184.077 166.49C184.057 166.41 184.007 166.37 183.927 166.37H177.747C177.667 166.37 177.617 166.41 177.597 166.49L176.847 169.7C176.787 169.9 176.647 170 176.427 170H173.577C173.317 170 173.217 169.87 173.277 169.61L178.737 149.3C178.797 149.1 178.937 149 179.157 149H182.577C182.797 149 182.937 149.1 182.997 149.3L188.457 169.61L188.487 169.73C188.487 169.91 188.377 170 188.157 170H185.277ZM178.317 163.46C178.297 163.52 178.307 163.57 178.347 163.61C178.387 163.63 178.427 163.64 178.467 163.64H183.207C183.247 163.64 183.287 163.63 183.327 163.61C183.367 163.57 183.377 163.52 183.357 163.46L180.897 153.62C180.877 153.56 180.847 153.53 180.807 153.53C180.767 153.53 180.737 153.56 180.717 153.62L178.317 163.46ZM200.809 149.36C200.809 149.26 200.839 149.18 200.899 149.12C200.979 149.04 201.069 149 201.169 149H203.929C204.029 149 204.109 149.04 204.169 149.12C204.249 149.18 204.289 149.26 204.289 149.36V169.64C204.289 169.74 204.249 169.83 204.169 169.91C204.109 169.97 204.029 170 203.929 170H201.019C200.839 170 200.699 169.91 200.599 169.73L194.059 156.29C194.019 156.23 193.979 156.21 193.939 156.23C193.899 156.23 193.879 156.27 193.879 156.35L193.909 169.64C193.909 169.74 193.869 169.83 193.789 169.91C193.729 169.97 193.649 170 193.549 170H190.789C190.689 170 190.599 169.97 190.519 169.91C190.459 169.83 190.429 169.74 190.429 169.64V149.36C190.429 149.26 190.459 149.18 190.519 149.12C190.599 149.04 190.689 149 190.789 149H193.669C193.869 149 194.009 149.09 194.089 149.27L200.659 162.77C200.699 162.83 200.739 162.86 200.779 162.86C200.819 162.84 200.839 162.79 200.839 162.71L200.809 149.36ZM68.28 202C68.18 202 68.09 201.97 68.01 201.91C67.95 201.83 67.92 201.74 67.92 201.64V181.36C67.92 181.26 67.95 181.18 68.01 181.12C68.09 181.04 68.18 181 68.28 181H74.49C76.43 181 77.98 181.54 79.14 182.62C80.32 183.7 80.91 185.14 80.91 186.94V196.06C80.91 197.86 80.32 199.3 79.14 200.38C77.98 201.46 76.43 202 74.49 202H68.28ZM71.4 198.85C71.4 198.95 71.45 199 71.55 199L74.52 198.97C75.38 198.97 76.07 198.68 76.59 198.1C77.11 197.5 77.39 196.69 77.43 195.67V187.33C77.43 186.31 77.16 185.5 76.62 184.9C76.1 184.3 75.4 184 74.52 184H71.55C71.45 184 71.4 184.05 71.4 184.15V198.85ZM95.9391 183.64C95.9391 183.74 95.8991 183.83 95.8191 183.91C95.7591 183.97 95.6791 184 95.5791 184H87.2391C87.1391 184 87.0891 184.05 87.0891 184.15V189.79C87.0891 189.89 87.1391 189.94 87.2391 189.94H92.5791C92.6791 189.94 92.7591 189.98 92.8191 190.06C92.8991 190.12 92.9391 190.2 92.9391 190.3V192.58C92.9391 192.68 92.8991 192.77 92.8191 192.85C92.7591 192.91 92.6791 192.94 92.5791 192.94H87.2391C87.1391 192.94 87.0891 192.99 87.0891 193.09V198.85C87.0891 198.95 87.1391 199 87.2391 199H95.5791C95.6791 199 95.7591 199.04 95.8191 199.12C95.8991 199.18 95.9391 199.26 95.9391 199.36V201.64C95.9391 201.74 95.8991 201.83 95.8191 201.91C95.7591 201.97 95.6791 202 95.5791 202H83.9691C83.8691 202 83.7791 201.97 83.6991 201.91C83.6391 201.83 83.6091 201.74 83.6091 201.64V181.36C83.6091 181.26 83.6391 181.18 83.6991 181.12C83.7791 181.04 83.8691 181 83.9691 181H95.5791C95.6791 181 95.7591 181.04 95.8191 181.12C95.8991 181.18 95.9391 181.26 95.9391 181.36V183.64ZM104.24 202.24C102.92 202.24 101.76 202.01 100.76 201.55C99.7599 201.07 98.9799 200.4 98.4199 199.54C97.8799 198.66 97.6099 197.65 97.6099 196.51V195.73C97.6099 195.63 97.6399 195.55 97.6999 195.49C97.7799 195.41 97.8699 195.37 97.9699 195.37H100.67C100.77 195.37 100.85 195.41 100.91 195.49C100.99 195.55 101.03 195.63 101.03 195.73V196.33C101.03 197.19 101.33 197.89 101.93 198.43C102.53 198.97 103.34 199.24 104.36 199.24C105.3 199.24 106.02 199 106.52 198.52C107.02 198.04 107.27 197.41 107.27 196.63C107.27 196.09 107.13 195.63 106.85 195.25C106.57 194.85 106.17 194.49 105.65 194.17C105.15 193.83 104.37 193.38 103.31 192.82C102.09 192.18 101.11 191.61 100.37 191.11C99.6299 190.61 98.9999 189.97 98.4799 189.19C97.9799 188.41 97.7299 187.46 97.7299 186.34C97.7299 184.62 98.2999 183.26 99.4399 182.26C100.6 181.26 102.12 180.76 104 180.76C105.3 180.76 106.45 181.01 107.45 181.51C108.45 181.99 109.22 182.68 109.76 183.58C110.3 184.48 110.57 185.51 110.57 186.67V187.3C110.57 187.4 110.53 187.49 110.45 187.57C110.39 187.63 110.31 187.66 110.21 187.66H107.51C107.41 187.66 107.32 187.63 107.24 187.57C107.18 187.49 107.15 187.4 107.15 187.3V186.73C107.15 185.87 106.86 185.16 106.28 184.6C105.7 184.04 104.92 183.76 103.94 183.76C103.08 183.76 102.4 183.99 101.9 184.45C101.4 184.89 101.15 185.51 101.15 186.31C101.15 186.85 101.28 187.31 101.54 187.69C101.8 188.07 102.19 188.43 102.71 188.77C103.25 189.11 104.06 189.55 105.14 190.09C106.58 190.91 107.64 191.55 108.32 192.01C109 192.47 109.57 193.07 110.03 193.81C110.51 194.53 110.75 195.42 110.75 196.48C110.75 198.24 110.16 199.64 108.98 200.68C107.8 201.72 106.22 202.24 104.24 202.24ZM131.657 196.24C131.657 198.1 131.067 199.53 129.887 200.53C128.727 201.51 127.207 202 125.327 202H118.937C118.837 202 118.747 201.97 118.667 201.91C118.607 201.83 118.577 201.74 118.577 201.64V181.36C118.577 181.26 118.607 181.18 118.667 181.12C118.747 181.04 118.837 181 118.937 181H124.967C126.987 181 128.557 181.48 129.677 182.44C130.817 183.38 131.387 184.79 131.387 186.67C131.387 188.73 130.577 190.19 128.957 191.05C128.857 191.11 128.847 191.17 128.927 191.23C130.747 192.21 131.657 193.88 131.657 196.24ZM122.207 184C122.107 184 122.057 184.05 122.057 184.15V189.73C122.057 189.83 122.107 189.88 122.207 189.88H124.997C125.937 189.88 126.667 189.63 127.187 189.13C127.727 188.61 127.997 187.89 127.997 186.97C127.997 186.03 127.727 185.3 127.187 184.78C126.667 184.26 125.937 184 124.997 184H122.207ZM125.207 198.97C126.127 198.97 126.847 198.69 127.367 198.13C127.907 197.57 128.177 196.79 128.177 195.79C128.177 194.79 127.907 194.01 127.367 193.45C126.827 192.87 126.097 192.58 125.177 192.58H122.207C122.107 192.58 122.057 192.63 122.057 192.73V198.82C122.057 198.92 122.107 198.97 122.207 198.97H125.207ZM146.508 183.64C146.508 183.74 146.468 183.83 146.388 183.91C146.328 183.97 146.248 184 146.148 184H137.808C137.708 184 137.658 184.05 137.658 184.15V189.79C137.658 189.89 137.708 189.94 137.808 189.94H143.148C143.248 189.94 143.328 189.98 143.388 190.06C143.468 190.12 143.508 190.2 143.508 190.3V192.58C143.508 192.68 143.468 192.77 143.388 192.85C143.328 192.91 143.248 192.94 143.148 192.94H137.808C137.708 192.94 137.658 192.99 137.658 193.09V198.85C137.658 198.95 137.708 199 137.808 199H146.148C146.248 199 146.328 199.04 146.388 199.12C146.468 199.18 146.508 199.26 146.508 199.36V201.64C146.508 201.74 146.468 201.83 146.388 201.91C146.328 201.97 146.248 202 146.148 202H134.538C134.438 202 134.348 201.97 134.268 201.91C134.208 201.83 134.178 201.74 134.178 201.64V181.36C134.178 181.26 134.208 181.18 134.268 181.12C134.348 181.04 134.438 181 134.538 181H146.148C146.248 181 146.328 181.04 146.388 181.12C146.468 181.18 146.508 181.26 146.508 181.36V183.64ZM138.858 179.08C138.718 179.08 138.628 179.04 138.588 178.96C138.548 178.88 138.558 178.78 138.618 178.66L140.328 175.57C140.428 175.41 140.578 175.33 140.778 175.33H143.028C143.168 175.33 143.258 175.38 143.298 175.48C143.358 175.56 143.348 175.66 143.268 175.78L141.138 178.84C141.038 179 140.898 179.08 140.718 179.08H138.858ZM162.039 196.24C162.039 198.1 161.449 199.53 160.269 200.53C159.109 201.51 157.589 202 155.709 202H149.319C149.219 202 149.129 201.97 149.049 201.91C148.989 201.83 148.959 201.74 148.959 201.64V181.36C148.959 181.26 148.989 181.18 149.049 181.12C149.129 181.04 149.219 181 149.319 181H155.349C157.369 181 158.939 181.48 160.059 182.44C161.199 183.38 161.769 184.79 161.769 186.67C161.769 188.73 160.959 190.19 159.339 191.05C159.239 191.11 159.229 191.17 159.309 191.23C161.129 192.21 162.039 193.88 162.039 196.24ZM152.589 184C152.489 184 152.439 184.05 152.439 184.15V189.73C152.439 189.83 152.489 189.88 152.589 189.88H155.379C156.319 189.88 157.049 189.63 157.569 189.13C158.109 188.61 158.379 187.89 158.379 186.97C158.379 186.03 158.109 185.3 157.569 184.78C157.049 184.26 156.319 184 155.379 184H152.589ZM155.589 198.97C156.509 198.97 157.229 198.69 157.749 198.13C158.289 197.57 158.559 196.79 158.559 195.79C158.559 194.79 158.289 194.01 157.749 193.45C157.209 192.87 156.479 192.58 155.559 192.58H152.589C152.489 192.58 152.439 192.63 152.439 192.73V198.82C152.439 198.92 152.489 198.97 152.589 198.97H155.589ZM176.89 183.64C176.89 183.74 176.85 183.83 176.77 183.91C176.71 183.97 176.63 184 176.53 184H168.19C168.09 184 168.04 184.05 168.04 184.15V189.79C168.04 189.89 168.09 189.94 168.19 189.94H173.53C173.63 189.94 173.71 189.98 173.77 190.06C173.85 190.12 173.89 190.2 173.89 190.3V192.58C173.89 192.68 173.85 192.77 173.77 192.85C173.71 192.91 173.63 192.94 173.53 192.94H168.19C168.09 192.94 168.04 192.99 168.04 193.09V198.85C168.04 198.95 168.09 199 168.19 199H176.53C176.63 199 176.71 199.04 176.77 199.12C176.85 199.18 176.89 199.26 176.89 199.36V201.64C176.89 201.74 176.85 201.83 176.77 201.91C176.71 201.97 176.63 202 176.53 202H164.92C164.82 202 164.73 201.97 164.65 201.91C164.59 201.83 164.56 201.74 164.56 201.64V181.36C164.56 181.26 164.59 181.18 164.65 181.12C164.73 181.04 164.82 181 164.92 181H176.53C176.63 181 176.71 181.04 176.77 181.12C176.85 181.18 176.89 181.26 176.89 181.36V183.64ZM169.24 179.08C169.1 179.08 169.01 179.04 168.97 178.96C168.93 178.88 168.94 178.78 169 178.66L170.71 175.57C170.81 175.41 170.96 175.33 171.16 175.33H173.41C173.55 175.33 173.64 175.38 173.68 175.48C173.74 175.56 173.73 175.66 173.65 175.78L171.52 178.84C171.42 179 171.28 179.08 171.1 179.08H169.24ZM185.191 202.24C183.871 202.24 182.711 202.01 181.711 201.55C180.711 201.07 179.931 200.4 179.371 199.54C178.831 198.66 178.561 197.65 178.561 196.51V195.73C178.561 195.63 178.591 195.55 178.651 195.49C178.731 195.41 178.821 195.37 178.921 195.37H181.621C181.721 195.37 181.801 195.41 181.861 195.49C181.941 195.55 181.981 195.63 181.981 195.73V196.33C181.981 197.19 182.281 197.89 182.881 198.43C183.481 198.97 184.291 199.24 185.311 199.24C186.251 199.24 186.971 199 187.471 198.52C187.971 198.04 188.221 197.41 188.221 196.63C188.221 196.09 188.081 195.63 187.801 195.25C187.521 194.85 187.121 194.49 186.601 194.17C186.101 193.83 185.321 193.38 184.261 192.82C183.041 192.18 182.061 191.61 181.321 191.11C180.581 190.61 179.951 189.97 179.431 189.19C178.931 188.41 178.681 187.46 178.681 186.34C178.681 184.62 179.251 183.26 180.391 182.26C181.551 181.26 183.071 180.76 184.951 180.76C186.251 180.76 187.401 181.01 188.401 181.51C189.401 181.99 190.171 182.68 190.711 183.58C191.251 184.48 191.521 185.51 191.521 186.67V187.3C191.521 187.4 191.481 187.49 191.401 187.57C191.341 187.63 191.261 187.66 191.161 187.66H188.461C188.361 187.66 188.271 187.63 188.191 187.57C188.131 187.49 188.101 187.4 188.101 187.3V186.73C188.101 185.87 187.811 185.16 187.231 184.6C186.651 184.04 185.871 183.76 184.891 183.76C184.031 183.76 183.351 183.99 182.851 184.45C182.351 184.89 182.101 185.51 182.101 186.31C182.101 186.85 182.231 187.31 182.491 187.69C182.751 188.07 183.141 188.43 183.661 188.77C184.201 189.11 185.011 189.55 186.091 190.09C187.531 190.91 188.591 191.55 189.271 192.01C189.951 192.47 190.521 193.07 190.981 193.81C191.461 194.53 191.701 195.42 191.701 196.48C191.701 198.24 191.111 199.64 189.931 200.68C188.751 201.72 187.171 202.24 185.191 202.24Z"
        fill="#F7E1D7" />
</svg>
