<svg width="112" height="111" viewBox="0 0 112 111" fill="none" xmlns="http://www.w3.org/2000/svg">
    <path
        d="M55.748 110.35C86.5367 110.35 111.496 85.6474 111.496 55.1751C111.496 24.7027 86.5367 0 55.748 0C24.9592 0 0 24.7027 0 55.1751C0 85.6474 24.9592 110.35 55.748 110.35Z"
        fill="#F7E1D7" />
    <path
        d="M100.221 58.4891C99.9909 56.4944 99.8164 54.6489 99.2292 52.8035C98.9991 52.081 98.5786 51.3271 98.166 50.856C98.293 54.4683 98.2295 59.1487 97.6185 63.727C97.3964 65.1798 96.2697 66.9232 95.865 67.8105C95.254 69.1534 93.3974 72.5223 93.5323 73.9673C93.6909 75.6871 94.7304 76.6609 95.6746 74.4385C96.4045 72.7108 100.023 68.2582 100.372 66.664C100.951 65.2662 101.03 64.7557 100.84 63.0909C100.665 61.5753 100.396 59.9733 100.221 58.4891Z"
        fill="#358297" />
    <path
        d="M90.7394 68.7527C90.3585 69.7422 90.8743 71.7761 91.5487 71.5091C91.8978 71.3677 92.4374 70.2526 93.0325 69.3652C94.064 67.8339 96.2301 63.9153 96.4919 62.4939C96.6744 61.5201 96.9521 56.9104 96.9204 54.6016C96.9204 54.0519 96.8648 50.8165 96.0159 49.1595C95.4366 48.0287 94.3734 46.4973 93.4927 45.6885C92.6278 44.8875 92.0724 44.7069 92.6992 46.1439C95.1272 51.7588 94.6035 56.7769 94.1274 59.5726C93.5482 62.9415 91.9058 65.7528 90.7394 68.7605V68.7527Z"
        fill="#358297" />
    <path
        d="M63.0004 5.84246C60.628 5.49693 57.589 5.34773 54.2327 5.50479C37.8241 6.24297 26.0017 13.5698 17.3531 24.886C33.0555 8.03345 73.4343 7.256 85.3837 32.307C85.582 32.9195 85.1377 35.3226 84.7092 37.5685C84.2014 40.2464 83.7888 40.8668 84.5267 43.474C85.2408 45.9869 85.8121 46.5916 86.8833 49.3087C86.8912 49.348 86.9071 49.3794 86.923 49.4187C88.2401 52.7876 88.8669 55.4498 89.4461 60.0438C89.5493 60.8683 90.1444 61.2217 90.6363 60.6406C92.9373 59.5255 92.6438 51.3191 92.0566 45.343C91.9059 43.6703 93.6038 43.1834 95.0717 44.1886C95.8572 44.7304 96.9839 46.1204 97.5314 46.8979C98.1424 47.7617 98.6502 48.6962 99.1025 49.7014C99.5468 50.7066 100.213 51.429 100.499 52.5677C101.419 56.2115 101.673 60.672 102.443 64.5985C102.641 65.7293 101.411 69.7658 104.046 70.8495C104.26 70.9358 104.625 70.9751 104.799 70.5825L105.347 67.3549C111.044 33.4693 89.8508 9.80037 62.9845 5.85817L63.0004 5.84246Z"
        fill="#358297" />
    <path
        d="M37.0942 45.6255C36.753 45.6255 36.277 45.8846 35.912 45.9396C35.42 46.026 34.9281 45.8689 34.4758 45.6726C34.8249 46.0653 35.7692 46.9448 36.3484 46.4658C36.4119 46.4108 36.9197 46.1595 36.9911 46.1595C37.4433 46.0967 37.6258 46.9369 37.5386 47.3296C37.7528 46.6935 37.8797 45.6883 37.0942 45.6255Z"
        fill="#358297" />
    <path
        d="M91.4456 78.9458C90.0491 79.5033 87.7878 82.7623 86.8277 83.9481C86.1929 84.7256 85.098 86.571 83.8602 87.4584C79.9247 90.1677 75.64 92.4137 72.252 93.9921C72.8709 94.1413 73.7595 94.1649 74.5292 94.0392C76.489 93.7094 78.2743 92.9948 80.2182 92.2723C81.6623 91.7304 83.2572 91.22 84.733 90.6703C86.3516 90.0656 86.788 89.7515 87.8116 88.5657C89.1208 87.5055 91.5884 82.1341 92.8579 80.6577C94.4766 78.7652 93.1118 78.2783 91.4535 78.9379L91.4456 78.9458Z"
        fill="#358297" />
    <path
        d="M79.1551 86.2414C76.7906 87.9848 72.4107 90.8118 66.1424 91.2438C64.5397 91.3537 64.9523 91.7699 66.079 92.1783C67.2295 92.5945 69.1179 92.8458 70.4192 92.8458C72.3234 92.8458 75.3306 91.3694 75.8384 91.1181C77.9728 90.0658 82.0988 87.6471 82.916 87.0267C84.1062 86.1157 86.7405 82.3149 87.6847 80.6579C88.2322 79.6999 89.0177 78.679 88.9939 78.302C88.9383 77.5638 86.8277 78.0429 86.0898 78.8596C83.8444 81.3254 82.0036 84.1368 79.1551 86.2414Z"
        fill="#358297" />
    <path
        d="M32.2777 47.9111C33.0791 49.5681 31.5319 50.5811 30.2544 52.0732C33.6266 51.6413 33.9202 48.2567 32.2777 47.9111Z"
        fill="#358297" />
    <path
        d="M92.739 89.8772C90.557 87.9925 87.3831 91.0001 86.2564 91.3457C82.2892 92.4922 78.068 94.3534 74.2912 95.225C73.1169 95.4999 72.1489 95.2329 71.0222 95.2957C69.8955 95.3585 68.8084 95.335 67.7293 95.1858C66.7772 95.0523 64.9761 94.6832 64.1271 94.2277C62.5401 93.3717 62.2228 91.597 63.8335 90.9452C66.7455 89.7672 70.673 88.0474 72.7281 86.8381C75.5766 85.1654 77.6872 82.4718 77.2904 81.8357C77.1714 81.6394 76.8064 81.5766 76.1955 81.6786C74.7831 81.9064 73.6644 82.6132 73.5691 82.676C71.5062 83.9717 68.9909 84.4115 67.1739 84.1916C66.2853 84.0817 65.587 83.8147 65.1585 83.6183C65.2062 83.5948 65.8568 83.2728 65.9282 82.6524C65.9441 82.5032 65.9282 82.354 65.8885 82.2127C66.2773 82.1734 66.674 81.9928 66.92 81.6394C67.2691 81.6629 67.6341 81.6158 67.9674 81.4431C68.1419 81.3488 68.3086 81.2232 68.4434 81.0583C68.5069 80.9719 68.5704 80.8855 68.618 80.7756C68.6656 80.6892 68.7053 80.5164 68.7132 80.4536C68.7608 79.9824 68.5783 79.574 68.3006 79.2521C68.2292 79.1735 68.1499 79.1029 68.0626 79.0322C68.015 78.9929 67.9674 78.9615 67.9356 78.9458L67.8642 78.9065L67.7928 78.8673C67.6024 78.773 67.3961 78.7102 67.1818 78.6788H67.166H67.1104C66.4915 78.6945 65.8806 78.6395 65.2776 78.5453C64.6825 78.4511 64.0795 78.2862 63.4923 78.1055L64.1747 78.2783L63.6431 67.2056C61.1516 65.1874 64.7539 49.1987 63.6272 48.7511C62.4925 48.3035 62.8179 47.6046 62.8179 47.6046L63.3574 47.0941C63.4685 46.9842 63.532 46.835 63.532 46.6779C63.532 46.5208 63.4606 46.3716 63.3415 46.2695L62.8179 45.8141L63.7462 44.9031C64.9602 43.6388 62.4529 35.3146 62.8734 31.0897C63.1114 30.9719 63.3257 30.8306 63.524 30.6657C66.6978 30.6892 72.3552 38.2202 72.3552 38.2202C73.1883 38.7778 74.3388 39.3039 75.5369 39.7594L66.9676 65.6507C66.4519 65.902 66.1345 66.2083 66.1345 66.5852C66.1345 66.9229 66.3963 67.1977 66.8169 67.4333C67.3961 70.8258 71.3713 73.4723 76.2748 73.5979C81.1784 73.4723 85.1535 70.8258 85.7328 67.4333C86.1533 67.1977 86.4151 66.9229 86.4151 66.5852C86.4151 66.2083 86.1057 65.902 85.582 65.6507L77.2032 40.3484C79.6073 41.1337 81.8052 41.6284 81.8052 41.6284C81.8052 41.6284 79.282 39.0448 76.8937 37.2936L64.5714 29.0244C64.6349 28.7731 64.6825 28.5061 64.6825 28.2312C64.6825 27.1789 64.1588 26.2523 63.3653 25.6712H63.3733H63.3574C63.2543 25.5926 63.1432 25.5298 63.0242 25.467C62.7464 25.2314 62.3894 24.7524 62.2942 23.7865C62.1831 22.6399 63.8017 23.0247 62.7226 21.5091C62.7226 21.5091 63.04 20.8887 62.3973 20.661C62.3973 20.661 62.8099 20.4489 61.4531 17.5669C60.0963 20.4489 60.5089 20.661 60.5089 20.661C59.8662 20.8887 60.1836 21.5091 60.1836 21.5091C59.1045 23.0247 60.6279 22.6399 60.6121 23.7865C60.5883 25.0351 59.9297 25.4513 59.7472 25.5377C59.7472 25.5377 59.7393 25.5377 59.7313 25.5377C59.7075 25.5455 59.6996 25.5534 59.6996 25.5534C59.5488 25.6476 59.406 25.7654 59.2711 25.8832L49.9639 18.5564C47.7105 16.9936 44.497 15.7686 44.497 15.7686C44.497 15.7686 45.8697 18.525 47.8534 20.5589L42.4023 37.0344C42.0611 37.1993 41.8628 37.4035 41.8628 37.647C41.8628 37.8669 42.0373 38.0475 42.3071 38.1967C42.688 40.4034 45.2746 42.131 48.4643 42.2174C51.6619 42.1389 54.2486 40.4112 54.6215 38.1967C54.8992 38.0396 55.0658 37.859 55.0658 37.647C55.0658 37.4035 54.8595 37.1993 54.5263 37.0344L49.4561 21.729C51.2097 22.4672 56.4068 24.8073 58.3111 27.4459C58.2476 27.6972 58.2079 27.9642 58.2079 28.2391C58.2079 28.938 58.4459 29.582 58.8347 30.1081L58.7395 30.4458C58.7951 30.3515 58.8268 30.2495 58.8665 30.1552C59.168 30.5557 59.5647 30.8855 60.0249 31.1054C60.4454 35.3303 57.9381 43.6545 59.1521 44.9188L60.0805 45.8298L59.5568 46.2853C59.4378 46.3873 59.3663 46.5365 59.3663 46.6936C59.3663 46.8507 59.4298 46.9999 59.5409 47.1098L60.0805 47.6203C60.0805 47.6203 60.3978 48.3192 59.2711 48.7668C58.1365 49.2144 61.7388 65.2031 59.2553 67.2213L59.0014 71.6347C58.9061 71.3991 58.8109 71.1556 58.7157 70.9201C58.4539 70.2997 58.1682 69.7107 57.8508 69.1217C57.5335 68.5406 57.1843 67.9752 56.7876 67.4333C56.3909 66.8915 55.9307 66.3732 55.4467 65.9256C54.4866 65.0068 53.3758 64.2372 52.1697 63.6639C51.5746 63.3655 50.924 63.1613 50.2813 62.9885C49.6466 62.8472 48.9324 62.7294 48.2977 62.753C47.6391 62.7294 46.9726 62.8236 46.3299 62.9885C45.6952 63.1692 45.1159 63.4126 44.5605 63.7346C44.3304 63.766 44.1241 63.7974 43.9575 63.8288C44.7113 63.5225 47.5836 61.5514 46.7743 58.8029C46.2585 57.0674 44.8224 56.5177 43.2513 56.0622C43.1164 56.0229 47.9486 58.7165 43.894 63.7032C43.9337 59.7374 42.569 56.0544 40.7361 53.5807C46.3775 66.436 38.1732 68.0223 31.1036 62.8708C32.5873 66.0591 34.9756 68.3364 38.6652 68.3207C37.6496 73.7393 37.594 77.8621 42.323 82.6053C42.0373 81.3331 39.0222 77.2182 39.9426 72.098C40.5933 68.4464 42.2595 66.2789 44.3384 65.4701C47.7264 64.1586 51.4953 66.8522 53.2726 68.9568C54.4866 70.3939 55.2245 72.7184 55.4308 73.2995C55.8672 74.501 56.0338 75.302 56.7242 77.0532C57.4938 79.0008 57.6049 79.3699 57.9699 79.7625C58.7395 80.6028 59.6679 80.9012 61.1516 81.3724C62.675 81.8593 63.4844 81.9299 64.1191 81.8671C64.3651 81.8436 64.8491 81.7729 65.1824 82.0634C65.4521 82.2912 65.6267 82.7624 65.4601 83.1079C65.3886 83.265 65.2696 83.3592 65.2141 83.3985C65.0475 83.532 64.8412 83.6105 64.6349 83.6183C64.6269 83.7204 64.6031 83.8225 64.5476 83.9246C64.3572 84.2701 63.9446 84.4036 63.6034 84.2387C63.6351 84.3016 63.6431 84.3565 63.651 84.4115C63.651 84.4115 63.6589 84.6 63.5002 84.8041C63.0162 85.4245 61.2786 85.4716 61.2786 85.4716C59.9932 85.5031 59.5964 85.2361 58.9538 85.4952C58.8903 85.5188 58.5808 85.6444 57.9619 85.9193C57.7556 86.0135 57.0019 86.3826 55.9386 86.5161C55.6768 86.5475 55.5498 86.5711 55.3832 86.5632C54.3914 86.5082 53.0981 85.8564 52.7966 84.6235C52.5744 83.7283 52.9632 83.1314 53.0981 82.8959C53.0346 82.7388 52.6775 82.6446 52.5744 82.4797C51.9555 81.4509 52.5427 81.1446 51.9714 80.9405C50.6066 79.7311 49.3609 78.349 48.8055 77.5166C47.8851 76.1344 47.655 75.1057 47.5518 74.4303C47.4804 73.9513 47.4804 73.543 47.4963 73.2603C47.0837 74.1476 46.8377 75.9931 48.6785 78.349C51.2811 81.6708 53.7408 84.1995 50.6542 88.5107C49.0594 90.741 46.5442 90.8745 44.1003 90.686C40.3076 90.3876 36.261 87.961 34.2694 85.8329C32.5477 83.9953 30.7068 81.3645 29.5246 78.561C28.4058 75.8989 27.7552 73.4958 27.3981 70.6766C27.168 68.8704 27.057 67.2449 27.0173 65.0617C26.9538 61.0489 27.1442 60.8997 22.7564 60.7976C12.5923 60.5541 7.3714 48.4291 11.9576 40.1521C20.503 27.7444 36.0468 34.6079 33.9679 43.4974C35.1026 42.987 35.2613 41.974 35.3961 41.2201C39.5776 40.9295 40.7123 46.301 40.744 48.9081C40.744 49.4657 41.0455 49.6542 40.8948 50.2117C40.7758 50.8243 40.2045 51.1148 39.7443 51.798C38.8873 53.0624 37.713 54.6722 36.4276 55.7717C35.3485 56.6905 33.9838 57.2716 33.1824 57.5072C36.0785 57.091 38.2446 54.6879 39.895 52.9524C40.5615 51.7745 41.5216 51.7823 41.839 50.8478C42.1643 49.8976 41.9739 49.6856 41.839 48.3113C41.6406 46.301 41.4899 43.8822 40.5219 42.1546C39.1809 39.7594 37.6416 39.4217 36.0706 39.1704C34.6503 38.5893 34.7376 37.5292 33.6188 36.0842C29.3104 30.5243 20.5189 29.4013 14.4569 33.21C7.66498 37.4742 4.79268 46.2538 5.21321 55.4968C5.70515 66.169 10.3389 77.4773 14.2903 83.1157C30.0562 105.654 61.4293 113.789 90.073 92.7199L92.8024 90.7096C93.0881 90.3641 92.8897 90.0499 92.7072 89.8929L92.739 89.8772ZM75.7829 67.7318C70.9904 67.6689 67.8166 67.0721 67.166 66.6009C67.8245 66.1376 70.9984 65.5329 75.7829 65.4701V67.7239V67.7318ZM75.7829 64.5199C73.9579 64.5434 70.3557 64.6769 68.1023 65.2659L75.7829 42.0682V64.5199ZM76.743 67.7318V65.4779C81.5354 65.5408 84.7092 66.1376 85.3598 66.6088C84.7013 67.0721 81.5275 67.6768 76.743 67.7396V67.7318ZM76.743 64.5199V42.0682L84.4236 65.2659C82.1702 64.6769 78.5758 64.5434 76.743 64.5199ZM48.1549 38.393C45.0366 38.3537 42.9657 37.9611 42.5372 37.6548C42.9657 37.3486 45.0287 36.9638 48.1549 36.9166V38.3851V38.393ZM48.1549 36.2963C46.9647 36.312 44.624 36.3983 43.1482 36.7831L48.1549 21.6661V36.2963ZM48.7817 38.393V36.9245C51.9 36.9638 53.9709 37.3564 54.3993 37.6627C53.9709 37.9689 51.9079 38.3537 48.7817 38.4009V38.393ZM48.7817 36.2963V21.6661L53.7884 36.7831C52.3205 36.3983 49.9798 36.312 48.7817 36.2963ZM64.6666 81.2389C63.897 81.2782 62.8258 81.2467 61.6198 80.9326C60.3344 80.5949 59.2791 80.2416 58.438 79.3228C58.081 78.9301 57.9699 78.561 57.1923 76.6135C57.0019 76.1423 56.867 75.7654 56.7559 75.4512C56.2719 74.1162 55.9783 73.111 55.899 72.8597C55.5895 71.8624 54.8278 69.9149 53.7408 68.3757C53.4472 67.9595 50.4162 63.7896 45.7428 63.6718C45.3064 63.6639 44.9176 63.6875 44.5843 63.7267C44.862 63.6168 45.1556 63.554 45.4413 63.4833C45.7666 63.4205 46.0601 63.3341 46.3775 63.3105C47.0044 63.2556 47.6312 63.2477 48.2501 63.3498C48.9007 63.4205 49.4403 63.5775 50.0433 63.766C50.6146 63.978 51.17 64.2293 51.7016 64.5434C52.7648 65.1403 53.717 65.9413 54.566 66.8051C55.4229 67.6689 56.0576 68.6898 56.6448 69.7814C56.9304 70.3232 57.2002 70.8886 57.4224 71.4541C57.6525 72.0509 57.8905 72.6477 58.1444 73.2367L58.5253 74.1476L58.922 75.0193C59.2077 75.6161 59.4616 76.1737 59.771 76.7627C59.9297 77.0532 60.0805 77.3752 60.3661 77.705C60.4375 77.7836 60.5089 77.8542 60.5883 77.9249C60.6517 77.9799 60.6993 78.027 60.7787 78.0898C60.9294 78.2155 61.0723 78.3176 61.231 78.4197C61.8419 78.8202 62.5243 79.0479 63.1749 79.1971C63.8176 79.3463 64.4682 79.4798 65.1506 79.5348C65.8092 79.5898 66.4677 79.5662 67.1184 79.4877C67.2453 79.4877 67.3643 79.5112 67.4834 79.5583L67.531 79.5741C67.531 79.5741 67.5548 79.5819 67.5468 79.5741L67.5786 79.5898C67.6262 79.6133 67.65 79.629 67.6659 79.6369C67.7135 79.6683 67.769 79.7076 67.8166 79.7468C68.015 79.9117 68.1578 80.1866 68.1657 80.4065C68.1657 80.5164 68.1657 80.5086 68.1419 80.5871C68.1261 80.6499 68.0943 80.7049 68.0626 80.7598C67.9912 80.8776 67.888 80.9797 67.769 81.0661C67.523 81.2467 67.2057 81.3331 66.8883 81.3567H66.7931L66.7693 81.4274C66.6264 81.7729 66.2932 82.0399 65.8965 82.1498C65.7378 81.7022 65.3014 81.3096 64.6983 81.2075L64.6666 81.2389Z"
        fill="#358297" />
</svg>
