<svg width="168" height="43" viewBox="0 0 168 43" fill="none" xmlns="http://www.w3.org/2000/svg">
    <path
        d="M159.8 42.5712C159.354 42.5712 159.07 42.3685 158.949 41.963L157.55 36.0031C157.509 35.8409 157.408 35.7598 157.246 35.7598H145.873C145.711 35.7598 145.61 35.8409 145.569 36.0031L144.17 41.963C144.049 42.3685 143.785 42.5712 143.38 42.5712H136.021C135.494 42.5712 135.291 42.3076 135.413 41.7806L146.36 0.608159C146.481 0.20272 146.765 0 147.211 0H156.029C156.475 0 156.759 0.20272 156.881 0.608159L167.828 41.7806L167.889 42.0238C167.889 42.3887 167.666 42.5712 167.22 42.5712H159.8ZM147.211 28.766C147.171 28.8876 147.191 28.9889 147.272 29.07C147.353 29.1106 147.434 29.1308 147.515 29.1308H155.543C155.624 29.1308 155.705 29.1106 155.786 29.07C155.867 28.9889 155.888 28.8876 155.847 28.766L151.651 11.1293C151.61 10.9671 151.549 10.8861 151.468 10.8861C151.387 10.8861 151.326 10.9671 151.286 11.1293L147.211 28.766Z"
        fill="white" />
    <path
        d="M122.454 42.5712C122.251 42.5712 122.069 42.5104 121.906 42.3887C121.785 42.2266 121.724 42.0441 121.724 41.8414V0.729793C121.724 0.527073 121.785 0.364897 121.906 0.243264C122.069 0.0810881 122.251 0 122.454 0H129.569C129.772 0 129.934 0.0810881 130.056 0.243264C130.218 0.364897 130.299 0.527073 130.299 0.729793V41.8414C130.299 42.0441 130.218 42.2266 130.056 42.3887C129.934 42.5104 129.772 42.5712 129.569 42.5712H122.454Z"
        fill="white" />
    <path
        d="M87.6539 42.5712C87.4511 42.5712 87.2687 42.5104 87.1065 42.3887C86.9849 42.2266 86.9241 42.0441 86.9241 41.8414V0.729793C86.9241 0.527073 86.9849 0.364897 87.1065 0.243264C87.2687 0.0810881 87.4511 0 87.6539 0H94.7693C94.9721 0 95.1342 0.0810881 95.2559 0.243264C95.418 0.364897 95.4991 0.527073 95.4991 0.729793V16.9068C95.4991 17.0285 95.5397 17.1096 95.6208 17.1501C95.7424 17.1906 95.8235 17.1501 95.864 17.0285L106.75 0.486529C106.953 0.162176 107.237 0 107.602 0H115.447C115.731 0 115.913 0.0810881 115.994 0.243264C116.116 0.405441 116.095 0.60816 115.933 0.851424L104.682 18.3056C104.642 18.4272 104.642 18.5691 104.682 18.7313L116.602 41.7198C116.683 41.8819 116.724 42.0036 116.724 42.0847C116.724 42.409 116.501 42.5712 116.055 42.5712H108.27C107.906 42.5712 107.622 42.3887 107.419 42.0238L98.7832 25.3603C98.7426 25.2386 98.6818 25.1778 98.6007 25.1778C98.5197 25.1778 98.4386 25.2386 98.3575 25.3603L95.6208 29.3133C95.5397 29.4755 95.4991 29.5971 95.4991 29.6782V41.8414C95.4991 42.0441 95.418 42.2266 95.2559 42.3887C95.1342 42.5104 94.9721 42.5712 94.7693 42.5712H87.6539Z"
        fill="white" />
    <path
        d="M72.3585 42.5712C72.1557 42.5712 71.9733 42.5104 71.8111 42.3887C71.6895 42.2266 71.6287 42.0441 71.6287 41.8414V0.729793C71.6287 0.527073 71.6895 0.364897 71.8111 0.243264C71.9733 0.0810881 72.1557 0 72.3585 0H79.4739C79.6766 0 79.8388 0.0810881 79.9605 0.243264C80.1226 0.364897 80.2037 0.527073 80.2037 0.729793V41.8414C80.2037 42.0441 80.1226 42.2266 79.9605 42.3887C79.8388 42.5104 79.6766 42.5712 79.4739 42.5712H72.3585Z"
        fill="white" />
    <path
        d="M38.4918 42.5712C38.289 42.5712 38.1066 42.5104 37.9444 42.3887C37.8228 42.2266 37.762 42.0441 37.762 41.8414V0.729793C37.762 0.527073 37.8228 0.364897 37.9444 0.243264C38.1066 0.0810881 38.289 0 38.4918 0H51.5672C54.2836 0 56.6757 0.5068 58.7435 1.5204C60.8518 2.534 62.4735 3.97331 63.6087 5.83834C64.744 7.70336 65.3116 9.87246 65.3116 12.3456V30.2255C65.3116 32.6987 64.744 34.8678 63.6087 36.7328C62.4735 38.5979 60.8518 40.0372 58.7435 41.0508C56.6757 42.0644 54.2836 42.5712 51.5672 42.5712H38.4918ZM46.337 34.9084C46.337 35.1111 46.4384 35.2125 46.6411 35.2125L51.628 35.1516C53.1281 35.1516 54.3444 34.6246 55.277 33.5704C56.2095 32.4757 56.696 31.0364 56.7365 29.2525V13.3187C56.7365 11.4942 56.2703 10.0549 55.3378 9.00076C54.4053 7.90608 53.1687 7.35873 51.628 7.35873H46.6411C46.4384 7.35873 46.337 7.46009 46.337 7.66282V34.9084Z"
        fill="white" />
    <path
        d="M24.5559 42.5712C24.11 42.5712 23.8261 42.3685 23.7045 41.963L22.3057 36.0031C22.2652 35.8409 22.1638 35.7598 22.0017 35.7598H10.6291C10.4669 35.7598 10.3655 35.8409 10.325 36.0031L8.92623 41.963C8.8046 42.3685 8.54106 42.5712 8.13562 42.5712H0.77689C0.249818 42.5712 0.0470985 42.3076 0.16873 41.7806L11.1156 0.608159C11.2372 0.20272 11.521 0 11.967 0H20.7853C21.2313 0 21.5151 0.20272 21.6368 0.608159L32.5836 41.7806L32.6445 42.0238C32.6445 42.3887 32.4215 42.5712 31.9755 42.5712H24.5559ZM11.967 28.766C11.9265 28.8876 11.9468 28.9889 12.0278 29.07C12.1089 29.1106 12.19 29.1308 12.2711 29.1308H20.2988C20.3799 29.1308 20.461 29.1106 20.5421 29.07C20.6232 28.9889 20.6434 28.8876 20.6029 28.766L16.4066 11.1293C16.3661 10.9671 16.3052 10.8861 16.2241 10.8861C16.1431 10.8861 16.0822 10.9671 16.0417 11.1293L11.967 28.766Z"
        fill="white" />
</svg>
