<svg width="112" height="112" viewBox="0 0 112 112" fill="none" xmlns="http://www.w3.org/2000/svg">
    <path
        d="M55.748 111.5C86.5367 111.5 111.496 86.5399 111.496 55.75C111.496 24.9601 86.5367 0 55.748 0C24.9592 0 0 24.9601 0 55.75C0 86.5399 24.9592 111.5 55.748 111.5Z"
        fill="#F7E1D7" />
    <path
        d="M100.221 59.0984C99.9908 57.0829 99.8163 55.2183 99.2291 53.3536C98.999 52.6236 98.5785 51.8618 98.1659 51.3857C98.2928 55.0358 98.2294 59.7649 97.6184 64.3909C97.3962 65.8588 96.2695 67.6204 95.8649 68.517C95.2539 69.8739 93.3972 73.2779 93.5321 74.7379C93.6908 76.4756 94.7302 77.4595 95.6744 75.214C96.4044 73.4683 100.023 68.9693 100.372 67.3585C100.951 65.9461 101.03 65.4304 100.84 63.7482C100.665 62.2168 100.395 60.5981 100.221 59.0984Z"
        fill="#88AA7C" />
    <path
        d="M90.7394 69.4687C90.3585 70.4685 90.8743 72.5236 91.5487 72.2538C91.8978 72.111 92.4374 70.9842 93.0325 70.0876C94.064 68.5403 96.2301 64.5808 96.4919 63.1446C96.6744 62.1607 96.9521 57.503 96.9204 55.1701C96.9204 54.6147 96.8648 51.3456 96.0159 49.6713C95.4366 48.5287 94.3734 46.9814 93.4927 46.1641C92.6278 45.3548 92.0724 45.1723 92.6992 46.6243C95.1272 52.2977 94.6035 57.3681 94.1274 60.1929C93.5482 63.5969 91.9058 66.4376 90.7394 69.4766V69.4687Z"
        fill="#88AA7C" />
    <path
        d="M63.0003 5.90327C60.6279 5.55414 57.589 5.40338 54.2327 5.56208C37.8241 6.30795 26.0017 13.7111 17.353 25.1452C33.0555 8.11709 73.4342 7.33154 85.3836 32.6436C85.582 33.2625 85.1377 35.6906 84.7092 37.9599C84.2014 40.6657 83.7888 41.2925 84.5267 43.9269C85.2408 46.466 85.8121 47.077 86.8833 49.8225C86.8912 49.8621 86.9071 49.8939 86.9229 49.9335C88.2401 53.3376 88.8669 56.0275 89.4461 60.6694C89.5493 61.5025 90.1444 61.8596 90.6363 61.2724C92.9373 60.1457 92.6437 51.8538 92.0566 45.8154C91.9058 44.1253 93.6038 43.6333 95.0717 44.649C95.8572 45.1965 96.9839 46.6009 97.5314 47.3865C98.1423 48.2593 98.6502 49.2035 99.1024 50.2192C99.5468 51.2349 100.213 51.9649 100.499 53.1154C101.419 56.7972 101.673 61.3041 102.443 65.2715C102.641 66.4142 101.411 70.4927 104.046 71.5877C104.26 71.6749 104.625 71.7146 104.799 71.3179L105.347 68.0567C111.044 33.8179 89.8508 9.90242 62.9845 5.91914L63.0003 5.90327Z"
        fill="#88AA7C" />
    <path
        d="M37.0942 46.1006C36.753 46.1006 36.277 46.3624 35.912 46.418C35.42 46.5053 34.9281 46.3466 34.4758 46.1482C34.8249 46.5449 35.7692 47.4336 36.3484 46.9496C36.4119 46.8941 36.9197 46.6402 36.9911 46.6402C37.4433 46.5767 37.6258 47.4257 37.5386 47.8224C37.7528 47.1797 37.8797 46.1641 37.0942 46.1006Z"
        fill="#88AA7C" />
    <path
        d="M91.4456 79.7681C90.0491 80.3315 87.7877 83.6244 86.8277 84.8226C86.1929 85.6081 85.0979 87.4728 83.8602 88.3694C79.9246 91.107 75.64 93.3763 72.252 94.9712C72.8708 95.122 73.7595 95.1458 74.5292 95.0188C76.489 94.6856 78.2743 93.9635 80.2182 93.2335C81.6623 92.686 83.2571 92.1702 84.733 91.6148C86.3516 91.0038 86.788 90.6864 87.8116 89.4883C89.1207 88.4171 91.5884 82.9896 92.8579 81.4979C94.4766 79.5856 93.1118 79.0937 91.4535 79.7602L91.4456 79.7681Z"
        fill="#88AA7C" />
    <path
        d="M79.1551 87.1404C76.7906 88.902 72.4107 91.7585 66.1424 92.1949C64.5397 92.306 64.9523 92.7265 66.079 93.1392C67.2295 93.5597 69.1179 93.8136 70.4192 93.8136C72.3234 93.8136 75.3306 92.3219 75.8384 92.068C77.9728 91.0047 82.0988 88.5608 82.916 87.9339C84.1062 87.0135 86.7405 83.173 87.6847 81.4988C88.2322 80.5307 89.0177 79.4992 88.9939 79.1183C88.9383 78.3725 86.8277 78.8565 86.0898 79.6817C83.8444 82.1732 82.0036 85.0139 79.1551 87.1404Z"
        fill="#88AA7C" />
    <path
        d="M32.2777 48.4102C33.0791 50.0844 31.5319 51.108 30.2544 52.6156C33.6266 52.1792 33.9201 48.7593 32.2777 48.4102Z"
        fill="#88AA7C" />
    <path
        d="M92.739 90.8134C90.557 88.9091 87.3831 91.9481 86.2564 92.2973C82.2892 93.4557 78.068 95.3363 74.2912 96.2171C73.1169 96.4948 72.1489 96.225 71.0222 96.2885C69.8955 96.3519 68.8084 96.3281 67.7293 96.1774C66.7772 96.0425 64.9761 95.6695 64.1271 95.2093C62.5401 94.3444 62.2228 92.5512 63.8335 91.8926C66.7455 90.7024 70.673 88.9646 72.7281 87.7427C75.5766 86.0526 77.6872 83.3309 77.2904 82.6882C77.1714 82.4898 76.8064 82.4263 76.1955 82.5295C74.7831 82.7596 73.6644 83.4737 73.5691 83.5372C71.5062 84.8465 68.9909 85.2908 67.1739 85.0686C66.2853 84.9576 65.587 84.6878 65.1585 84.4894C65.2062 84.4656 65.8568 84.1403 65.9282 83.5134C65.9441 83.3627 65.9282 83.2119 65.8885 83.0691C66.2773 83.0294 66.674 82.8469 66.92 82.4898C67.2691 82.5136 67.6341 82.466 67.9674 82.2915C68.1419 82.1962 68.3086 82.0693 68.4434 81.9026C68.5069 81.8154 68.5704 81.7281 68.618 81.617C68.6656 81.5297 68.7053 81.3551 68.7132 81.2917C68.7608 80.8156 68.5783 80.403 68.3006 80.0776C68.2292 79.9983 68.1499 79.9269 68.0626 79.8555C68.015 79.8158 67.9674 79.7841 67.9356 79.7682L67.8642 79.7285L67.7928 79.6888C67.6024 79.5936 67.3961 79.5301 67.1818 79.4984H67.166H67.1104C66.4915 79.5143 65.8806 79.4587 65.2776 79.3635C64.6825 79.2683 64.0795 79.1017 63.4923 78.9192L64.1747 79.0937L63.6431 67.9056C61.1516 65.8664 64.7539 49.7111 63.6272 49.2588C62.4925 48.8065 62.8179 48.1003 62.8179 48.1003L63.3574 47.5846C63.4685 47.4735 63.532 47.3227 63.532 47.164C63.532 47.0053 63.4606 46.8546 63.3415 46.7514L62.8179 46.2912L63.7462 45.3708C64.9602 44.0933 62.4529 35.6824 62.8734 31.4134C63.1114 31.2944 63.3257 31.1516 63.524 30.985C66.6978 31.0088 72.3552 38.6182 72.3552 38.6182C73.1883 39.1816 74.3388 39.7133 75.5369 40.1735L66.9676 66.3345C66.4519 66.5885 66.1345 66.8979 66.1345 67.2788C66.1345 67.62 66.3963 67.8977 66.8169 68.1358C67.3961 71.5636 71.3713 74.2376 76.2748 74.3646C81.1784 74.2376 85.1535 71.5636 85.7328 68.1358C86.1533 67.8977 86.4151 67.62 86.4151 67.2788C86.4151 66.8979 86.1057 66.5885 85.582 66.3345L77.2032 40.7686C79.6073 41.5621 81.8052 42.062 81.8052 42.062C81.8052 42.062 79.282 39.4514 76.8937 37.6819L64.5714 29.3266C64.6349 29.0727 64.6825 28.8029 64.6825 28.5252C64.6825 27.4619 64.1588 26.5256 63.3653 25.9384H63.3733H63.3574C63.2543 25.8591 63.1432 25.7956 63.0242 25.7321C62.7464 25.4941 62.3894 25.01 62.2942 24.0341C62.1831 22.8756 63.8017 23.2644 62.7226 21.733C62.7226 21.733 63.04 21.1061 62.3973 20.876C62.3973 20.876 62.8099 20.6618 61.4531 17.7497C60.0963 20.6618 60.5089 20.876 60.5089 20.876C59.8662 21.1061 60.1836 21.733 60.1836 21.733C59.1045 23.2644 60.6279 22.8756 60.6121 24.0341C60.5883 25.2957 59.9297 25.7162 59.7472 25.8035C59.7472 25.8035 59.7393 25.8035 59.7313 25.8035C59.7075 25.8115 59.6996 25.8194 59.6996 25.8194C59.5488 25.9146 59.406 26.0336 59.2711 26.1527L49.9639 18.7495C47.7105 17.1704 44.497 15.9326 44.497 15.9326C44.497 15.9326 45.8697 18.7177 47.8534 20.7729L42.4023 37.4201C42.0611 37.5867 41.8628 37.793 41.8628 38.039C41.8628 38.2612 42.0373 38.4437 42.3071 38.5944C42.688 40.8241 45.2746 42.5698 48.4643 42.6571C51.6619 42.5777 54.2486 40.8321 54.6215 38.5944C54.8992 38.4357 55.0658 38.2532 55.0658 38.039C55.0658 37.793 54.8595 37.5867 54.5263 37.4201L49.4561 21.9551C51.2097 22.701 56.4068 25.0656 58.3111 27.7317C58.2476 27.9856 58.2079 28.2554 58.2079 28.5331C58.2079 29.2393 58.4459 29.89 58.8347 30.4216L58.7395 30.7628C58.7951 30.6676 58.8268 30.5644 58.8665 30.4692C59.168 30.8739 59.5647 31.2071 60.0249 31.4293C60.4454 35.6982 57.9381 44.1091 59.1521 45.3866L60.0805 46.3071L59.5568 46.7673C59.4378 46.8705 59.3663 47.0212 59.3663 47.1799C59.3663 47.3386 59.4298 47.4894 59.5409 47.6005L60.0805 48.1162C60.0805 48.1162 60.3978 48.8224 59.2711 49.2747C58.1365 49.727 61.7388 65.8823 59.2553 67.9215L59.0014 72.3809C58.9061 72.1428 58.8109 71.8969 58.7157 71.6588C58.4539 71.032 58.1682 70.4368 57.8508 69.8417C57.5335 69.2546 57.1843 68.6833 56.7876 68.1358C56.3909 67.5882 55.9307 67.0646 55.4467 66.6123C54.4866 65.6839 53.3758 64.9063 52.1697 64.327C51.5746 64.0255 50.924 63.8192 50.2813 63.6446C49.6466 63.5018 48.9324 63.3828 48.2977 63.4066C47.6391 63.3828 46.9726 63.478 46.3299 63.6446C45.6952 63.8271 45.1159 64.0731 44.5605 64.3985C44.3304 64.4302 44.1241 64.4619 43.9575 64.4937C44.7113 64.1842 47.5836 62.1926 46.7743 59.4154C46.2585 57.6618 44.8224 57.1064 43.2513 56.6461C43.1164 56.6065 47.9486 59.3281 43.894 64.3667C43.9337 60.3596 42.569 56.6382 40.7361 54.1387C46.3775 67.128 38.1732 68.7309 31.1036 63.5256C32.5873 66.7472 34.9756 69.0483 38.6652 69.0324C37.6496 74.5074 37.594 78.6732 42.323 83.4658C42.0373 82.1804 39.0222 78.0225 39.9426 72.849C40.5933 69.1593 42.2595 66.9693 44.3384 66.1521C47.7264 64.8269 51.4953 67.5486 53.2726 69.6751C54.4866 71.1272 55.2245 73.4759 55.4308 74.0631C55.8672 75.2771 56.0338 76.0864 56.7242 77.8559C57.4938 79.8237 57.6049 80.1967 57.9699 80.5934C58.7395 81.4424 59.6679 81.744 61.1516 82.22C62.675 82.712 63.4844 82.7834 64.1191 82.7199C64.3651 82.6961 64.8491 82.6247 65.1824 82.9183C65.4521 83.1484 65.6267 83.6245 65.4601 83.9736C65.3886 84.1323 65.2696 84.2276 65.2141 84.2672C65.0475 84.4021 64.8412 84.4815 64.6349 84.4894C64.6269 84.5926 64.6031 84.6957 64.5476 84.7989C64.3572 85.148 63.9446 85.2829 63.6034 85.1162C63.6351 85.1797 63.6431 85.2353 63.651 85.2908C63.651 85.2908 63.6589 85.4812 63.5002 85.6876C63.0162 86.3144 61.2786 86.362 61.2786 86.362C59.9932 86.3938 59.5964 86.124 58.9538 86.3858C58.8903 86.4096 58.5808 86.5366 57.9619 86.8143C57.7556 86.9095 57.0019 87.2825 55.9386 87.4173C55.6768 87.4491 55.5498 87.4729 55.3832 87.465C54.3914 87.4094 53.0981 86.7508 52.7966 85.5051C52.5744 84.6005 52.9632 83.9974 53.0981 83.7594C53.0346 83.6007 52.6775 83.5055 52.5744 83.3389C51.9555 82.2994 52.5427 81.9899 51.9714 81.7836C50.6066 80.5617 49.3609 79.1651 48.8055 78.324C47.8851 76.9275 47.655 75.8881 47.5518 75.2057C47.4804 74.7216 47.4804 74.309 47.4963 74.0234C47.0837 74.92 46.8377 76.7847 48.6785 79.1651C51.2811 82.5216 53.7408 85.0766 50.6542 89.4328C49.0594 91.6863 46.5442 91.8212 44.1003 91.6307C40.3076 91.3292 36.261 88.8773 34.2694 86.727C32.5477 84.8703 30.7068 82.2121 29.5246 79.3794C28.4058 76.6895 27.7552 74.2614 27.3981 71.4128C27.168 69.5878 27.057 67.9453 27.0173 65.7394C26.9538 61.6847 27.1442 61.534 22.7564 61.4308C12.5923 61.1849 7.3714 48.9335 11.9576 40.5702C20.503 28.0332 36.0468 34.9682 33.9679 43.9504C35.1026 43.4347 35.2613 42.4111 35.3961 41.6493C39.5776 41.3558 40.7123 46.7832 40.744 49.4175C40.744 49.9809 41.0455 50.1713 40.8948 50.7347C40.7758 51.3536 40.2045 51.6472 39.7443 52.3375C38.8873 53.615 37.713 55.2417 36.4276 56.3526C35.3485 57.2809 33.9838 57.8681 33.1824 58.1061C36.0785 57.6856 38.2446 55.2575 39.895 53.504C40.5615 52.3137 41.5216 52.3217 41.839 51.3774C42.1643 50.4173 41.9739 50.2031 41.839 48.8145C41.6406 46.7832 41.4899 44.3392 40.5219 42.5936C39.1809 40.1735 37.6416 39.8323 36.0706 39.5784C34.6503 38.9912 34.7376 37.92 33.6188 36.46C29.3104 30.8421 20.5189 29.7075 14.4569 33.5558C7.66498 37.8644 4.79268 46.7356 5.21321 56.0748C5.70515 66.8582 10.3389 78.2844 14.2903 83.9816C30.0562 106.754 61.4293 114.975 90.073 93.6858L92.8024 91.6545C93.0881 91.3054 92.8897 90.988 92.7072 90.8293L92.739 90.8134ZM75.7829 68.4373C70.9904 68.3738 67.8166 67.7707 67.166 67.2947C67.8245 66.8265 70.9984 66.2155 75.7829 66.1521V68.4293V68.4373ZM75.7829 65.1919C73.9579 65.2157 70.3557 65.3506 68.1023 65.9457L75.7829 42.5063V65.1919ZM76.743 68.4373V66.16C81.5354 66.2235 84.7092 66.8265 85.3598 67.3026C84.7013 67.7707 81.5275 68.3817 76.743 68.4452V68.4373ZM76.743 65.1919V42.5063L84.4236 65.9457C82.1702 65.3506 78.5758 65.2157 76.743 65.1919ZM48.1549 38.7928C45.0366 38.7531 42.9657 38.3564 42.5372 38.0469C42.9657 37.7375 45.0287 37.3487 48.1549 37.3011V38.7849V38.7928ZM48.1549 36.6742C46.9647 36.6901 44.624 36.7774 43.1482 37.1662L48.1549 21.8917V36.6742ZM48.7817 38.7928V37.309C51.9 37.3487 53.9709 37.7454 54.3993 38.0549C53.9709 38.3643 51.9079 38.7531 48.7817 38.8007V38.7928ZM48.7817 36.6742V21.8917L53.7884 37.1662C52.3205 36.7774 49.9798 36.6901 48.7817 36.6742ZM64.6666 82.0852C63.897 82.1248 62.8258 82.0931 61.6198 81.7757C60.3344 81.4345 59.2791 81.0774 58.438 80.1491C58.081 79.7523 57.9699 79.3794 57.1923 77.4115C57.0019 76.9355 56.867 76.5546 56.7559 76.2372C56.2719 74.8883 55.9783 73.8726 55.899 73.6187C55.5895 72.611 54.8278 70.6432 53.7408 69.0879C53.4472 68.6674 50.4162 64.454 45.7428 64.335C45.3064 64.327 44.9176 64.3508 44.5843 64.3905C44.862 64.2794 45.1556 64.216 45.4413 64.1445C45.7666 64.0811 46.0601 63.9938 46.3775 63.97C47.0044 63.9144 47.6312 63.9065 48.2501 64.0096C48.9007 64.0811 49.4403 64.2398 50.0433 64.4302C50.6146 64.6444 51.17 64.8983 51.7016 65.2157C52.7648 65.8188 53.717 66.6281 54.566 67.501C55.4229 68.3738 56.0576 69.4053 56.6448 70.5083C56.9304 71.0558 57.2002 71.6271 57.4224 72.1984C57.6525 72.8014 57.8905 73.4045 58.1444 73.9996L58.5253 74.92L58.922 75.8008C59.2077 76.4038 59.4616 76.9672 59.771 77.5623C59.9297 77.8559 60.0805 78.1812 60.3661 78.5145C60.4375 78.5938 60.5089 78.6652 60.5883 78.7367C60.6517 78.7922 60.6993 78.8398 60.7787 78.9033C60.9294 79.0303 61.0723 79.1334 61.231 79.2366C61.8419 79.6412 62.5243 79.8713 63.1749 80.0221C63.8176 80.1729 64.4682 80.3078 65.1506 80.3633C65.8092 80.4188 66.4677 80.395 67.1184 80.3157C67.2453 80.3157 67.3643 80.3395 67.4834 80.3871L67.531 80.403C67.531 80.403 67.5548 80.4109 67.5468 80.403L67.5786 80.4188C67.6262 80.4426 67.65 80.4585 67.6659 80.4665C67.7135 80.4982 67.769 80.5379 67.8166 80.5775C68.015 80.7442 68.1578 81.0219 68.1657 81.2441C68.1657 81.3551 68.1657 81.3472 68.1419 81.4266C68.1261 81.49 68.0943 81.5456 68.0626 81.6011C67.9912 81.7202 67.888 81.8233 67.769 81.9106C67.523 82.0931 67.2057 82.1804 66.8883 82.2042H66.7931L66.7693 82.2756C66.6264 82.6247 66.2932 82.8945 65.8965 83.0056C65.7378 82.5533 65.3014 82.1566 64.6983 82.0534L64.6666 82.0852Z"
        fill="#88AA7C" />
</svg>
