<svg width="170" height="77" viewBox="0 0 170 77" fill="none" xmlns="http://www.w3.org/2000/svg">
    <path
        d="M170 54.3405C170 54.5652 169.888 54.6775 169.663 54.6775H156.889C156.799 54.6775 156.754 54.7225 156.754 54.8124V63.9127C156.754 64.0026 156.799 64.0475 156.889 64.0475H165.955C166.18 64.0475 166.293 64.1599 166.293 64.3846V65.2946C166.293 65.5193 166.18 65.6317 165.955 65.6317H156.889C156.799 65.6317 156.754 65.6766 156.754 65.7665V74.9679C156.754 75.0578 156.799 75.1028 156.889 75.1028H169.663C169.888 75.1028 170 75.2151 170 75.4398V76.3498C170 76.5745 169.888 76.6869 169.663 76.6869H155.305C155.08 76.6869 154.968 76.5745 154.968 76.3498V53.4304C154.968 53.2057 155.08 53.0934 155.305 53.0934H169.663C169.888 53.0934 170 53.2057 170 53.4304V54.3405Z"
        fill="#F7E1D7" />
    <path
        d="M131.663 76.9902C130.135 76.9902 128.787 76.6869 127.619 76.0802C126.45 75.4735 125.54 74.6196 124.889 73.5186C124.26 72.3951 123.945 71.1143 123.945 69.6763V60.0703C123.945 58.6322 124.26 57.3739 124.889 56.2954C125.54 55.1943 126.45 54.3405 127.619 53.7338C128.787 53.1271 130.135 52.8238 131.663 52.8238C133.169 52.8238 134.506 53.1271 135.674 53.7338C136.843 54.318 137.742 55.1494 138.371 56.228C139.022 57.3065 139.348 58.5536 139.348 59.9692V60.0029C139.348 60.1153 139.314 60.2051 139.247 60.2726C139.18 60.34 139.101 60.3737 139.011 60.3737L137.899 60.4411C137.674 60.4411 137.562 60.3287 137.562 60.104V60.0029C137.562 58.3177 137.022 56.9695 135.944 55.9583C134.865 54.9247 133.439 54.4079 131.663 54.4079C129.866 54.4079 128.428 54.9247 127.349 55.9583C126.271 56.9695 125.731 58.3177 125.731 60.0029V69.7774C125.731 71.4626 126.271 72.8221 127.349 73.8557C128.45 74.8893 129.888 75.4061 131.663 75.4061C133.439 75.4061 134.865 74.8893 135.944 73.8557C137.022 72.8221 137.562 71.4626 137.562 69.7774V69.71C137.562 69.5077 137.674 69.4066 137.899 69.4066L139.011 69.474C139.236 69.474 139.348 69.5751 139.348 69.7774C139.348 71.193 139.022 72.4513 138.371 73.5523C137.742 74.6309 136.843 75.4735 135.674 76.0802C134.506 76.6869 133.169 76.9902 131.663 76.9902Z"
        fill="#F7E1D7" />
    <path
        d="M106.293 53.4304C106.293 53.2057 106.405 53.0934 106.63 53.0934H107.742C107.967 53.0934 108.079 53.2057 108.079 53.4304V76.3498C108.079 76.5745 107.967 76.6869 107.742 76.6869H106.63C106.473 76.6869 106.338 76.6083 106.226 76.451L94.0245 56.6661C94.002 56.5987 93.9683 56.5762 93.9234 56.5987C93.8784 56.5987 93.8559 56.6324 93.8559 56.6998V76.3498C93.8559 76.5745 93.7436 76.6869 93.5189 76.6869H92.4066C92.1819 76.6869 92.0696 76.5745 92.0696 76.3498V53.4304C92.0696 53.2057 92.1819 53.0934 92.4066 53.0934H93.5526C93.7099 53.0934 93.8447 53.172 93.9571 53.3293L106.125 73.1142C106.147 73.1816 106.181 73.2153 106.226 73.2153C106.271 73.1928 106.293 73.1479 106.293 73.0805V53.4304Z"
        fill="#F7E1D7" />
    <path
        d="M76.1661 76.6869C75.9639 76.6869 75.8291 76.597 75.7617 76.4173L74.3123 71.9345C74.2899 71.8671 74.2449 71.8334 74.1775 71.8334H63.6616C63.5942 71.8334 63.5492 71.8671 63.5267 71.9345L62.1111 76.4173C62.0437 76.597 61.9089 76.6869 61.7067 76.6869H60.527C60.2798 76.6869 60.1899 76.5633 60.2574 76.3161L67.7399 53.363C67.8073 53.1833 67.9421 53.0934 68.1443 53.0934H69.661C69.8633 53.0934 69.9981 53.1833 70.0655 53.363L77.5817 76.3161L77.6154 76.451C77.6154 76.6083 77.5143 76.6869 77.3121 76.6869H76.1661ZM64.066 70.1818C64.0435 70.2268 64.0435 70.2717 64.066 70.3166C64.111 70.3391 64.1559 70.3504 64.2008 70.3504H73.6382C73.6832 70.3504 73.7169 70.3391 73.7394 70.3166C73.7843 70.2717 73.7955 70.2268 73.7731 70.1818L69.0207 55.5202C68.9982 55.4752 68.9645 55.4527 68.9195 55.4527C68.8746 55.4527 68.8409 55.4752 68.8184 55.5202L64.066 70.1818Z"
        fill="#F7E1D7" />
    <path
        d="M44.5415 76.6869C44.3393 76.6869 44.2044 76.6083 44.137 76.451L38.9802 65.7328C38.9577 65.6654 38.9128 65.6317 38.8454 65.6317H32.4751C32.3852 65.6317 32.3403 65.6766 32.3403 65.7665V76.3498C32.3403 76.5745 32.2279 76.6869 32.0032 76.6869H30.891C30.6663 76.6869 30.5539 76.5745 30.5539 76.3498V53.4304C30.5539 53.2057 30.6663 53.0934 30.891 53.0934H39.3846C41.2721 53.0934 42.7888 53.6776 43.9348 54.8461C45.1032 56.0145 45.6875 57.5425 45.6875 59.4299C45.6875 61.0253 45.2493 62.3735 44.373 63.4745C43.4966 64.5531 42.317 65.2272 40.8339 65.4968C40.7216 65.5418 40.6879 65.598 40.7328 65.6654L45.8897 76.2824C45.9122 76.3274 45.9234 76.3836 45.9234 76.451C45.9234 76.6083 45.8335 76.6869 45.6538 76.6869H44.5415ZM32.4751 54.6775C32.3852 54.6775 32.3403 54.7225 32.3403 54.8124V64.0138C32.3403 64.1037 32.3852 64.1486 32.4751 64.1486H39.2161C40.6092 64.1486 41.7327 63.7105 42.5866 62.8341C43.4629 61.9578 43.9011 60.8231 43.9011 59.4299C43.9011 58.0143 43.4629 56.8684 42.5866 55.992C41.7327 55.1157 40.6092 54.6775 39.2161 54.6775H32.4751Z"
        fill="#F7E1D7" />
    <path
        d="M16.5561 54.3405C16.5561 54.5652 16.4437 54.6775 16.219 54.6775H3.47853C3.38865 54.6775 3.34371 54.7225 3.34371 54.8124V63.9127C3.34371 64.0026 3.38865 64.0475 3.47853 64.0475H12.5115C12.7362 64.0475 12.8485 64.1599 12.8485 64.3846V65.2946C12.8485 65.5193 12.7362 65.6317 12.5115 65.6317H3.47853C3.38865 65.6317 3.34371 65.6766 3.34371 65.7665V76.3498C3.34371 76.5745 3.23136 76.6869 3.00666 76.6869H1.89439C1.66969 76.6869 1.55734 76.5745 1.55734 76.3498V53.4304C1.55734 53.2057 1.66969 53.0934 1.89439 53.0934H16.219C16.4437 53.0934 16.5561 53.2057 16.5561 53.4304V54.3405Z"
        fill="#F7E1D7" />
    <path
        d="M159.8 42.5712C159.354 42.5712 159.07 42.3685 158.949 41.963L157.55 36.0031C157.509 35.8409 157.408 35.7598 157.246 35.7598H145.873C145.711 35.7598 145.61 35.8409 145.569 36.0031L144.17 41.963C144.049 42.3685 143.785 42.5712 143.38 42.5712H136.021C135.494 42.5712 135.291 42.3076 135.413 41.7806L146.36 0.608159C146.481 0.20272 146.765 0 147.211 0H156.029C156.475 0 156.759 0.20272 156.881 0.608159L167.828 41.7806L167.889 42.0238C167.889 42.3887 167.666 42.5712 167.22 42.5712H159.8ZM147.211 28.766C147.171 28.8876 147.191 28.9889 147.272 29.07C147.353 29.1106 147.434 29.1309 147.515 29.1309H155.543C155.624 29.1309 155.705 29.1106 155.786 29.07C155.867 28.9889 155.887 28.8876 155.847 28.766L151.651 11.1293C151.61 10.9671 151.549 10.8861 151.468 10.8861C151.387 10.8861 151.326 10.9671 151.286 11.1293L147.211 28.766Z"
        fill="white" />
    <path
        d="M122.453 42.5712C122.251 42.5712 122.068 42.5104 121.906 42.3887C121.785 42.2266 121.724 42.0441 121.724 41.8414V0.729793C121.724 0.527073 121.785 0.364897 121.906 0.243264C122.068 0.0810881 122.251 0 122.453 0H129.569C129.772 0 129.934 0.0810881 130.055 0.243264C130.218 0.364897 130.299 0.527073 130.299 0.729793V41.8414C130.299 42.0441 130.218 42.2266 130.055 42.3887C129.934 42.5104 129.772 42.5712 129.569 42.5712H122.453Z"
        fill="white" />
    <path
        d="M87.6537 42.5712C87.451 42.5712 87.2685 42.5104 87.1063 42.3887C86.9847 42.2266 86.9239 42.0441 86.9239 41.8414V0.729793C86.9239 0.527073 86.9847 0.364897 87.1063 0.243264C87.2685 0.0810881 87.451 0 87.6537 0H94.7692C94.9719 0 95.134 0.0810881 95.2557 0.243264C95.4179 0.364897 95.4989 0.527073 95.4989 0.729793V16.9068C95.4989 17.0285 95.5395 17.1096 95.6206 17.1501C95.7422 17.1906 95.8233 17.1501 95.8638 17.0285L106.75 0.486529C106.953 0.162176 107.236 0 107.601 0H115.447C115.73 0 115.913 0.0810881 115.994 0.243264C116.116 0.405441 116.095 0.60816 115.933 0.851423L104.682 18.3056C104.642 18.4272 104.642 18.5691 104.682 18.7313L116.602 41.7198C116.683 41.8819 116.724 42.0036 116.724 42.0847C116.724 42.409 116.501 42.5712 116.055 42.5712H108.27C107.905 42.5712 107.622 42.3887 107.419 42.0238L98.783 25.3603C98.7425 25.2386 98.6816 25.1778 98.6006 25.1778C98.5195 25.1778 98.4384 25.2386 98.3573 25.3603L95.6206 29.3133C95.5395 29.4755 95.4989 29.5971 95.4989 29.6782V41.8414C95.4989 42.0441 95.4179 42.2266 95.2557 42.3887C95.134 42.5104 94.9719 42.5712 94.7692 42.5712H87.6537Z"
        fill="white" />
    <path
        d="M72.3585 42.5712C72.1557 42.5712 71.9733 42.5104 71.8111 42.3887C71.6895 42.2266 71.6287 42.0441 71.6287 41.8414V0.729793C71.6287 0.527073 71.6895 0.364897 71.8111 0.243264C71.9733 0.0810881 72.1557 0 72.3585 0H79.4739C79.6766 0 79.8388 0.0810881 79.9605 0.243264C80.1226 0.364897 80.2037 0.527073 80.2037 0.729793V41.8414C80.2037 42.0441 80.1226 42.2266 79.9605 42.3887C79.8388 42.5104 79.6766 42.5712 79.4739 42.5712H72.3585Z"
        fill="white" />
    <path
        d="M38.4916 42.5712C38.2889 42.5712 38.1064 42.5104 37.9442 42.3887C37.8226 42.2266 37.7618 42.0441 37.7618 41.8414V0.729793C37.7618 0.527073 37.8226 0.364897 37.9442 0.243264C38.1064 0.0810881 38.2889 0 38.4916 0H51.567C54.2834 0 56.6755 0.5068 58.7433 1.5204C60.8516 2.534 62.4733 3.97331 63.6086 5.83834C64.7438 7.70336 65.3114 9.87246 65.3114 12.3456V30.2255C65.3114 32.6987 64.7438 34.8678 63.6086 36.7328C62.4733 38.5979 60.8516 40.0372 58.7433 41.0508C56.6755 42.0644 54.2834 42.5712 51.567 42.5712H38.4916ZM46.3368 34.9084C46.3368 35.1111 46.4382 35.2125 46.6409 35.2125L51.6278 35.1516C53.128 35.1516 54.3443 34.6246 55.2768 33.5704C56.2093 32.4757 56.6958 31.0364 56.7364 29.2525V13.3187C56.7364 11.4942 56.2701 10.0549 55.3376 9.00076C54.4051 7.90608 53.1685 7.35873 51.6278 7.35873H46.6409C46.4382 7.35873 46.3368 7.46009 46.3368 7.66281V34.9084Z"
        fill="white" />
    <path
        d="M24.5558 42.5712C24.1099 42.5712 23.8261 42.3685 23.7044 41.963L22.3057 36.0031C22.2651 35.8409 22.1637 35.7598 22.0016 35.7598H10.629C10.4668 35.7598 10.3655 35.8409 10.3249 36.0031L8.92614 41.963C8.80451 42.3685 8.54097 42.5712 8.13553 42.5712H0.776798C0.249727 42.5712 0.047007 42.3076 0.168639 41.7806L11.1155 0.608159C11.2371 0.20272 11.521 0 11.9669 0H20.7853C21.2312 0 21.515 0.20272 21.6367 0.608159L32.5836 41.7806L32.6444 42.0238C32.6444 42.3887 32.4214 42.5712 31.9754 42.5712H24.5558ZM11.9669 28.766C11.9264 28.8876 11.9467 28.9889 12.0278 29.07C12.1088 29.1106 12.1899 29.1309 12.271 29.1309H20.2987C20.3798 29.1309 20.4609 29.1106 20.542 29.07C20.6231 28.9889 20.6434 28.8876 20.6028 28.766L16.4065 11.1293C16.366 10.9671 16.3051 10.8861 16.2241 10.8861C16.143 10.8861 16.0822 10.9671 16.0416 11.1293L11.9669 28.766Z"
        fill="white" />
</svg>
