<svg width="94" height="85" viewBox="0 0 94 85" fill="none" xmlns="http://www.w3.org/2000/svg">
    <g opacity="0.5">
        <path
            d="M38.9093 41.8081C38.6736 41.8081 38.5895 41.6398 38.5895 41.4041L44.2787 17.0649C44.3629 16.6609 44.6827 16.6609 44.7669 17.0649L50.0522 41.4041C50.0522 41.6398 49.968 41.8081 49.7323 41.8081H38.9093ZM49.2442 0.451595C48.3016 1.41103 47.157 2.15164 45.9115 2.6566C45.5916 2.74076 45.5075 2.82492 45.4233 3.14473L33.7755 52.143C32.9002 56.0649 31.7388 56.7887 28.6417 57.0243C28.4229 57.0075 28.2546 57.1758 28.2377 57.3778C28.2377 57.3946 28.2377 57.4115 28.2377 57.4283V58.3204C28.2209 58.5392 28.3892 58.7076 28.5912 58.7244C28.608 58.7244 28.6249 58.7244 28.6249 58.7244H39.7677C39.9866 58.7412 40.1549 58.5729 40.1717 58.3709C40.1717 58.3541 40.1717 58.3372 40.1717 58.3204V57.4115C40.1885 57.1927 40.0202 57.0243 39.8182 57.0075C39.8014 57.0075 39.7846 57.0075 39.7677 57.0075C35.6102 57.0075 35.2062 55.7788 36.0142 52.3618L37.9667 43.9795C38.0172 43.7438 38.2192 43.5755 38.4548 43.5755H50.1027C50.3383 43.5755 50.5403 43.7438 50.5908 43.9795L52.7621 54.0787C53.2503 56.2501 52.4423 56.7719 49.665 57.0075C49.4462 56.9907 49.2779 57.159 49.261 57.361C49.261 57.3778 49.261 57.3946 49.261 57.4115V58.3036C49.2442 58.5224 49.4125 58.6907 49.6145 58.7076C49.6314 58.7076 49.6482 58.7076 49.665 58.7076H66.0427C66.2615 58.7244 66.4298 58.5561 66.4466 58.3541C66.4466 58.3372 66.4466 58.3204 66.4466 58.3036V57.4115C66.4635 57.1927 66.2952 57.0243 66.0932 57.0075C66.0763 57.0075 66.0595 57.0075 66.0427 57.0075C63.5179 56.7719 62.4574 56.3511 61.9693 54.0787L49.7323 0.619916C49.6482 0.384267 49.4125 0.300106 49.2442 0.451595Z"
            fill="#E7131A" />
        <path
            d="M17.97 75.8095C16.9265 75.8095 16.0344 76.6007 14.9234 78.1324C14.4016 78.8393 13.7452 79.8661 13.459 80.3037C13.2907 80.5225 13.1561 80.4889 13.2571 80.2532L14.0313 78.267L16.8086 70.6421C16.9433 70.3223 15.8324 69.952 15.6304 70.3223V70.3559C15.1591 71.3659 14.267 71.7025 12.6848 71.6352C11.1025 71.5847 7.92127 70.7094 5.51428 70.7094C2.50133 70.7094 0.818115 72.561 0.818115 74.7491C0.818115 75.9779 1.62606 76.769 2.70331 76.7353C3.20828 76.769 3.64591 76.4323 3.7469 75.9442C3.81423 75.6581 3.64591 75.3719 3.3766 75.3046C3.2756 75.2709 3.17461 75.2878 3.07362 75.3214C2.0132 75.5402 1.64289 74.7996 1.64289 74.2442C1.64289 72.8808 2.80431 71.8708 5.22813 71.8708C5.85092 71.8708 7.06283 72.0223 8.3589 72.157C6.72619 77.072 5.07664 81.6335 4.67267 82.7107C4.58851 83.0137 4.36969 83.2493 4.08355 83.3335C3.49442 83.5187 3.30927 83.5355 2.93896 83.6197C2.3835 83.7543 2.4845 84.2088 2.87163 84.1919C3.56175 84.1583 4.47068 84.0573 5.17763 84.0573C6.0529 84.0573 7.61829 84.1246 7.85394 84.1414C8.29158 84.1751 8.34207 83.6533 7.9886 83.586C7.73612 83.5523 7.31531 83.485 6.91134 83.4177C6.44004 83.3672 6.28855 83.1652 6.38955 82.778C6.6252 82.1384 9.43616 74.0253 9.99162 72.3253C10.8669 72.4263 11.6075 72.5105 12.0956 72.5441C13.1056 72.6114 14.0818 72.5441 14.9234 71.9382L12.7016 78.2165L10.7491 83.586C10.4124 84.4613 11.658 84.5286 11.9441 83.99C12.8867 82.1048 13.9977 80.3037 15.2601 78.6037C16.068 77.4254 16.8255 76.7185 17.3473 76.7185C17.7512 76.7185 17.9869 76.9373 17.9869 77.4423C17.9869 78.0987 17.6839 79.1255 17.0443 80.876C16.2195 83.1484 15.8997 83.7543 15.6304 83.7711C15.3611 83.788 14.8224 83.1147 14.5363 83.0305C14.2501 82.9464 13.9472 83.081 13.8125 83.3503C13.661 83.6028 13.762 84.4276 15.0076 84.4949C16.4888 84.5623 17.7681 83.0474 18.6433 80.6067C19.2493 78.9572 19.4008 78.0987 19.4008 77.5096C19.4176 76.3482 18.8621 75.8095 17.97 75.8095ZM43.1846 83.687C42.242 83.4682 41.8717 83.1147 41.8717 82.7444L41.9053 81.9701C41.9053 81.3978 42.343 73.0491 42.4439 71.8035C42.5113 70.8777 41.4677 70.9282 41.03 71.4669L40.1548 72.5778C39.0775 73.9244 34.7685 79.4789 32.6813 82.0879C32.0922 82.8117 31.3179 83.3503 30.4258 83.6533C30.0723 83.7375 30.106 84.1078 30.4931 84.1078C30.7961 84.1078 31.7219 84.0068 32.3952 84.0068C33.0685 84.0068 34.3309 84.0573 34.6338 84.0741C34.9537 84.091 35.0715 83.7375 34.6338 83.6365C33.7586 83.384 33.3209 83.1989 33.3209 82.98C33.3209 82.7612 33.5229 82.4414 33.9942 81.785C34.3645 81.2632 35.2398 80.1186 36.2161 78.8225H40.4073C40.3231 80.5899 40.2053 82.4414 40.1884 82.8117C40.1884 83.0474 40.0201 83.2662 39.7845 83.2998L38.8419 83.5692C38.5894 83.6365 38.4716 84.1246 38.8755 84.1078C39.8013 84.0573 40.5588 83.9731 40.9627 83.9731C41.5687 83.9731 42.5954 84.1078 43.0667 84.1246C43.6054 84.1583 43.538 83.7711 43.1846 83.687ZM40.5756 76.9373C40.5756 77.2739 40.5419 77.6274 40.5251 78.0146H36.9398C38.6062 75.8096 40.3736 73.4867 40.5251 73.2679C40.6766 73.0491 40.8112 73.1669 40.7944 73.3184C40.7271 74.16 40.6261 75.6412 40.5756 76.9373ZM24.8039 75.9274C23.2048 75.86 21.4206 77.7116 20.579 80.5057C19.7543 83.1989 20.6632 84.3266 21.6731 84.3266C22.4137 84.3266 23.6425 83.3672 24.3158 82.2731C24.5514 81.8859 24.3663 81.482 24.0128 81.8859C23.5583 82.3741 22.9355 82.9127 22.2791 82.7949C21.8414 82.7275 21.4375 81.9701 22.0771 80.1017C23.6256 80.0344 25.4267 79.1423 25.898 77.6947C26.2851 76.4155 25.4603 75.9442 24.8039 75.9274ZM24.9722 77.2908C24.5851 78.4354 23.2385 79.378 22.2622 79.6136C23.2048 77.1393 24.0969 76.466 24.6692 76.4828C24.9722 76.4997 25.1069 76.8531 24.9722 77.2908ZM48.453 76.8531H49.9342C50.2709 76.8531 50.4224 76.769 50.5065 76.5165C50.6412 76.1967 50.557 76.062 50.2372 76.062H48.756L49.4798 74.16C49.5639 73.9075 49.4798 73.7729 49.3283 73.7729H48.554C48.352 73.7729 48.2847 73.8234 48.1837 74.0927L47.4094 76.0789H46.2312C46.0629 76.0789 45.9282 76.0452 45.8272 76.5333C45.7935 76.769 45.8272 76.87 46.0629 76.87H47.1064L45.3222 81.5156C45.0361 82.1889 44.8004 82.8622 44.5816 83.5523C44.4806 84.1919 44.8678 84.4613 45.3391 84.3603C46.2817 84.1919 47.6114 83.2157 48.8233 81.7008C49.16 81.2632 48.8738 80.9938 48.554 81.3305C48.049 81.8186 47.5272 82.2899 46.9549 82.7107C46.4837 83.0305 46.248 82.7949 46.3995 82.3404L48.453 76.8531ZM65.0158 76.4155C65.1168 76.163 64.7633 76.0789 63.9217 75.9274C63.6692 75.8769 63.5178 76.1462 63.0801 77.072C62.7098 76.6175 62.1375 76.3818 61.5484 76.4492C60.2018 76.4828 58.5523 77.6947 57.1889 79.5463C56.1116 81.0275 55.775 82.0711 55.977 83.1652C56.0948 83.8048 56.6671 84.2761 57.3235 84.2593C58.3335 84.2929 59.3434 83.3335 60.3702 82.2899L61.0098 81.6503C61.1949 81.4651 61.3632 81.583 61.2454 81.8018C60.9088 82.3741 60.6395 82.98 60.4206 83.6197C60.286 84.2593 60.6395 84.4276 61.1276 84.3603C62.087 84.2256 63.5683 83.3503 64.7128 81.7681C65.0326 81.3137 64.7128 81.0443 64.4099 81.3978C63.9049 81.9196 63.3663 82.4077 62.7771 82.8285C62.289 83.1652 62.0534 83.0642 62.2048 82.6771C62.3058 82.4414 62.5752 81.7681 65.0158 76.4155ZM60.7741 81.2127C59.6127 82.2731 58.6869 83.0474 58.0305 83.0474C57.5929 83.0474 57.3909 82.8622 57.3572 82.5592C57.2562 81.7513 57.98 80.5225 58.5859 79.6978C59.6295 78.3175 60.9256 77.173 61.7504 77.173C62.3227 77.173 62.6257 77.4086 62.6762 77.7621C62.7771 78.4017 61.7167 80.3374 60.791 81.1958L60.7741 81.2127ZM86.2916 75.6749C85.3827 75.6749 84.1876 76.3145 83.043 77.5769C82.6727 78.0146 82.9589 78.3007 83.2955 77.9809C83.6826 77.6274 84.1034 77.3076 84.5411 77.0215C84.9282 76.7858 85.1807 76.971 85.0797 77.3076C84.9955 77.5938 84.7094 78.267 84.5074 78.7215L83.2618 81.583C82.9084 82.3909 82.5885 83.1988 82.5044 83.4177C82.3361 83.99 82.639 84.2929 83.0935 84.2929C83.9688 84.2929 85.1639 83.5692 86.3253 82.2899C86.6956 81.8523 86.4094 81.583 86.0728 81.8859C85.652 82.2731 85.1975 82.6097 84.7094 82.9295C84.3223 83.1652 84.0529 82.98 84.1708 82.6266C84.2549 82.3741 84.5411 81.785 84.7262 81.3641L85.9886 78.5027C86.3589 77.6611 86.7797 76.769 86.8639 76.5165C86.9986 75.9779 86.7292 75.6749 86.2916 75.6749ZM87.3857 71.2312C86.8302 71.1976 86.3421 71.6015 86.2916 72.1738C86.2075 72.6619 86.5273 73.1501 87.0322 73.2342C87.0491 73.2342 87.0827 73.2342 87.0996 73.2511C87.6382 73.2679 88.1095 72.8639 88.1768 72.3253C88.2778 71.8372 87.958 71.349 87.4699 71.248C87.453 71.2312 87.4194 71.2312 87.3857 71.2312ZM92.4858 75.9442C90.8699 75.8769 89.1362 77.7452 88.2946 80.5057C87.453 83.2662 88.362 84.3266 89.4392 84.3266C90.1798 84.3266 91.4086 83.4513 92.1324 82.2731C92.368 81.8859 92.1829 81.482 91.8125 81.8859C91.3581 82.3741 90.769 82.8454 90.163 82.8117C89.557 82.7781 89.1362 81.9364 89.8264 79.9334C90.8531 77.0383 91.5601 76.7017 91.8799 76.6848C92.1997 76.668 92.8393 77.4928 93.2264 77.5938C93.5126 77.6779 93.8156 77.5433 93.9334 77.2908C94.1186 76.9373 94.0007 76.0284 92.4858 75.9442ZM82.0499 76.0789H80.5687L81.2756 74.1768C81.3766 73.9244 81.2756 73.7897 81.1242 73.7897H80.3499C80.1479 73.7897 80.0806 73.8402 79.9796 74.1095L79.2221 76.0957H78.0439C77.8756 76.0957 77.7577 76.062 77.6399 76.5502C77.6062 76.7858 77.6567 76.8868 77.8756 76.8868H78.9192L77.1349 81.5325C76.8488 82.1889 76.6132 82.879 76.3943 83.5692C76.2765 84.2088 76.6636 84.4781 77.1518 84.3771C78.0944 84.2088 79.4241 83.2325 80.636 81.7176C80.9727 81.28 80.6865 81.0107 80.3499 81.3473C79.8449 81.8355 79.3063 82.3068 78.7508 82.7276C78.2795 83.0474 78.027 82.8117 78.1954 82.3572L80.2489 76.87H81.7301C82.0668 76.87 82.2182 76.7858 82.3024 76.5333C82.4539 76.2303 82.3697 76.0789 82.0499 76.0789ZM54.3443 81.2632C53.8225 81.785 53.267 82.2731 52.6947 82.7107C52.2234 83.0305 51.9878 82.7949 52.1392 82.3404L56.6166 70.4738C56.6839 70.2886 56.6503 70.0361 56.3978 70.0361C55.5225 70.0866 54.6472 70.1876 53.7888 70.3391C53.6373 70.3728 53.57 70.5916 53.7383 70.6421L54.7314 71.0124C54.9334 71.0797 54.9502 71.1807 54.8156 71.5005L50.961 81.4988C50.6749 82.1553 50.4392 82.8454 50.2204 83.5355C50.1194 84.1751 50.4897 84.4444 50.9778 84.3434C51.9709 84.1751 53.3848 83.1989 54.6136 81.5998C54.9502 81.179 54.6809 80.9097 54.3443 81.2632ZM73.2467 81.2968L74.324 79.1255C74.9131 77.9304 75.0309 77.3918 75.0309 76.971C75.0309 76.1799 74.627 75.7759 73.8022 75.7759C72.6408 75.7759 71.7318 76.7017 70.3179 78.671C69.9308 79.2096 69.6783 79.6136 69.1565 80.2701C68.9882 80.472 68.8704 80.4552 68.9545 80.2196L69.6615 78.4354C69.9476 77.8126 70.1496 77.1561 70.2506 76.4828C70.2506 76.0115 70.0486 75.7927 69.5437 75.7927C68.9209 75.7927 68.1298 76.1294 66.7495 77.8631C66.2614 78.5027 66.7495 78.57 66.9178 78.3849C67.1872 78.0987 67.7931 77.4759 68.1803 77.1393C68.5674 76.8026 68.9377 76.9036 68.7862 77.3244C68.6852 77.6611 68.5674 77.9809 68.4327 78.3007L66.2614 83.6365C65.9584 84.3771 67.3555 84.5454 67.608 83.99C68.3654 82.2563 70.015 80.0681 70.6882 79.1086C71.6813 77.6948 72.5398 76.7185 73.1626 76.7185C73.4992 76.7185 73.6339 76.9036 73.6339 77.2571C73.6002 77.5601 73.516 77.8631 73.3814 78.1324L71.8328 81.4146C71.3952 82.2899 70.9912 83.2157 70.9071 83.4513C70.7219 84.0236 71.0417 84.3266 71.5298 84.3266C72.4051 84.3266 73.6002 83.6028 74.7616 82.3236C75.1319 81.8859 74.8458 81.6166 74.5091 81.9196C74.0883 82.3067 73.6339 82.6434 73.1457 82.9632C72.7418 83.2157 72.4724 83.0137 72.5903 82.6434C72.7249 82.3741 73.0447 81.7008 73.2467 81.2968Z"
            fill="black" />
    </g>
</svg>
