<svg width="123" height="32" viewBox="0 0 123 32" fill="none" xmlns="http://www.w3.org/2000/svg">
    <path opacity="0.5"
        d="M69.723 10.4435C69.723 6.87616 69.7842 3.55481 69.9679 0.479492L60.598 2.26318V3.12427L61.5166 3.24728C62.1903 3.30879 62.619 3.55481 62.8639 3.92385C63.1089 4.3544 63.2926 4.96946 63.4151 5.89206C63.5376 7.67574 63.6601 11.7352 63.5988 18.1318C63.5988 24.467 63.5376 28.4649 63.4151 30.0026C66.7834 30.7406 69.4168 31.0482 71.3765 31.0482C75.051 31.0482 77.9293 30.0026 80.0116 27.8498C82.0938 25.7586 83.1961 22.8063 83.1961 19.1774C83.1961 16.2866 82.4 13.8879 80.8077 11.9812C79.2154 10.0745 77.1944 9.1519 74.806 9.1519C73.2137 9.1519 71.5602 9.58244 69.723 10.4435ZM69.9067 29.3875C69.7842 27.4193 69.6617 21.5147 69.6617 11.8582C70.2129 11.6737 70.9478 11.5506 71.8664 11.5506C73.3362 11.5506 74.4998 12.2887 75.3572 13.8264C76.2146 15.364 76.6433 17.2092 76.6433 19.5465C76.6433 22.4373 76.1533 24.7745 75.1735 26.7427C74.1936 28.6494 72.9688 29.6335 71.4377 29.6335C70.9478 29.5105 70.4579 29.449 69.9067 29.3875ZM25.4453 1.09456H0.94873V2.32468L2.2348 2.4477C3.21467 2.63222 3.88832 3.00126 4.31701 3.55481C4.74571 4.16988 4.99067 5.15398 5.05191 6.50712C5.54185 13.1498 5.54185 19.362 5.05191 25.0821C4.92943 26.4352 4.68446 27.4193 4.31701 28.0344C3.88832 28.6494 3.21467 29.0185 2.2348 29.1415L0.94873 29.326V30.5561H16.749V29.326L15.0955 29.203C14.692 29.1691 14.2996 29.0535 13.9417 28.8632C13.5839 28.673 13.2681 28.4119 13.0133 28.0959C12.5846 27.4808 12.3397 26.4967 12.2784 25.1436C12.0947 22.6833 11.9722 19.854 11.9722 16.7172L15.2793 16.7787C17.0553 16.8402 18.2801 18.1933 18.8925 20.8996H20.1173V10.8741H18.8925C18.2801 13.5189 17.1165 14.872 15.2793 14.9335L11.9722 14.995C11.9722 9.45943 12.0947 5.52302 12.2784 3.12427H17.1165C20.546 3.12427 22.8732 5.3385 24.2205 9.76696L25.6903 9.33642L25.4453 1.09456ZM22.567 20.0385C22.567 23.2369 23.4856 25.8816 25.2616 27.9729C27.0376 30.0641 29.671 31.0482 32.9781 31.0482C36.2851 31.0482 38.9797 30.0026 40.9395 27.8498C42.8992 25.7586 43.8178 23.1139 43.8178 19.9155C43.8178 16.7172 42.8992 14.0724 41.1232 11.9812C39.3472 9.88997 36.7138 8.90587 33.4067 8.90587C30.0997 8.90587 27.4051 9.95148 25.4453 12.1042C23.4856 14.1954 22.567 16.8402 22.567 20.0385ZM36.2239 13.0268C36.9588 14.8105 37.265 17.1477 37.265 19.977C37.265 26.4967 35.9176 29.695 33.2843 29.695C31.9369 29.695 30.8958 28.7724 30.1609 26.9272C29.426 25.0821 29.1198 22.7448 29.1198 19.977C29.1198 13.5189 30.4672 10.3205 33.1005 10.3205C34.4479 10.259 35.489 11.1816 36.2239 13.0268ZM87.973 27.9729C89.9939 30.0026 92.5661 31.0482 95.6282 31.0482C97.5266 31.0482 99.1802 30.6791 100.65 29.8796C102.12 29.1415 103.283 28.2189 104.079 27.1118L103.467 26.3737C102.12 27.4193 100.589 27.9114 98.8127 27.9114C96.363 27.9114 94.4646 27.1118 93.1785 25.4511C91.8312 23.7904 91.2188 21.6992 91.3412 18.9929H104.447C104.447 16.0406 103.712 13.6419 102.181 11.7352C100.65 9.88997 98.5065 8.96738 95.7506 8.96738C92.3211 8.96738 89.6877 10.0745 87.7892 12.2272C85.8907 14.3799 84.9721 17.0247 84.9721 20.1615C84.9721 23.3599 85.952 25.9431 87.973 27.9729ZM92.5048 12.5347C93.1785 11.0586 94.0359 10.3205 95.1995 10.3205C97.0367 10.3205 97.9553 12.6578 97.9553 17.3938L91.4637 17.5168C91.525 15.6716 91.8312 14.0109 92.5048 12.5347ZM120.921 10.0745C119.267 9.33642 117.185 8.90587 114.674 8.90587C112.102 8.90587 110.081 9.58244 108.55 10.8741C107.019 12.1657 106.223 13.7649 106.223 15.6716C106.223 17.3323 106.713 18.6239 107.631 19.5465C108.55 20.4691 110.02 21.2687 111.918 21.9452C113.633 22.5603 114.858 23.1754 115.47 23.7289C116.083 24.344 116.45 25.0206 116.45 25.9431C116.45 26.8042 116.144 27.6038 115.47 28.2189C114.858 28.8955 114.001 29.203 112.898 29.203C110.204 29.203 108.183 27.2348 106.774 23.2984L105.733 23.6059L105.978 29.7565C108.183 30.6176 110.632 31.0482 113.327 31.0482C116.144 31.0482 118.288 30.4331 119.88 29.1415C121.472 27.9114 122.268 26.1277 122.268 23.9134C122.268 22.4373 121.901 21.2072 121.105 20.2846C120.308 19.362 119.022 18.5624 117.185 17.8243C115.164 17.0862 113.756 16.4097 113.021 15.7946C112.286 15.1795 111.918 14.4414 111.918 13.5189C111.918 12.5963 112.163 11.8582 112.715 11.2431C113.266 10.6281 113.939 10.382 114.797 10.382C117.246 10.382 119.022 12.1657 120.125 15.6716L121.166 15.364L120.921 10.0745ZM62.0065 9.52094C61.1492 9.09039 60.2305 8.90587 59.1894 8.90587C58.1483 8.90587 57.1072 9.33642 55.9436 10.1975C54.78 11.0586 53.9227 12.2272 53.249 13.8264L53.3102 8.90587L44.0015 10.7511V11.6122L44.9202 11.6737C46.0837 11.7967 46.7574 12.7193 46.8799 14.3799C47.2473 18.1933 47.2473 22.2528 46.8799 26.5582C46.7574 28.2189 46.0837 29.08 44.9202 29.2645L44.0015 29.3875V30.5561H56.9847V29.3875L55.3312 29.2645C54.1676 29.1415 53.494 28.2189 53.3715 26.5582C53.004 22.9908 52.9428 19.1774 53.249 15.241C53.6165 14.626 54.4126 14.2569 55.6374 14.1339C56.8623 14.0109 58.2708 14.3799 59.7406 15.241L62.0065 9.52094Z"
        fill="#33629A" />
</svg>
