<svg width="123" height="39" viewBox="0 0 123 39" fill="none" xmlns="http://www.w3.org/2000/svg">
    <path opacity="0.5"
        d="M27.8562 21.0451C28.2708 20.8479 28.7267 20.6113 29.1413 20.4141C29.3071 20.3352 29.8874 20.138 29.9703 19.9802C30.0118 19.9013 29.9703 19.6647 29.9703 19.5463V18.5997V11.8552V5.26849V4.40077C29.9703 4.36133 30.0118 4.08524 29.9703 4.0458C29.9289 4.00636 29.5972 4.0458 29.5558 4.0458H28.6438C28.3122 4.0458 28.3537 4.08524 28.1464 4.32189C27.3588 5.30793 26.5712 6.29397 25.7836 7.31945C25.4105 7.79275 25.0375 8.22661 24.7058 8.69991C24.4571 9.01544 24.4571 9.05488 24.0011 9.05488L24.1255 6.45174C24.167 5.82067 24.167 5.1896 24.2084 4.55854C24.2084 4.32189 24.2499 4.08524 24.2499 3.84859C24.2499 3.76971 24.2084 3.53306 24.2499 3.49362C24.3328 3.37529 25.0789 3.45417 25.2862 3.45417H40.7894C40.8724 3.45417 41.2454 3.41473 41.3283 3.45417C41.4112 3.49362 41.3698 3.73027 41.3698 3.84859C41.4112 4.36133 41.4112 4.91351 41.4527 5.42625C41.4941 6.57006 41.5356 7.67443 41.6185 8.81823V9.05488C41.4112 9.05488 41.2454 9.09432 41.0796 8.976C40.9138 8.85767 40.7894 8.62102 40.6651 8.46326C40.1677 7.83219 39.6702 7.16168 39.1313 6.53062L37.639 4.63742C37.5561 4.5191 37.4318 4.24301 37.266 4.16412C37.1416 4.08524 36.8929 4.12468 36.7271 4.12468H36.0638C35.9809 4.12468 35.6493 4.08524 35.5664 4.12468C35.525 4.16412 35.5664 4.16412 35.525 4.24301C35.4421 4.55854 35.525 4.95296 35.525 5.26849V18.9942C35.525 19.2703 35.4421 19.6647 35.525 19.9408C35.6079 20.2169 36.2711 20.4141 36.5613 20.5324C36.8514 20.6902 37.3489 20.8085 37.5976 21.0451C37.6805 21.124 37.7634 21.5184 37.6805 21.6368C37.639 21.6762 37.4318 21.6368 37.3903 21.6368H28.2708C28.1879 21.6368 27.8977 21.6762 27.8562 21.6368C27.8148 21.479 27.8562 21.1635 27.8562 21.0451ZM43.2351 20.3352V14.5767V5.15016V3.61194C43.2351 3.37529 43.3181 3.02032 43.2351 2.78367C43.1522 2.50758 42.6548 2.46813 42.3646 2.34981C42.1988 2.31037 41.6599 2.19204 41.577 2.03428V1.71874H41.7014C41.8672 1.63986 42.1988 1.63986 42.4061 1.60042C42.7792 1.52154 43.1522 1.48209 43.4839 1.40321C44.3129 1.24544 45.1834 1.08768 46.0125 0.969354C46.5099 0.89047 47.0073 0.772146 47.5048 0.693262C47.6291 0.693262 48.1266 0.614379 48.168 0.693262C48.2095 0.732704 48.168 0.89047 48.168 0.929912V9.09432C49.7432 7.59554 52.4791 6.76727 54.6761 7.28001C56.5829 7.71387 57.2047 9.40986 57.2047 11.1453C57.2461 13.354 57.2047 15.5233 57.2047 17.732V19.5069C57.2047 19.7041 57.1218 20.1774 57.2047 20.3746C57.2461 20.4535 57.4119 20.4929 57.4948 20.5718C57.785 20.7296 58.1166 20.8874 58.4068 21.0451C58.4483 21.0846 58.5726 21.124 58.5726 21.1635C58.6141 21.2029 58.6141 21.5579 58.5726 21.5973C58.5312 21.6762 58.5312 21.6368 58.4068 21.6368C57.9508 21.7156 57.4534 21.6368 57.0389 21.6368H51.0697C51.0282 21.6368 50.821 21.6762 50.7795 21.6368C50.7381 21.5973 50.7381 21.1635 50.7795 21.124C50.9039 20.9662 51.4013 20.8085 51.5671 20.6902C51.6915 20.6113 52.0645 20.4929 52.1475 20.3746C52.2304 20.2563 52.1475 19.8224 52.1475 19.7041V18.087C52.1475 15.7994 52.1889 13.4723 52.1475 11.1847C52.1475 10.5142 52.0231 9.72539 51.3184 9.37041C50.9453 9.17321 50.4479 9.13377 50.0334 9.13377C49.7018 9.13377 49.3701 9.21265 49.08 9.29153C48.8312 9.37041 48.3753 9.52818 48.2095 9.72539C48.0851 9.88315 48.168 10.1198 48.168 10.317V19.6252C48.168 19.8224 48.0851 20.2169 48.168 20.3746C48.2095 20.4535 48.3753 20.5324 48.4996 20.5718C48.7898 20.7296 49.1629 20.8874 49.453 21.0451C49.4945 21.0846 49.5774 21.0846 49.5774 21.124C49.6188 21.1635 49.6188 21.5184 49.5774 21.5579C49.5359 21.5973 49.4945 21.5973 49.4116 21.5973C48.9556 21.6368 48.4582 21.5973 48.0022 21.5973H42.033C41.9916 21.5973 41.7843 21.6368 41.7429 21.5973C41.7014 21.5579 41.7429 21.1635 41.7843 21.0846C41.9087 20.9268 42.3646 20.769 42.5305 20.6902C42.8206 20.5718 43.0279 20.4535 43.2351 20.3352ZM62.9251 14.8922C63.008 16.6277 63.5884 18.5603 65.2465 19.5069C66.117 19.9802 67.1947 20.138 68.1896 20.0591C69.3917 19.9408 70.3866 19.3886 71.4229 18.8758C71.4229 19.0336 71.4644 19.3097 71.4229 19.4675C71.34 19.6252 71.1327 19.8224 71.0084 19.9408C70.8426 20.0985 70.6353 20.2957 70.4281 20.4535C69.7234 21.0057 68.9358 21.4001 68.1067 21.6762C66.5315 22.1889 64.7076 22.1495 63.0909 21.7551C61.8059 21.4395 60.6452 20.8479 59.7747 19.9013C58.9042 18.9547 58.4068 17.732 58.1995 16.4699C57.7436 13.7484 58.2824 10.6325 60.6452 8.81823C62.7179 7.24057 66.0341 6.92503 68.4798 7.87163C71.4644 9.01544 71.9618 12.2497 71.9618 14.9317H64.0443C63.6713 14.8922 63.2982 14.8922 62.9251 14.8922ZM62.8422 14.2217C63.6713 14.1823 64.5003 14.1428 65.3708 14.064C65.8683 14.0245 66.4071 14.0245 66.9046 13.9851C66.9875 13.9851 67.1947 13.9851 67.2777 13.9456C67.402 13.8668 67.3191 13.0779 67.3191 12.9202C67.2777 11.5003 67.2362 9.76483 66.3657 8.54214C65.7439 7.67443 64.7905 7.83219 64.2102 8.62102C63.008 10.1592 62.8422 12.4469 62.8422 14.2217ZM0.0830078 28.6179C0.0830078 26.4092 0.538986 24.1216 1.82402 22.2678C3.06759 20.4535 5.05732 19.2703 7.21285 18.6786C9.82437 17.9687 12.726 18.0476 15.4205 18.5209C16.0008 18.6392 16.5811 18.7575 17.12 18.9153C17.2029 18.9547 17.576 19.0336 17.6174 19.1125V19.2308C17.7418 19.7041 17.6589 20.2957 17.6589 20.769C17.7004 21.9917 17.7004 23.2539 17.7418 24.4765C17.576 24.4765 17.2858 24.516 17.1615 24.4765C17.0786 24.4371 16.9957 24.2399 16.9542 24.161C16.6226 23.6877 16.291 23.2144 16.0008 22.7017C15.2961 21.6368 14.55 20.5718 13.8453 19.5069C13.4722 18.9153 12.4359 18.9153 11.7726 18.9153C11.0265 18.9153 10.2803 19.0336 9.65855 19.3886C8.24917 20.2169 7.58593 21.834 7.21285 23.2933C6.63252 25.6204 6.67397 28.0657 6.79833 30.4322C6.92268 32.2465 7.08849 34.1792 7.83464 35.8357C8.29062 36.8612 9.07822 37.7684 10.2803 38.005C10.6534 38.0839 11.0265 38.0839 11.441 38.0445C11.6897 38.005 12.5602 37.9656 12.6846 37.7289C12.726 37.65 12.6846 37.4528 12.6846 37.374V36.7034V32.5226V30.9055C12.6846 30.6294 12.7675 30.5111 12.5188 30.3533C12.2286 30.1956 11.897 30.0378 11.6068 29.8406C11.3996 29.7223 10.985 29.604 10.8607 29.4462C10.7778 29.3673 10.7363 28.9334 10.8192 28.8546C10.8607 28.7757 10.8607 28.8151 10.985 28.8151C11.3581 28.7362 11.8555 28.8151 12.2286 28.8151H18.6538C19.0683 28.8151 19.5243 28.7757 19.9388 28.8151H20.1046C20.1461 28.8546 20.1461 29.4067 20.1046 29.4856C20.0217 29.604 19.6072 29.7617 19.4414 29.8406C19.1512 29.9984 18.8196 30.1561 18.5294 30.3533C18.1978 30.5111 18.2392 30.5111 18.2392 30.8661V37.2951C18.2392 37.3739 18.2807 37.5712 18.2392 37.65C18.1563 37.8473 17.2858 37.9656 17.0371 38.0445C16.3324 38.2417 15.5863 38.3994 14.8401 38.5178C13.3893 38.7544 11.9384 38.8333 10.4876 38.7938C8.16626 38.715 5.72056 38.2417 3.81374 36.9007C2.15564 35.7568 1.07787 34.0214 0.580439 32.1282C0.207366 31.0239 0.0830078 29.8012 0.0830078 28.6179ZM19.1926 25.0287C19.1926 24.9498 19.1512 24.6343 19.1926 24.5949C19.2341 24.5554 19.2756 24.5949 19.317 24.5554C19.5657 24.4371 19.8973 24.4371 20.1875 24.3977C21.1409 24.2399 22.0943 24.0821 23.0892 23.9244C23.8353 23.806 24.5815 23.6483 25.2862 23.5694C25.4934 23.5299 25.7422 23.5299 25.9494 23.6088C26.1567 23.6483 26.0738 23.6088 26.1152 23.7666C26.1981 24.2399 26.1152 24.7921 26.1152 25.2654V33.5087C26.1152 34.4947 25.8251 36.309 26.8199 36.9007C27.3174 37.2162 28.022 37.2162 28.6024 37.0979C29.0584 37.019 29.9289 36.7034 30.0947 36.2301C30.1361 36.1118 30.0947 35.9541 30.0947 35.8357V35.0075V29.5251V27.0008V26.1725C30.0947 26.0937 30.1361 25.857 30.0947 25.7781C29.9703 25.6598 29.5558 25.5415 29.4314 25.502C29.1827 25.4231 28.9755 25.3048 28.7267 25.2259C28.6438 25.1865 28.3537 25.1471 28.3122 25.0682C28.2708 25.0287 28.2708 24.6738 28.3122 24.6343C28.3537 24.5949 28.3537 24.6343 28.3951 24.5949C28.6024 24.4765 28.9755 24.516 29.1827 24.4765C30.8823 24.2005 32.6233 23.8455 34.3643 23.6088C34.5716 23.5694 34.7788 23.5694 34.9861 23.6088C35.1933 23.6483 35.1104 23.5694 35.1519 23.7666C35.2348 24.161 35.1519 24.7132 35.1519 25.1471V36.5062C35.1519 36.6246 35.1104 36.8218 35.1519 36.9795C35.1933 37.0979 35.1519 37.0584 35.3592 37.1373C35.7737 37.2951 36.2297 37.4923 36.6442 37.65C36.7685 37.6895 36.81 37.6895 36.8514 37.7684C36.8929 37.8473 36.8929 38.1233 36.8514 38.1233C36.7685 38.2022 36.354 38.1628 36.2711 38.2022C35.3592 38.3205 34.4472 38.3994 33.4938 38.5178C32.6647 38.5966 31.8357 38.715 31.0481 38.7938C30.8823 38.8333 30.7165 38.8333 30.5507 38.7938C30.4678 38.7938 30.219 38.7938 30.1776 38.7544C30.1361 38.6755 30.1776 38.36 30.1776 38.2811V37.6106C30.1776 37.4923 30.2605 37.1767 30.1776 37.0584C30.0947 36.9401 29.9289 37.0979 29.8045 37.1767C29.4729 37.4528 29.0998 37.7289 28.7267 37.9261C27.3588 38.715 25.6593 39.0699 24.0841 38.7544C22.9234 38.5178 21.9285 37.8867 21.4311 36.8218C21.058 36.0724 20.9751 35.2441 20.9751 34.4553V29.7617V27.0797V26.1725C20.9751 26.0937 21.0166 25.857 20.9751 25.7781C20.8922 25.6598 20.3948 25.5415 20.2704 25.4626C19.8559 25.3048 19.5243 25.1865 19.1926 25.0287ZM58.2824 23.5299C58.3653 23.5299 58.7384 23.5299 58.7799 23.6088C58.8213 23.6483 58.7799 23.9244 58.7799 23.9638V27.4347C58.7799 27.553 58.7384 27.7502 58.7799 27.8685V27.9474C58.9457 28.1052 58.9871 27.5924 59.0286 27.553C59.4017 26.0937 60.1064 24.3977 61.6815 23.806C61.9717 23.6877 62.2619 23.6483 62.5521 23.6088C62.8008 23.6088 63.5055 23.5299 63.6298 23.7272C63.6713 23.806 63.6298 24.0032 63.6298 24.0821V28.1052C62.635 27.908 61.5157 27.9474 60.5623 28.1446C60.1064 28.2235 59.6918 28.3418 59.2773 28.539C59.07 28.6179 59.0286 28.5785 58.9871 28.7362C58.9457 28.894 58.9871 29.1701 58.9871 29.3279V36.9401C58.9871 37.019 58.9457 37.1373 58.9871 37.2162C59.07 37.3345 59.3602 37.4134 59.4846 37.4528C59.6918 37.5712 59.9405 37.6895 60.1478 37.8078C60.2307 37.8472 60.3551 37.8867 60.3965 37.9656C60.438 38.005 60.438 38.4783 60.3965 38.5178C60.3551 38.5572 60.1064 38.5178 60.0234 38.5178H53.1423C52.9351 38.5178 52.562 38.5966 52.3962 38.5178H52.2718C52.2304 38.4783 52.2718 38.0445 52.2718 38.005C52.3547 37.7684 52.8936 37.6106 53.1423 37.4923C53.3081 37.4134 53.6398 37.2951 53.7227 37.1373C53.7641 37.0584 53.7227 36.8218 53.7227 36.7429V35.9146V25.7781C53.7227 25.7387 53.7641 25.5415 53.7227 25.502C53.6812 25.4626 53.4739 25.4231 53.391 25.4231C53.1423 25.3443 52.8936 25.2654 52.6449 25.2259C52.3962 25.1471 51.7744 25.1076 51.9816 24.7132C52.0231 24.5949 52.1889 24.6343 52.3547 24.5949C54.1786 24.2793 55.9611 23.9638 57.785 23.6483C57.9508 23.5694 58.1166 23.5694 58.2824 23.5299ZM73.9101 23.8849V20.7296V19.8224C73.9101 19.7041 73.9515 19.4675 73.9101 19.3491C73.8686 19.2703 73.7028 19.2308 73.5784 19.1914C73.2468 19.073 72.9152 18.9547 72.5421 18.8364C72.2934 18.7575 72.1691 18.797 72.1691 18.5209C72.1691 18.2842 72.1276 18.3631 72.3349 18.3237C72.7908 18.1659 73.3297 18.1659 73.7857 18.087C75.1536 17.8504 76.4801 17.6137 77.8481 17.3771C78.1382 17.3376 78.4284 17.2587 78.7186 17.2982C79.0502 17.3376 79.0916 17.2587 79.0916 17.5348C79.1331 18.1659 79.0916 18.8364 79.0916 19.4675V36.7429C79.0916 36.9007 79.0502 36.9007 79.1745 36.9795C79.4233 37.1373 79.8378 37.2162 80.0865 37.2951C80.2523 37.3345 80.7083 37.4134 80.7912 37.5317C80.8326 37.5712 80.8326 38.005 80.7912 38.0445C80.7497 38.0839 80.501 38.0839 80.4596 38.0839C79.8792 38.1628 79.3403 38.2417 78.76 38.2811C77.475 38.4389 76.19 38.5966 74.8635 38.7544C74.6562 38.7938 74.1588 38.8727 74.0759 38.715C73.993 38.5572 74.0759 38.0445 74.0759 37.8867C74.0759 37.7684 74.1588 37.2556 74.0759 37.1767C73.993 37.0979 73.081 37.8867 72.9567 37.9656C72.4592 38.2811 71.9203 38.5178 71.34 38.6755C70.4281 38.9122 69.3917 38.9122 68.4798 38.715C64.5003 37.8472 63.6713 33.3509 64.0029 30.0773C64.1687 28.3418 64.749 26.6064 65.9926 25.3443C67.1533 24.2005 68.7285 23.6088 70.3451 23.4905C71.5887 23.3722 72.7908 23.4511 73.9101 23.8849ZM73.9101 36.4668V26.7642V24.9498C73.9101 24.7132 73.8686 24.6738 73.5784 24.516C72.9981 24.2005 72.252 24.0821 71.6302 24.3188C70.6768 24.6738 70.2208 25.7387 69.9721 26.6064C69.4746 28.1841 69.4332 29.88 69.4746 31.5366C69.5161 32.9565 69.5575 34.6919 70.3866 35.9541C71.1327 37.0584 72.8323 37.3345 73.9101 36.4668ZM87.6309 23.5299C87.8381 23.5694 88.0868 23.4905 88.1697 23.6877C88.2112 23.806 88.1697 24.0821 88.1697 24.2005V36.5457C88.1697 36.7034 88.1283 36.9401 88.1697 37.0979C88.2112 37.2556 88.377 37.2951 88.5428 37.374C88.7915 37.4923 88.9988 37.6106 89.2475 37.7289C89.3304 37.7684 89.5791 37.8472 89.6206 37.9656C89.6206 38.005 89.662 38.4783 89.6206 38.5178H89.4962C89.2475 38.5572 88.9159 38.5178 88.6257 38.5178H82.3249C82.1591 38.5178 81.7031 38.5966 81.5788 38.5178C81.4959 38.4783 81.4544 38.005 81.5373 37.9261C81.6202 37.8078 81.9104 37.7289 82.0348 37.6895C82.2835 37.5712 82.5322 37.4134 82.7809 37.2951C82.9882 37.1767 82.9467 37.2162 82.9467 37.0584C83.0296 36.4668 82.9467 35.7963 82.9467 35.2047V32.0888V26.4092C82.9467 26.2514 82.9882 25.9753 82.9467 25.8176C82.9053 25.6598 82.698 25.6598 82.5322 25.5809C82.242 25.4626 81.9933 25.3837 81.7032 25.2654C81.6202 25.2259 81.2886 25.1865 81.2057 25.0682C81.1643 25.0287 81.1643 24.6343 81.2057 24.5949C81.2472 24.5554 81.3301 24.5949 81.3715 24.5554C81.7032 24.4371 82.0762 24.4371 82.4493 24.3582C82.9882 24.2793 83.4856 24.161 84.0245 24.0821C85.0608 23.9244 86.0557 23.7272 87.092 23.5694C87.2992 23.6088 87.4651 23.5694 87.6309 23.5299ZM88.2112 19.8619C88.1283 22.2284 84.7706 23.2539 83.2369 21.4001C82.5322 20.5324 82.4907 19.3491 83.1125 18.442C83.7343 17.5348 84.9365 17.1404 86.0557 17.3771C87.2993 17.6137 88.2112 18.6392 88.2112 19.8619ZM106.367 37.1767V27.6713V25.857C106.367 25.8176 106.409 25.6204 106.367 25.5809C106.326 25.502 106.077 25.4626 105.994 25.4626L105.248 25.2259C105.124 25.1865 104.792 25.1471 104.709 25.0287C104.626 24.9498 104.668 24.7526 104.668 24.6343C104.668 24.3977 104.751 24.4371 104.999 24.3977L107.735 23.9244L110.471 23.4511C110.637 23.4116 110.761 23.3722 110.927 23.3722C111.01 23.3722 111.425 23.3722 111.508 23.4116C111.549 23.4511 111.508 23.6877 111.508 23.7666V24.516C111.508 24.6343 111.425 24.9893 111.508 25.1076C111.59 25.2654 111.756 25.1076 111.881 24.9893C112.254 24.7132 112.627 24.4765 113.041 24.2793C114.534 23.4905 116.316 23.1355 118.016 23.3722C119.176 23.5299 120.13 24.1216 120.544 25.1865C120.834 25.9359 120.876 26.7247 120.876 27.5136V36.5062C120.876 36.664 120.834 36.9401 120.876 37.0979C120.917 37.2556 121.042 37.2951 121.249 37.374C121.456 37.4923 121.705 37.6106 121.912 37.7289C121.995 37.7684 122.285 37.8472 122.327 37.9656C122.368 38.0445 122.368 38.4389 122.327 38.4783C122.285 38.5572 122.368 38.4783 122.244 38.5178C122.078 38.5966 121.705 38.5178 121.498 38.5178H115.57C115.321 38.5178 114.368 38.6361 114.243 38.4783C114.202 38.4389 114.202 38.005 114.243 37.9261C114.285 37.8472 114.534 37.7684 114.617 37.7289C114.865 37.6106 115.072 37.4923 115.321 37.374C115.404 37.3345 115.653 37.2556 115.694 37.1767C115.736 37.0979 115.694 36.9401 115.694 36.8612V35.9935V33.2326V27.908C115.694 27.2769 115.736 26.567 115.321 26.0148C114.99 25.5415 114.409 25.4231 113.829 25.3837C113.373 25.3837 112.958 25.4231 112.544 25.5415C112.337 25.6204 111.715 25.7781 111.59 26.0148C111.549 26.0937 111.59 26.2514 111.59 26.3303V36.5457C111.59 36.664 111.549 36.9401 111.59 37.0584C111.632 37.2162 111.881 37.2556 112.005 37.3345C112.212 37.4528 112.461 37.5712 112.668 37.6895C112.751 37.7289 112.917 37.8078 112.958 37.8473C113 37.8867 113 38.36 112.958 38.3994C112.958 38.4389 112.917 38.3994 112.875 38.3994C112.71 38.4783 112.295 38.3994 112.129 38.3994H105.165C104.958 38.3994 104.917 38.4389 104.875 38.3205C104.834 38.2417 104.834 37.8867 104.875 37.8078C104.917 37.7289 105.165 37.65 105.248 37.6106C105.663 37.5712 105.994 37.374 106.367 37.1767ZM97.5795 29.9195C97.5795 28.894 97.6209 27.8291 97.538 26.7642C97.4137 25.6204 97.0821 24.3582 95.7141 24.1216C95.2996 24.0427 94.5535 23.9244 94.2633 24.2399C93.9731 24.516 93.7659 24.9104 93.5171 25.2259L91.4031 27.9474C91.2787 28.1052 91.1543 28.4207 90.9885 28.4996C90.9471 28.539 90.5325 28.539 90.5325 28.4996C90.4911 28.4601 90.5325 28.1841 90.5325 28.1052V24.9104C90.5325 24.7921 90.4911 24.5949 90.5325 24.4765C90.6155 24.2793 91.5274 24.161 91.7347 24.0821C92.8953 23.806 94.0975 23.6088 95.2996 23.5299C96.9992 23.4116 98.906 23.4511 100.481 24.161C101.725 24.7132 102.512 25.6992 102.72 26.9614C102.844 27.5924 102.803 28.3024 102.803 28.9334V36.8218C102.803 36.9401 102.72 37.2556 102.803 37.3345C102.844 37.374 103.051 37.4134 103.093 37.4134C103.424 37.4923 103.714 37.5712 104.046 37.65C104.253 37.6895 104.295 37.6895 104.295 37.8867C104.295 38.0839 104.336 38.0839 104.088 38.1628C103.797 38.2811 103.507 38.3994 103.217 38.4783C101.683 38.9122 99.279 39.0305 98.1598 37.6895C98.0769 37.5712 97.8282 37.0584 97.7038 37.019C97.538 36.9795 97.0406 37.6106 96.8748 37.7289C96.2115 38.2811 95.341 38.5966 94.4705 38.715C92.8539 38.9122 91.1129 38.5966 90.118 37.2556C89.289 36.1118 89.1232 34.3369 89.745 33.0748C90.8642 30.6689 94.1804 30.4322 96.5846 30.0378C96.8748 30.0378 97.2064 29.9589 97.5795 29.9195ZM97.5795 36.4668V30.6294C96.3359 30.7083 95.0509 30.7872 94.5949 32.0888C94.2633 32.9565 94.2633 33.982 94.3876 34.8891C94.4705 35.5202 94.6364 36.309 95.2581 36.7034C95.9214 37.1373 97.0406 37.0584 97.5795 36.4668ZM45.1005 29.9195C45.1005 28.894 45.142 27.8291 45.0591 26.7642C44.9347 25.6204 44.6031 24.3582 43.2351 24.1216C42.8206 24.0427 42.0745 23.9244 41.7843 24.2399C41.4941 24.516 41.2869 24.9104 41.0382 25.2259L38.9241 27.9474C38.7997 28.1052 38.6754 28.4207 38.5096 28.4996C38.4681 28.539 38.0536 28.539 38.0536 28.4996C38.0121 28.4601 38.0536 28.1841 38.0536 28.1052V24.9498C38.0536 24.8315 38.0121 24.6343 38.0536 24.516C38.1365 24.3188 39.007 24.2005 39.2557 24.1216C40.4164 23.8455 41.6185 23.6483 42.7792 23.5694C44.4787 23.4511 46.3855 23.4905 47.9607 24.2005C49.2043 24.7526 49.9919 25.7387 50.1992 27.0008C50.3235 27.6319 50.2821 28.3418 50.2821 28.9729V36.8612C50.2821 36.9795 50.1992 37.2951 50.2821 37.374C50.3235 37.4134 50.5308 37.4528 50.5723 37.4528C50.9039 37.5317 51.194 37.6106 51.5257 37.6895C51.7329 37.7289 51.7744 37.7289 51.7744 37.9261C51.7744 38.1233 51.8158 38.1233 51.5671 38.2022C51.2769 38.3205 50.9868 38.4389 50.6966 38.5178C49.1629 38.9516 46.7586 39.0699 45.6394 37.7289C45.5565 37.6106 45.3078 37.0979 45.1834 37.0584C45.0176 37.019 44.5202 37.65 44.3958 37.7684C43.7326 38.3205 42.8621 38.6361 41.9916 38.7544C40.3749 38.9516 38.6339 38.6361 37.639 37.2951C36.81 36.1513 36.6442 34.3764 37.266 33.1143C38.3852 30.7083 41.7014 30.4717 44.0642 30.0773C44.3958 30.0378 44.7274 29.9589 45.1005 29.9195ZM45.1005 36.4668V30.6294C43.8569 30.7083 42.5719 30.7872 42.1159 32.0888C41.7843 32.9565 41.7843 33.982 41.9087 34.8891C41.9916 35.5202 42.1574 36.309 42.7792 36.7034C43.4424 37.1373 44.5616 37.0584 45.1005 36.4668Z"
        fill="#0A5889" />
</svg>
