<svg width="112" height="37" viewBox="0 0 112 37" fill="none" xmlns="http://www.w3.org/2000/svg">
    <g opacity="0.5" clip-path="url(#clip0_447_2570)">
        <path fill-rule="evenodd" clip-rule="evenodd"
            d="M-0.632568 38.1554H112.703V-0.644531H-0.632568V38.1554Z" fill="white" />
        <path fill-rule="evenodd" clip-rule="evenodd"
            d="M0.635742 36.9141H37.5724V0.61377H0.635742V36.9141Z" fill="#FF330D" />
        <path fill-rule="evenodd" clip-rule="evenodd"
            d="M37.573 36.9141H74.51V0.61377H37.573V36.9141Z" fill="black" />
        <path fill-rule="evenodd" clip-rule="evenodd"
            d="M74.51 36.9141H111.447V0.61377H74.51V36.9141Z" fill="#3366CC" />
        <path fill-rule="evenodd" clip-rule="evenodd"
            d="M22.6938 28.0244V17.3119C22.6938 15.7324 22.3841 14.5791 21.7646 13.8512C21.1458 13.124 20.135 12.7607 18.7313 12.7607C18.0826 12.7607 17.3903 12.94 16.6524 13.298C15.9152 13.6559 15.3407 14.1001 14.9288 14.6299V28.0244H10.5137V9.41512H13.6946L14.5075 11.1518C15.7102 9.78641 17.4822 9.10205 19.8286 9.10205C22.0777 9.10205 23.8531 9.76435 25.1553 11.0883C26.4568 12.4129 27.109 14.2593 27.109 16.6288V28.0244H22.6938Z"
            fill="white" />
        <path fill-rule="evenodd" clip-rule="evenodd"
            d="M54.7102 12.8129C56.7414 12.8129 58.1982 13.2605 59.079 14.1562C59.9605 15.0514 60.4003 16.5954 60.4003 18.7897C60.4003 20.8452 59.9571 22.3495 59.0701 23.301C58.1825 24.2553 56.7237 24.7307 54.6918 24.7307C53.623 24.7307 52.6891 24.4129 51.8905 23.7771V14.0265C52.7122 13.2183 53.653 12.8129 54.7102 12.8129ZM55.6911 28.3896C58.5793 28.3896 60.8577 27.5682 62.5254 25.9254C64.1935 24.2813 65.0279 21.9378 65.0279 18.8947C65.0279 12.3674 62.0103 9.10205 55.9756 9.10205C54.3602 9.10205 52.9988 9.62385 51.8905 10.6661V9.41512H47.4761V35.2893H51.8905V27.5737C53.0342 28.1183 54.3004 28.3896 55.6911 28.3896Z"
            fill="white" />
        <path fill-rule="evenodd" clip-rule="evenodd"
            d="M97.8664 13.4933C97.0794 13.005 96.2192 12.7607 95.2817 12.7607C94.2612 12.7607 93.3571 13.217 92.5659 14.1282C91.7741 15.0393 91.3795 16.1532 91.3795 17.4684V28.0244H86.9644V9.41512H91.3795V11.1926C92.6091 9.79977 94.2444 9.10205 96.2833 9.10205C97.7834 9.10205 98.9329 9.32818 99.7296 9.77908L97.8664 13.4933Z"
            fill="white" />
    </g>
    <defs>
        <clipPath id="clip0_447_2570">
            <rect width="110.812" height="36.3003" fill="white"
                transform="translate(0.635742 0.61377)" />
        </clipPath>
    </defs>
</svg>
