<svg width="118" height="93" viewBox="0 0 118 93" fill="none" xmlns="http://www.w3.org/2000/svg">
    <g opacity="0.5">
        <path
            d="M43.4401 19.1963V10.2618L40.5122 11.433C40.5122 11.433 39.7927 12.9388 39.9266 15.1473C39.9935 16.9041 41.0308 18.9286 41.8172 19.8321L43.4401 19.1796V19.1963ZM51.3205 0.808723C51.973 0.875648 53.0773 1.19354 53.8637 1.84606C54.7169 2.63242 54.901 3.87053 54.65 4.97479C54.3823 5.9452 54.0644 6.4806 53.0271 7.1833C51.9898 7.88601 51.2034 7.96967 51.2034 7.96967V12.2696L53.2279 13.8256L51.2034 15.6493V21.5219C51.2034 21.5219 52.8933 20.15 54.1983 17.473C54.1983 17.473 54.2652 17.3391 54.3991 17.0212C54.5329 17.7407 54.466 19.2298 53.6127 21.0702C52.9602 22.5091 51.8559 23.8141 50.3501 24.5837C47.807 25.9557 45.8494 26.0895 43.8249 25.688C41.4157 25.2363 39.1904 23.9312 37.7683 21.639C36.7309 20.0161 36.2625 18.1924 36.2625 16.168C36.3294 12.1859 39.3912 8.80623 42.9047 7.5012C43.3565 7.36735 43.4903 7.2335 44.0759 7.1833C43.8082 7.38408 43.4903 7.56812 43.1055 7.83582C42.0012 8.55526 41.0141 9.99414 40.5624 11.0984L47.3385 8.17044V17.3559L41.9343 20.0329C42.5868 20.8861 44.4775 22.1243 46.1004 22.3083C48.8443 22.6262 50.668 21.5889 50.668 21.5889V15.5991L48.6435 13.8423L50.668 12.2863V7.9864C49.4968 7.85255 47.8572 7.33388 47.0875 7.13311C45.8494 6.86541 41.8005 5.76115 41.1647 5.6273C40.5122 5.56038 39.7258 5.56038 39.2741 5.9452C38.8223 6.33001 38.4877 7.11638 38.6885 7.7689C38.8223 8.15371 39.0733 8.35449 39.2741 8.55526C39.2741 8.55526 39.0064 8.55526 38.6216 8.28756C37.8352 7.83582 37.2496 6.98253 37.1827 5.87827C37.099 4.48958 37.7515 3.16782 38.8725 2.36472C39.9099 1.71221 41.081 1.32739 42.453 1.51143C44.4775 1.77913 47.1377 2.88339 49.5637 3.46898C50.484 3.66976 51.1867 3.73668 51.8392 3.40206C52.1571 3.20128 52.6925 2.61569 52.224 1.89625C51.7053 1.04296 50.7182 1.04296 49.8816 0.925842C50.668 0.791992 50.8019 0.791992 51.3205 0.791992"
            fill="#251802" />
        <path
            d="M77.8563 16.8372L74.7276 19.0457V11.7509L77.8563 16.8372ZM77.7225 9.81006L74.2758 11.8345L71.0133 13.5244V21.9904L69.7751 22.9608L69.9759 23.1615L71.214 22.1911L75.0622 25.5206L81.7045 20.4344L81.5706 20.2336L77.8563 23.0444L74.7276 20.3674V19.3301L80.7843 15.0302L77.7225 9.81006Z"
            fill="#251802" />
        <path
            d="M60.2547 28.833C61.108 29.0338 62.664 29.1509 64.5546 28.2474C66.646 27.277 67.4156 25.1187 67.4156 22.9604L67.4826 19.8986V13.1224L68.7876 12.152L68.6537 11.9513L67.3487 12.9217L64.5379 9.65908L60.2379 12.8547V2.04639L55.8711 5.62686C56.0719 5.76071 57.0423 5.89456 57.0423 6.79804V21.99L54.7668 23.4288L54.9007 23.6296L55.8711 22.9102L58.615 25.3864L62.9149 22.0569L62.7811 21.8561L61.7438 22.6425L60.3049 21.6721V13.2061L61.9947 12.1688L64.3371 14.578V21.8728C64.3371 23.8304 63.8184 26.1058 62.7811 27.277C61.7438 28.4482 61.3422 28.5151 60.2379 28.833"
            fill="#251802" />
        <path
            d="M79.9979 82.4573L76.5513 84.6658V77.371L79.9979 82.4573ZM79.931 75.4302L76.4175 77.4546L73.2218 79.1445V87.6105L71.8499 88.5809L72.0506 88.7817L73.2887 87.8113L77.1369 91.1408L83.7792 86.0545L83.6453 85.8537L79.931 88.6645L76.8692 85.9206V84.8833L82.9259 80.5834L79.931 75.4302Z"
            fill="#251802" />
        <path
            d="M68.8717 91.1236L72.9206 87.5432L72.7198 87.3424L71.7494 88.1957L70.0596 86.6229V78.6756L71.6825 77.5714L71.5487 77.3706L70.0428 78.4748L67.2989 75.48L63.3838 78.4748L60.573 75.6138L56.7917 78.4748L53.9809 75.6138L49.932 79.027L50.0658 79.2278L51.3708 78.1904L53.1945 80.2149V87.2587L52.2911 88.0451L55.219 91.2073L58.2139 88.3463L56.9758 87.1081V78.6422L57.6952 78.0566L59.5859 80.3989V87.3758L59.0003 88.1622L61.7442 91.0902L64.6721 88.2793L63.501 87.1751V78.7091L64.3542 78.0566L66.797 80.332V87.3089L65.8266 87.9614L68.8549 91.1571L68.8717 91.1236ZM44.6282 87.9949L43.457 88.9653L43.5908 89.1661L44.829 88.1287L47.5059 91.1236L51.3541 87.7941L51.2203 87.5933L50.0491 88.5638L48.4763 86.807V78.9266L49.8483 77.8223L49.6475 77.6216L48.3425 78.7258L45.5317 75.5636L41.3823 78.8262L41.901 78.9601L42.9383 78.1068L44.6282 79.9974L44.5947 87.9949H44.6282ZM48.0581 72.1003L45.1301 74.6434L42.7877 72.1672L45.7324 69.5571L48.0748 72.1003H48.0581Z"
            fill="#251802" />
        <path
            d="M29.7541 84.8161V75.8816L27.0102 77.0528C27.0102 77.0528 26.2908 78.5586 26.4246 80.7671C26.4915 82.5239 27.5289 84.5484 28.3152 85.4518L29.7541 84.7993V84.8161ZM37.5676 66.4285C38.287 66.4954 39.3244 66.8133 40.1107 67.4658C40.964 68.2522 41.1481 69.4903 40.8971 70.5946C40.6294 71.565 40.3115 72.1004 39.2742 72.8031C38.2368 73.5058 37.4505 73.4556 37.4505 73.4556V77.7555L39.408 79.4454L37.4505 81.1352V86.9409C37.4505 86.9409 39.0734 85.7697 40.4453 83.0928C40.4453 83.0928 40.5123 82.9589 40.6461 82.641C40.78 83.3604 40.713 84.8495 39.8598 86.69C39.2072 88.1288 38.103 89.4339 36.5972 90.2035C34.054 91.5755 32.0965 91.7093 30.072 91.3078C27.6627 90.856 25.4375 89.551 24.0153 87.2588C22.978 85.6359 22.5095 83.8122 22.5095 81.7877C22.5764 77.8057 25.6382 74.426 29.1518 73.121C29.5366 72.9871 29.7374 72.8533 30.323 72.8031C30.0553 73.0038 29.7374 73.1879 29.3526 73.4556C28.2483 74.175 27.2612 75.6139 26.8094 76.7182L33.5186 73.9073V83.0928L28.1814 85.6359C28.8339 86.4892 30.7245 87.7273 32.3475 87.9113C35.0914 88.2292 36.8481 87.058 36.8481 87.058V81.0683L34.8906 79.3784L36.8481 77.6886V73.3887C35.677 73.2548 34.1712 72.87 33.3346 72.6692C32.0965 72.4015 28.0475 71.2973 27.4118 71.1634C26.7592 71.0965 25.9729 71.0965 25.5211 71.4813C25.0694 71.8661 24.7348 72.6525 24.9355 73.305C25.0694 73.6898 25.3204 73.8906 25.5211 74.0914C25.5211 74.0914 25.2534 74.0914 24.8686 73.8237C24.0823 73.3719 23.4967 72.5186 23.4297 71.4144C23.3461 70.0257 23.9986 68.7039 25.1196 67.9008C26.1569 67.2483 27.3281 66.8635 28.7001 67.0475C30.7245 67.3152 33.3848 68.4195 35.8108 69.0051C36.731 69.2059 37.4337 69.2728 38.0863 68.9382C38.4041 68.7374 38.9395 68.1518 38.4711 67.4324C37.9524 66.5791 36.9653 66.5791 36.1287 66.4619C36.8481 66.395 37.0489 66.395 37.5676 66.395"
            fill="#251802" />
        <path
            d="M88.2798 77.1198V81.3528L90.1035 82.5909C90.1035 82.5909 93.2322 80.1147 94.4034 77.9062C94.4034 77.9062 92.9645 79.7968 91.0739 79.2112C89.451 78.7595 88.6646 77.1868 88.6646 77.1868M85.0841 88.2628C85.0841 88.2628 86.4561 86.0543 88.8654 86.506C91.1408 86.9578 92.1949 89.3169 92.1949 89.3169V83.9796L90.3043 82.6746C88.6144 84.3644 85.4857 86.7737 85.0841 88.2795M87.3596 92.3117C86.9078 92.4456 85.0172 91.9939 84.5487 90.0363C84.097 88.1457 85.4689 86.9076 87.4767 84.8831L85.0674 82.7248V78.6758C85.0674 78.6758 86.8242 77.8225 88.1961 76.986L91.007 75.2292C91.007 75.2292 92.0443 76.4673 93.2155 76.4004C95.0392 76.2665 94.9723 74.8444 94.9053 74.5098C95.2232 75.0284 96.0765 76.6681 92.8139 80.2486L95.424 82.273V87.5601C95.424 87.5601 92.4291 89.0659 89.5012 91.1406C89.5012 91.1406 87.8782 89.183 86.5063 90.1032C85.5861 90.8227 86.0545 91.86 87.3596 92.3117Z"
            fill="#251802" />
        <path
            d="M4.94169 57.912C3.25184 57.7113 2.5324 56.7408 2.5324 55.8876C2.5324 55.3689 3.05107 54.3817 4.0884 54.2646C5.12573 54.1475 6.1798 54.5825 7.08328 55.6366L11.0653 51.4036L10.8645 51.2028L9.8272 52.374C8.72294 51.2028 7.41791 50.4165 5.84517 50.2157V37.249L15.9508 55.4358C15.9508 55.4358 16.2185 55.6366 16.6702 55.6366C17.0551 55.6366 16.9379 55.3689 16.9379 55.3689V37.0482C17.7912 37.0482 18.8955 36.5965 19.548 35.944C21.5056 33.9864 20.7192 31.8448 20.5184 31.5771C20.3846 32.4974 19.6651 33.4678 18.427 33.4678C16.8041 33.4678 15.817 32.2966 15.817 32.2966L11.7178 36.7304L11.9186 36.9311L13.0229 35.693C14.3948 36.9311 15.1812 37.065 16.2185 37.1319V47.7562L8.85679 34.2709C8.13735 33.1666 7.10001 32.1795 5.46036 32.1795C3.56973 32.1795 2.19778 33.8024 2.01373 35.1744C1.81296 36.7304 2.01373 37.1319 2.01373 37.1319C2.01373 37.1319 2.28143 35.3751 3.38569 35.3751C4.3561 35.3751 4.69072 35.8938 5.14246 36.5463V40.8462C4.10513 40.9131 1.62892 41.047 1.42814 43.7742C1.42814 44.8115 2.08066 45.8656 2.66625 46.1835C3.38569 46.6352 3.97128 46.6352 3.97128 46.6352C3.97128 46.6352 3.11799 46.1835 3.38569 45.2633C3.65339 44.4769 5.14247 44.343 5.20939 44.6777V50.1488C4.3561 50.1488 1.94681 50.2157 0.708701 52.4242C-0.0107402 53.7292 0.0561829 55.235 0.775624 56.2724C1.42814 57.1926 2.73318 58.2969 4.94169 57.8953"
            fill="#251802" />
        <path
            d="M26.8428 46.7024L23.4464 48.9109V41.6161L26.8428 46.7024ZM26.709 39.6753L23.1954 41.6998L20.1336 43.3896V51.8556L18.8955 52.826L19.0963 53.0268L20.3344 52.0564L23.9149 55.3859L30.5571 50.2996L30.4233 50.0988L26.709 52.9097L23.7141 50.1658V49.1284L29.7708 44.8285L26.709 39.6753Z"
            fill="#251802" />
        <path
            d="M36.0949 55.5698L32.8324 52.9597L31.3935 53.9302L31.2596 53.7294L32.6985 52.6921V45.3303C32.7654 42.3354 29.8375 43.0549 30.0215 39.8592C30.0884 38.4203 31.5273 37.383 32.23 37.0484C33.0164 36.6636 33.786 36.6636 33.786 36.6636C33.786 36.6636 32.4141 37.4499 32.7487 38.6211C33.2674 40.4448 36.3961 40.5787 36.463 42.988V51.3368L38.4875 53.1605L39.0731 52.7088V43.6572L38.1529 42.4191L41.4155 39.6083L44.4103 42.1514L43.0384 43.3226V51.3368L46.0333 53.5453L46.5519 53.2274V43.6405L45.3138 42.4693L48.5764 39.6083L51.6382 42.0176L52.8763 40.9802L53.0102 41.181L50.2662 43.5234V51.3368L43.2893 55.5029L39.7089 52.8259L36.0615 55.5698H36.0949Z"
            fill="#251802" />
        <path
            d="M81.4531 50.5505L84.8495 53.4784V44.477L81.4531 41.4822V50.5337V50.5505ZM88.6977 43.1887L89.8689 42.1514L90.0697 42.3522L88.6308 43.3895V51.8053L85.2344 53.7628L82.1056 55.5865L78.1236 52.324L77.0863 53.2442L76.8855 53.0434L78.2575 52.1232V43.0047H78.0567L81.5033 41.3149L84.4982 39.625L88.6643 43.2055L88.6977 43.1887Z"
            fill="#251802" />
        <path
            d="M96.5785 42.3357L99.1216 39.7925C99.1216 39.7925 99.4395 40.1104 99.7741 40.2443C99.9749 40.3112 100.745 40.696 101.397 40.3112C101.782 40.1104 101.849 40.0435 102.25 39.6587C102.317 41.6162 101.33 42.9882 100.159 43.5738C99.6403 43.8415 97.9505 44.2263 96.3777 42.4695V51.5211L98.2684 52.8931L99.6403 51.8557L99.7741 52.0565L95.6081 55.4529L92.4124 52.6421L91.2412 53.6794L91.0405 53.4787L92.4794 51.9728V44.2096L91.442 42.5197L90.2708 43.4901L90.0701 43.2894L94.119 39.7758L96.5952 42.3189L96.5785 42.3357Z"
            fill="#251802" />
        <path
            d="M107.27 46.1169L111.954 39.5415C111.954 39.5415 112.607 40.2609 113.644 40.5119C115.083 40.8967 116.388 39.5415 116.388 39.5415C116.12 41.2983 115.217 43.3228 113.326 43.6406C111.636 43.9083 110.064 42.6702 110.064 42.6702L109.746 43.122L116.271 52.642L117.576 51.5378L117.777 51.7385L113.276 55.5198L107.286 46.1336L107.27 46.1169Z"
            fill="#251802" />
        <path
            d="M103.622 37.2494C103.622 35.8105 102.769 34.9739 101.999 35.0409L106.885 31.5942V51.2701L108.441 52.6421L109.478 51.7888L109.679 51.9896L105.58 55.4362L102.769 52.893L101.665 53.8635L101.464 53.6627L103.672 52.0398V37.2494H103.605H103.622Z"
            fill="#251802" />
        <path
            d="M70.5113 42.8039C70.5113 42.8039 69.9257 43.4564 69.0724 43.4564C68.1522 43.4564 67.7674 42.8039 67.7674 42.8039V45.4809C67.7674 45.4809 68.1522 44.8284 69.0724 44.8284C69.9926 44.8284 70.5113 45.414 70.5113 45.414V42.8039ZM70.3774 37.0651L68.7545 35.3753L67.7841 36.0947V42.4191C67.7841 42.4191 68.3697 43.1385 69.2899 43.1385C70.2101 43.1385 70.3942 42.4191 70.3942 42.4191V37.0818L70.3774 37.0651ZM67.7674 54.9173C67.7674 54.9173 68.9386 55.2352 69.8588 54.5325C70.8292 53.7461 70.3774 52.7088 70.3774 52.7088V45.9326C70.3774 45.9326 70.1097 45.2132 69.2732 45.2132C68.353 45.2132 67.7674 45.9326 67.7674 45.9326V54.934V54.9173ZM60.6064 36.9313C60.6064 35.6262 60.0208 34.8399 59.1675 34.8399C57.8625 34.8399 57.5446 36.5966 57.5446 36.5966C57.5446 36.5966 57.2769 35.2247 58.515 33.9866C59.1675 33.2671 60.4056 32.2967 62.3632 32.7485C64.3877 33.2002 65.174 34.706 65.174 36.078V54.3986C65.5254 54.4823 65.86 54.5492 66.2114 54.5994C66.797 54.7332 67.1316 54.8671 67.1316 54.8671V32.8321H67.7841V35.827L71.7661 32.6313L74.761 35.2414L76.1999 34.0702L76.3337 34.271L74.8949 35.5091V52.5247C74.8279 53.629 74.6272 54.7332 73.5229 55.3858C71.1136 56.7577 68.1856 55.185 65.5756 54.8002C63.618 54.5325 60.6232 54.1477 59.8368 55.9044C59.5691 56.49 59.5691 57.3433 60.4893 57.9289C62.2461 59.0332 70.0763 56.0383 72.7365 57.2095C75.1458 58.3137 75.1458 60.0705 74.8279 61.2584C74.1754 63.4669 71.2475 63.9354 71.2475 63.9354C71.2475 63.9354 72.6863 63.149 72.2848 61.7771C72.084 61.1246 71.6323 60.9238 70.0763 61.0576C66.7468 61.4425 62.7146 63.0152 60.0376 61.9109C58.6656 61.3253 57.6952 59.7024 57.7621 57.9958C57.829 55.6535 60.6901 54.6663 60.6901 54.6663V45.8657C60.6232 45.5478 59.1341 45.598 58.7325 46.2505C58.2139 47.2209 59.385 47.6894 59.385 47.6894C59.385 47.6894 58.4648 47.8233 57.6952 46.97C57.3104 46.5852 56.524 45.0794 57.5613 43.6405C58.4146 42.4693 59.452 42.2685 60.757 42.1347L60.6232 36.9145L60.6064 36.9313Z"
            fill="#251802" />
    </g>
</svg>
