<svg width="144" height="19" viewBox="0 0 144 19" fill="none" xmlns="http://www.w3.org/2000/svg">
    <g opacity="0.5">
        <path
            d="M17.0004 3.81579L16.9006 4.16516L18.4548 6.96254L18.7417 7.07736L19.1458 6.94543V18.8459H13.1461C14.9319 16.9852 15.929 14.5294 15.9351 11.9758C15.9357 10.6087 15.6478 9.25628 15.0894 8.00331C15.6934 7.53627 16.3446 7.13103 17.0328 6.79396L17.4544 6.7451L17.4893 6.64493L16.6511 5.12286H16.5264L16.3069 5.43803C15.5809 5.90222 15.1418 5.99995 14.1764 6.36397C13.2316 4.96928 11.9477 3.82634 10.4402 3.03784C8.93268 2.24935 7.24875 1.84002 5.53971 1.84663C3.74595 1.8348 1.98231 2.29825 0.435547 3.18791L0.435547 0.522461H19.1458V2.67485L17.0004 3.81579ZM14.7352 12.0051C14.731 13.2992 14.4471 14.5778 13.9024 15.7568C13.3576 16.9358 12.5642 17.9886 11.5744 18.8459H0.435547V4.43146C1.82882 3.53478 3.44407 3.02439 5.10975 2.95451C6.77542 2.88463 8.42933 3.25786 9.8958 4.03457C11.3623 4.81128 12.5866 5.96245 13.4386 7.36584C14.2907 8.76923 14.7388 10.3724 14.7352 12.0051ZM11.3374 9.57668C11.3374 7.59042 9.84058 6.64493 6.90931 6.64493H2.22674V7.53911L3.27452 7.77121V15.7187L2.22674 15.9508V16.8621H7.3833V15.9483L5.5921 15.7163V12.7723H6.87687C9.73082 12.7723 11.3374 11.646 11.3374 9.57668ZM8.90257 9.64264C8.90257 10.9009 8.20905 11.6778 7.09391 11.6778H5.59709V7.72235H7.17125C8.26144 7.72235 8.90257 8.41864 8.90257 9.64264Z"
            fill="#304154" />
        <path
            d="M29.5061 15.199L31.7888 15.4628V16.4889H25.2302V15.4628L26.5474 15.1306V4.38081L25.2302 4.04854V3.06641H31.1202C34.9396 3.06641 36.8331 4.35638 36.8331 7.00717C36.8331 9.73858 34.755 11.2606 31.0703 11.2606H29.4987L29.5061 15.199ZM29.5061 10.0342H31.2125C32.8191 10.0342 33.832 8.90792 33.832 7.08779C33.832 5.33363 32.9014 4.29041 31.3148 4.29041H29.5061V10.0342Z"
            fill="#304154" />
        <path
            d="M50.5144 15.4625V16.4886H46.8122L42.8207 11.4558H42.1945V15.1205L43.5117 15.4527V16.4788H37.9236V15.4527L39.2408 15.1205V6.22749L37.9934 5.89523V4.90332H44.1429C46.7623 4.90332 48.5211 6.14443 48.5211 7.99876C48.5211 10.051 47.0841 10.9794 45.7769 11.3092L49.1398 15.1669L50.5144 15.4625ZM42.1995 10.2318H43.3146C44.7516 10.2318 45.5125 9.45486 45.5125 8.06228C45.5125 6.75521 44.8015 6.12488 43.3146 6.12488H42.1995V10.2318Z"
            fill="#304154" />
        <path
            d="M50.2271 10.6957C50.2271 7.08716 52.6769 4.65381 56.6335 4.65381C60.5901 4.65381 63.0399 7.09693 63.0399 10.6957C63.0399 14.2944 60.5901 16.7375 56.6335 16.7375C52.6769 16.7375 50.2271 14.3212 50.2271 10.6957ZM59.929 10.6957C59.929 8.32827 59.1182 6.01219 56.6335 6.01219C54.1487 6.01219 53.3355 8.34048 53.3355 10.6957C53.3355 13.0508 54.1462 15.3791 56.631 15.3791C59.1157 15.3791 59.929 13.063 59.929 10.6957Z"
            fill="#304154" />
        <path
            d="M67.9897 15.199L70.2723 15.4628V16.4889H63.6289V15.4628L65.0309 15.1306V4.38081L63.6289 4.04854V3.06641H69.6162C73.4356 3.06641 75.3291 4.35638 75.3291 7.00717C75.3291 9.73858 73.251 11.2606 69.5663 11.2606H67.9946L67.9897 15.199ZM67.9897 10.0342H69.696C71.3026 10.0342 72.3155 8.90792 72.3155 7.08779C72.3155 5.33363 71.3849 4.29041 69.7958 4.29041H67.9872L67.9897 10.0342Z"
            fill="#304154" />
        <path
            d="M88.8131 5.89767L87.5782 6.22994V12.0055C87.5782 15.1498 85.6348 16.7403 82.5763 16.7403C79.1785 16.7403 77.4048 14.82 77.4048 11.854V6.23482L76.1699 5.89767V4.90332H81.6583V5.89767L80.391 6.22994V12.1863C80.391 13.9575 81.4737 15.1327 83.2474 15.1327C84.9538 15.1327 86.0539 14.0406 86.0539 12.3695V6.22749L84.7916 5.89767V4.90332H88.8131V5.89767Z"
            fill="#304154" />
        <path
            d="M101.184 13.2783C101.184 15.4478 99.4104 16.4886 95.6958 16.4886H89.6411V15.4625L91.0282 15.1302V6.22749L89.8108 5.89767V4.90332H95.7781C98.9214 4.90332 100.645 5.82926 100.645 7.76666C100.645 9.27407 99.6324 9.98502 97.9235 10.1829V10.2489C100.052 10.481 101.184 11.5413 101.184 13.2783ZM93.9869 9.88485H95.4238C96.9456 9.88485 97.6691 9.20566 97.6691 7.98166C97.6691 6.70635 96.8907 6.12733 95.4238 6.12733H93.9869V9.88485ZM98.178 13.1611C98.178 11.788 97.2325 11.0429 95.3715 11.0429H93.9869V15.2646H95.6434C97.2475 15.2646 98.1755 14.5195 98.1755 13.1635L98.178 13.1611Z"
            fill="#304154" />
        <path
            d="M112.964 12.4013L111.866 16.4886H102.219V15.4625L103.537 15.1302V6.22749L102.132 5.89767V4.90332H107.81V5.89767L106.493 6.22994V15.2695L110.025 15.0716L111.949 12.069L112.964 12.4013Z"
            fill="#304154" />
        <path
            d="M119.034 15.4625V16.4886H113.446V15.4625L114.763 15.1302V6.22749L113.446 5.89767V4.90332H119.034V5.89767L117.717 6.22994V15.1327L119.034 15.4625Z"
            fill="#304154" />
        <path
            d="M119.683 10.7299C119.683 6.8575 122.709 4.65625 126.418 4.65625C128.028 4.66306 129.605 5.09796 130.981 5.91446L130.482 9.14183H129.434L129.013 6.92347C128.691 6.5898 128.299 6.32722 127.865 6.15323C127.431 5.97924 126.964 5.89785 126.496 5.91446C124.213 5.91446 122.828 7.51959 122.828 10.3658C122.828 13.5932 124.535 15.0835 126.63 15.0835C128.17 15.0835 129.182 14.2553 129.976 12.7503L131.041 13.2389C129.976 15.6821 128.135 16.7473 125.785 16.7473C122.277 16.7375 119.683 14.3212 119.683 10.7299Z"
            fill="#304154" />
        <path
            d="M143.691 15.4625V16.4886H138.013V15.4625L139.391 15.1815L138.68 13.1953H134.538L133.76 15.1986L135.112 15.4796L135.095 16.5057L130.971 16.4886V15.4625L132.036 15.1986L135.753 6.07846L134.755 5.7633V4.90332H138.171L142.459 15.1815L143.691 15.4625ZM136.814 7.88882L136.696 7.50769L136.579 7.88882L135.025 11.9762H138.253L136.814 7.88882Z"
            fill="#304154" />
    </g>
</svg>
