<svg width="136" height="95" viewBox="0 0 136 95" fill="none" xmlns="http://www.w3.org/2000/svg">
    <path
        d="M65.8557 6.12041V18.9157C67.6166 17.9821 68.8498 16.3565 69.4484 14.5235L69.5895 14.593C69.2017 19.1579 66.0316 23.7223 61.1 23.7223C56.133 23.7223 52.4694 20.0915 52.4694 14.2813C52.4694 9.92439 55.3579 7.192 59.0569 4.73658C58.5164 4.5974 57.9598 4.52766 57.401 4.52911C54.8644 4.52911 53.3851 6.22363 53.3851 7.9529H53.1737C53.1383 7.71068 53.1383 7.46897 53.1383 7.22675C53.1383 4.14892 54.7942 0.413921 58.8101 0.413921C61.3816 0.413921 63.3545 2.73086 66.3486 2.73086C67.5464 2.73086 69.0257 2.17743 69.6244 0.89785H69.73C69.6952 3.14631 68.9909 5.46324 65.8557 6.12041ZM67.7577 19.2269C65.9962 21.0594 64.0941 22.6159 61.6283 22.6159C57.0492 22.6159 53.5267 19.0884 53.5267 13.9701C53.5267 10.9617 54.7947 9.33672 56.2038 7.43422H56.0627C55.182 8.29886 52.8572 10.4773 52.8572 14.1776C52.8572 19.8493 56.4854 23.3421 61.2411 23.3421C64.5522 23.3421 66.8067 21.0946 67.8285 19.2616L67.7577 19.2269ZM69.1663 2.45491C68.5677 3.56125 67.2996 4.9788 64.7282 4.9788C62.1567 4.9788 59.7966 3.24953 57.718 3.24953C55.8155 3.24953 54.5126 4.49487 54.0191 5.42849L54.0545 5.49799C54.7239 4.84083 55.7452 4.18367 57.401 4.18367C60.1484 4.18367 61.91 5.84395 64.6928 5.84395C67.652 5.84395 68.9903 3.94145 69.2371 2.48966L69.1663 2.45491ZM59.3734 4.84083C57.577 6.67383 55.9211 8.67956 55.9211 12.5873C55.9211 14.731 56.6608 16.9442 58.3167 18.3275L59.338 17.8083V8.54108L58.3869 9.02501L58.211 8.67905L63.1426 6.0504C61.8043 5.77445 60.6065 5.18679 59.3734 4.84083ZM65.4678 6.18939C65.2211 6.22363 64.9749 6.22363 64.6928 6.22363C64.1998 6.22363 63.7417 6.18939 63.2837 6.08515V16.1828L58.6691 18.6392C59.6201 19.3306 60.7825 19.7456 62.2618 19.7456C63.4596 19.7456 64.5163 19.5033 65.4673 19.0884L65.4678 6.18939ZM60.3952 7.95341L59.7258 8.33361V17.6019L60.3952 17.2559V7.95341ZM80.6505 9.26723V21.2326C80.6505 24.5522 77.6563 26.8006 74.3097 27.4573L74.2395 27.3188C75.8953 26.5231 76.8463 24.8981 76.8463 23.1688V10.7885L74.9443 9.0945L74.2046 9.88964V19.5381L75.2613 20.4717V20.5412L72.4082 23.5843L69.1325 20.6449V20.5065L70.4005 19.1921V3.90721L74.1343 0L74.2046 0.0342374V9.30198L77.2695 6.05142L80.475 8.88754L81.0736 8.26462L81.3558 8.50735L80.6505 9.26723ZM70.7873 20.5754V20.5065L71.5269 19.7798V3.31903L70.7873 4.08044V19.4344L69.6598 20.5412V20.6102L72.4072 23.0309L72.9001 22.4774L70.7873 20.5754ZM77.9733 10.2351L75.6835 8.29886L75.1905 8.81754L77.2336 10.6163V23.0656C77.2336 23.8955 77.0577 24.7596 76.7407 25.2441L76.7761 25.2788C77.6568 24.6559 77.9738 23.7223 77.9738 22.5122L77.9733 10.2351ZM86.2515 16.218V17.9815L89.6683 20.6097L91.6411 18.535L91.9233 18.8114L87.3441 23.618L82.6941 19.9525L81.9898 20.6787L81.7077 20.4022L82.5182 19.5723V10.8233L89.1759 6.05091L92.6635 11.5842L86.2515 16.218ZM83.6446 19.2616V10.4773L82.9049 10.9965V19.6076L87.2733 23.1004L87.837 22.5127L83.6446 19.2616ZM86.3223 8.61006L86.2515 8.64481V15.7341L89.3867 13.4862L86.3223 8.61006ZM87.2379 7.91866L86.6039 8.36784L89.7042 13.2439L90.3382 12.7942L87.2379 7.91866ZM16.5214 54.542L11.6247 50.3921L7.89087 54.542L2.8182 50.2536V43.4761H1.83178C0.951029 43.4761 0.49347 44.0296 0.28161 44.6862H0.175944C0.0635246 44.2569 0.00444623 43.8157 0 43.3724C0 42.473 0.246735 40.1218 2.8182 40.1218V34.1736C2.8182 33.0326 1.4445 32.5829 1.4445 31.0611C1.4445 29.0906 3.34655 27.1539 6.83418 25.9427L6.97524 26.0465C5.7072 26.7731 5.03779 27.4646 5.03779 28.9516C5.03779 31.2343 7.29225 30.6461 7.29225 34.2426V35.6259L11.4139 31.3723L15.7469 35.5564L19.8331 31.3723L23.7783 35.1763V47.9715L16.5214 54.542ZM3.9457 49.7007V42.4045H1.97285C0.951027 42.4045 0.493472 43.0612 0.422678 43.6494L0.457558 43.6841C0.809963 43.3039 1.16236 43.0965 1.97233 43.0965H3.20497V50.082L7.85496 54.0244L8.3833 53.4015L3.9457 49.7007ZM3.9457 33.8277C3.9457 32.4101 2.67766 31.9257 2.67766 31.0268C2.67766 29.7815 3.17061 28.7446 3.9457 27.7763L3.87542 27.742C2.81873 28.5377 1.8323 29.8173 1.8323 31.0616C1.8323 32.3069 3.20601 32.8946 3.20601 34.0014V40.1224H3.9457V33.8277ZM11.3785 37.2862L8.70135 34.7271L7.29225 36.1446V48.3864L10.4977 51.0493L11.3785 50.0809V37.2862ZM12.5055 49.6318V36.8023L9.51132 33.8972L8.94757 34.4506L11.7658 37.113V50.0119L16.5214 54.0581L17.0852 53.5389L12.5055 49.6318ZM19.3396 36.8365L17.1206 34.7613L15.8525 36.0409V48.3522L19.3048 51.3257L19.3396 51.2915V36.8365ZM20.4666 36.3526L17.8951 33.8972L17.3668 34.4506L19.7269 36.6638V51.1188L20.4666 50.4269V36.3526ZM35.4347 54.542L32.0882 51.568L29.094 54.542L25.4305 51.3605L24.937 51.8792L24.6554 51.6027L25.2894 50.9455V41.6784L31.9122 36.975L35.7169 39.8801L36.3863 39.1882L36.6684 39.4652L35.8933 40.2603V49.8397L37.76 51.5337L38.3591 50.9113L38.6407 51.1535L35.4347 54.542ZM26.4169 50.7038V41.3667L25.6772 41.8853V51.0498L29.0591 54.0239L29.6229 53.4705L26.4169 50.7038ZM32.0882 41.6089L29.1997 39.3957L29.094 39.4652V49.528L31.4896 51.568L32.0882 50.9803V41.6089ZM33.2157 51.0151V41.0902L30.2215 38.7038L29.5172 39.1877L32.476 41.4704V51.3605L35.4352 53.9886L35.9636 53.4352L33.2157 51.0151ZM45.6857 43.2687H49.3139V50.6691L43.7129 54.542C42.9732 53.7122 41.916 53.1245 40.6131 53.1245C39.5564 53.1245 38.7105 53.4704 37.5835 54.4041L37.4076 54.3346L42.1986 47.4876H39.2394V41.0555L45.1225 37.044C45.8268 37.5974 46.3551 37.9081 47.2713 37.9081C47.9761 37.9081 48.9974 37.7696 49.7725 37.1477L49.9136 37.2167L45.6857 43.2687ZM41.7406 52.1214C40.7187 52.1214 39.9088 52.4673 39.204 52.9513V53.0208C39.7677 52.7785 40.3315 52.7096 40.8598 52.7096C41.6698 52.7096 42.9383 53.0902 43.7837 54.0586L44.5942 53.471C43.9242 52.7096 43.1143 52.1214 41.7406 52.1214ZM45.5093 46.3117H43.5364L39.4148 52.1566L39.4502 52.2256C40.4715 51.4995 41.4579 51.0156 42.6557 51.0156C43.7124 51.0156 44.8045 51.4995 45.4739 52.3294L45.5093 52.2951V46.3117ZM40.3663 46.3117V40.7448L39.6266 41.2634V47.0731H42.4797L43.0435 46.3122L40.3663 46.3117ZM47.7289 39.5337C46.9892 40.0529 46.5665 40.3293 45.3333 40.3293C44.6285 40.3293 43.7832 40.0181 43.1143 39.3262L43.044 39.3609V44.4098H44.3823L47.7643 39.5679L47.7289 39.5337ZM46.0381 39.2225C45.4041 39.2225 44.5942 38.9118 44.0653 38.2198L43.1845 38.8075C43.854 39.6032 44.488 39.9486 45.4739 39.9486C46.1079 39.9486 47.024 39.7754 47.9751 38.9797L48.01 38.8765C47.4119 39.1192 46.6722 39.2225 46.0381 39.2225ZM46.6368 45.1712H44.3469L43.8186 45.8973H45.8971V52.6058L46.6368 52.0871V45.1712ZM61.467 40.2256V52.1909C61.467 55.5104 58.4728 57.7589 55.1263 58.4155L55.056 58.277C56.7118 57.4814 57.6628 55.8564 57.6628 54.1271V41.7469L55.7608 40.0529L55.0211 40.848V50.4964L56.0778 51.43V51.4995L53.2247 54.5425L49.949 51.6032V51.4647L51.217 50.1504V34.8656L54.9508 30.9583L55.0211 30.9926V40.2603L58.086 37.0098L61.2915 39.8459L61.8902 39.223L62.1723 39.4657L61.467 40.2256ZM51.6038 51.5337V51.4647L52.3434 50.7381V34.2774L51.6038 35.0383V50.3921L50.4763 51.499V51.568L53.2237 53.9886L53.7166 53.4352L51.6038 51.5337ZM58.7898 41.1934L56.5 39.2572L56.007 39.7759L58.0501 41.5747V54.0239C58.0501 54.8538 57.8742 55.7179 57.5572 56.2023L57.5926 56.2371C58.4733 55.6141 58.7903 54.6805 58.7903 53.4705L58.7898 41.1934ZM67.8785 54.542L64.8489 51.8102L64.1441 52.5363L63.8619 52.2594L64.6724 51.3952V41.4014L63.1931 40.0181L62.6293 40.641L62.3472 40.3641L65.5173 36.975L68.3355 39.4652L69.0403 38.7043L69.3573 38.9465L68.4765 39.8801V49.9782L70.1678 51.5342L70.9429 50.7386L71.2245 51.0156L67.8785 54.542ZM65.7999 51.1535V40.848L63.9682 39.1882L63.4752 39.7416L65.0602 41.2287V51.4995L67.8785 53.9891L68.4068 53.4357L65.7999 51.1535ZM66.8566 36.6986L63.9682 34.1052L66.6104 31.3385L69.4989 33.9319L66.8566 36.6986ZM65.0602 33.5512L64.5319 34.0699L66.8212 36.1794L67.3496 35.5917L65.0602 33.5512ZM82.7737 54.542L79.7088 51.8102V41.7126L77.8416 40.0529L76.8552 41.0902V50.4269L77.9473 51.4295V51.568L75.0588 54.542L71.7825 51.6027V51.499L73.0511 50.1852V41.4704L71.3952 39.9834L70.7258 40.7095L70.4442 40.4331L73.6497 37.0093L76.8552 39.8106V40.502L80.2017 37.0093L83.3364 39.7759L84.0412 39.0497L84.3582 39.3262L83.5129 40.1908V50.0809L85.0979 51.5332L85.873 50.7033L86.1546 50.9798L82.7737 54.542ZM73.4737 51.5337V51.4647C73.4737 51.5337 74.1785 50.7728 74.1785 50.7728V40.9512L72.1703 39.153L71.6768 39.6716L73.4383 41.2624V50.3916L72.3463 51.4985V51.5674L75.0588 53.9881L75.622 53.4004L73.4737 51.5337ZM80.8357 51.2573V41.125L78.6521 39.1882L78.0883 39.7759L80.096 41.5394V51.6027L82.7378 54.0234L83.3015 53.4352L80.8357 51.2573ZM92.7072 60.7667C91.5453 59.5218 90.7349 59.0032 89.6428 59.0032C88.4804 59.0032 87.1416 59.4528 85.7679 60.179L85.6622 60.0758L90.5235 54.5425L87.0713 51.8454L86.4019 52.5373L86.1203 52.2951L86.8948 51.4652V41.6784L93.5879 36.975L97.3218 39.8801L97.9563 39.1882L98.2379 39.4652L97.4982 40.2603V52.0877C97.4982 53.8859 98.5195 53.8169 98.5195 55.165C98.5195 56.721 96.2297 58.1733 92.7072 60.7667ZM88.0223 51.1878V41.4014L87.2826 41.9206V51.4995L90.7697 54.2661L91.2986 53.6432L88.0223 51.1878ZM90.4881 58.1043C89.3258 58.1043 88.2685 58.4502 87.2826 59.1069V59.1764C87.9166 58.9342 88.6209 58.623 89.8187 58.623C90.9108 58.623 91.8264 59.2106 92.7426 60.2485L93.4474 59.6951C92.5661 58.6925 91.5094 58.1043 90.4881 58.1043ZM94.7857 54.7843C93.9055 54.2308 93.6936 53.6432 93.6936 52.1561V51.5332L87.8458 58.1728L87.8812 58.207C89.0082 57.5504 90.0301 57.0664 91.6859 57.0664C93.095 57.0664 94.046 57.6193 95.1381 58.5187C95.8075 57.9653 96.2651 57.4124 96.2651 56.5477C96.2651 55.8563 95.6659 55.3377 94.7857 54.7843ZM93.6936 41.6089L90.7697 39.3615L90.6989 39.4304V50.0467L92.9539 51.7759L93.6936 50.9461V41.6089ZM95.8424 54.3003C94.9262 53.6084 94.8206 53.0208 94.8206 51.5337V41.0212L91.8613 38.6695L91.1924 39.1192L94.0809 41.3667V52.0177C94.0809 53.5047 94.1517 53.9201 95.1027 54.542C95.9481 55.0955 96.617 55.6831 96.617 56.4788C96.617 56.6857 96.5821 57.0317 96.5821 57.0317L96.617 57.0664C96.7934 56.8932 97.0048 56.6167 97.0048 56.167C97.0053 55.4067 96.6175 54.888 95.8424 54.3003ZM104.297 54.542L101.056 52.0524L100.387 52.7785L100.105 52.5016L100.88 51.6717V39.5684H98.8365L98.7658 39.4994L99.9989 37.7007H100.879V35.3842L104.614 31.4765L104.684 31.546V37.7012H107.502L107.573 37.7707L106.34 39.5689H104.684V50.0472L106.622 51.5L107.361 50.7043L107.643 50.9808L104.297 54.542ZM102.007 34.7961L101.267 35.5917V37.7012H102.007V34.7961ZM102.007 51.3262V39.5684H101.267V51.7412L104.262 54.0239L104.79 53.4705L102.007 51.3262ZM119.162 40.5715V50.2542L113.209 54.5768L108.735 51.2573L108.206 51.8449L107.925 51.568L108.559 50.8766V41.4014L114.794 37.0093L118.951 40.1913L119.62 39.4994L119.902 39.7759L119.162 40.5715ZM109.687 50.5311V41.0902L108.946 41.6089V50.9113L113.174 54.0929L113.843 53.6089L109.687 50.5311ZM115.358 41.7126L112.399 39.4299L112.364 39.4647V49.7697L115.358 51.9829V41.7126ZM116.485 41.0902L113.209 38.6L112.54 39.084L115.746 41.5046V52.2599L116.485 51.707V41.0902ZM132.619 54.542L129.554 51.8102V41.7126L127.687 40.0529L126.701 41.0902V50.4269L127.793 51.4295V51.568L124.904 54.542L121.628 51.6027V51.499L122.896 50.1852V41.4704L121.241 39.9834L120.571 40.7095L120.29 40.4331L123.495 37.0093L126.701 39.8106V40.502L130.047 37.0093L133.182 39.7759L133.887 39.0497L134.204 39.3262L133.358 40.1908V50.0809L134.943 51.5332L135.718 50.7033L136 50.9798L132.619 54.542ZM123.319 51.5337V51.4647C123.319 51.5337 124.023 50.7728 124.023 50.7728V40.9512L122.016 39.153L121.523 39.6716L123.284 41.2624V50.3916L122.192 51.4985V51.5674L124.905 53.9881L125.468 53.4004L123.319 51.5337ZM130.681 51.2573V41.125L128.497 39.1882L127.934 39.7759L129.941 41.5394V51.6027L132.583 54.0234L133.147 53.4352L130.681 51.2573ZM58.0044 87.4273C57.018 86.39 56.6661 86.044 55.5032 85.7328V92.5109L55.4324 92.5451L54.0233 91.2998L49.9371 95L49.8663 94.9658V85.6638C48.6336 85.9403 47.3302 86.5632 46.0617 87.8075L45.9914 87.7733C46.2381 85.1104 47.5764 83.1394 49.8658 82.3785V75.6353H49.1261C48.1048 75.6353 47.541 76.1539 47.0481 77.0876H46.9424C46.8367 76.7769 46.7659 76.2919 46.7659 75.4973C46.7659 74.0445 47.8581 72.5232 49.655 72.5232H49.8658V68.7882L48.4218 67.5086L47.717 68.2005L47.4702 67.9583L51.0281 64.2581L54.3393 67.2322V70.379L55.1144 69.5491V65.5719H55.5017V69.2031L60.1865 64.2576L64.1671 67.8198V82.863L58.0044 87.4273ZM49.8673 84.3843C48.4233 84.6607 47.402 85.5253 46.7326 86.6664L46.7675 86.7359C47.7544 85.906 48.6696 85.5259 49.8673 85.2489V84.3843ZM50.9948 74.4599H49.0574C47.7185 74.4599 47.1902 75.2898 47.1553 76.2582L47.1902 76.2924C47.6129 75.6005 48.0356 75.3588 48.8809 75.2556H50.2551V94.1021L50.9948 93.4102V74.4599ZM50.9948 68.2348L49.2333 66.6445L48.6696 67.2322L50.2551 68.615V72.5227H50.9948V68.2348ZM55.1165 70.2058L54.3414 71.0014V91.0243L55.1165 91.7162V70.2058ZM59.731 69.4106L57.6525 67.5434L55.5037 69.8261V81.9984C57.3355 82.1716 58.6035 82.6903 59.6956 83.8656L59.731 83.8314V69.4106ZM55.5037 84.3843V85.2836C56.7015 85.5601 57.1944 85.906 58.0398 86.8739L58.8503 86.2515C58.0044 85.2141 57.1591 84.5922 55.5037 84.3843ZM60.858 68.8577L58.4625 66.6787L57.8987 67.2664L60.1183 69.2721V85.3526L60.858 84.7992V68.8577ZM76.4633 73.4568V83.1394L70.5094 87.4621L66.0358 84.1426L65.5069 84.7302L65.2253 84.4532L65.8594 83.7618V74.2867L72.0949 69.8945L76.2514 73.0766L76.9203 72.3847L77.2025 72.6612L76.4633 73.4568ZM66.9874 83.4164V73.9755L66.2472 74.4942V83.7966L70.4745 86.9781L71.1439 86.4942L66.9874 83.4164ZM72.6587 74.5979L69.6999 72.3152L69.6645 72.35V82.655L72.6587 84.8682V74.5979ZM73.7861 73.9755L70.5099 71.4853L69.841 71.9693L73.0465 74.3899V85.1451L73.7861 84.5922V73.9755ZM84.6353 76.1539H88.2639V83.5544L82.6629 87.4273C81.9232 86.5974 80.8666 86.0098 79.5631 86.0098C78.5064 86.0098 77.6611 86.3557 76.5336 87.2894L76.3576 87.2198L81.1482 80.3728H78.1889V73.9408L84.072 69.9293C84.7768 70.4827 85.3047 70.7934 86.2208 70.7934C86.9256 70.7934 87.9464 70.6549 88.722 70.033L88.8631 70.102L84.6353 76.1539ZM80.6901 85.0067C79.6688 85.0067 78.8583 85.3526 78.154 85.8365V85.906C78.7178 85.6638 79.281 85.5948 79.8098 85.5948C80.6203 85.5948 81.8878 85.9755 82.7332 86.9439L83.5437 86.3562C82.8748 85.5948 82.0643 85.0067 80.6901 85.0067ZM84.4598 79.197H82.487L78.3659 85.0419L78.4007 85.1109C79.422 84.3848 80.4085 83.9008 81.6062 83.9008C82.6629 83.9008 83.755 84.3848 84.4244 85.2147L84.4593 85.1804L84.4598 79.197ZM79.3169 79.197V73.6301L78.5767 74.1487V79.9584H81.4298L81.9935 79.1975L79.3169 79.197ZM86.6789 72.419C85.9387 72.9381 85.5165 73.2146 84.2829 73.2146C83.578 73.2146 82.7327 72.9034 82.0638 72.2115L81.993 72.2462V77.295H83.3313L86.7132 72.4532L86.6789 72.419ZM84.9877 72.1077C84.3536 72.1077 83.5437 71.797 83.0153 71.1051L82.1346 71.6928C82.804 72.4885 83.438 72.8339 84.4244 72.8339C85.0584 72.8339 85.9746 72.6607 86.9256 71.865L86.9605 71.7618C86.3619 72.0045 85.6222 72.1077 84.9877 72.1077ZM85.5868 78.0564H83.2975L82.7691 78.7826H84.8471V85.4911L85.5868 84.9724V78.0564ZM94.1117 87.4273L90.8708 84.9377L90.2014 85.6638L89.9198 85.3869L90.6944 84.557V72.4537H88.6512L88.581 72.3847L89.8136 70.586H90.6938V68.2695L94.4282 64.3618L94.499 64.4313V70.5864H97.3167L97.3875 70.656L96.1543 72.4542H94.499V82.9325L96.4364 84.3853L97.1761 83.5896L97.4577 83.8661L94.1117 87.4273ZM91.8218 67.6813L91.0821 68.477V70.5864H91.8218V67.6813ZM91.8218 84.2115V72.4537H91.0821V84.6265L94.0763 86.9091L94.6046 86.3557L91.8218 84.2115Z"
        fill="#231F20" />
</svg>
